<?xml version="1.0" standalone="no"?>
<!DOCTYPE svg PUBLIC "-//W3C//DTD SVG 1.1//EN" "http://www.w3.org/Graphics/SVG/1.1/DTD/svg11.dtd" >
<svg xmlns="http://www.w3.org/2000/svg" xmlns:xlink="http://www.w3.org/1999/xlink" version="1.1">
<metadata>
Created by FontForge 20190801 at Fri May  7 23:58:42 2021
 By Unknown
Copyright (c) 2018. Netflix, Inc. and its affiliates. All rights reserved. 
</metadata>
<defs>
<font id="NetflixSans-Bold" horiz-adv-x="612" >
  <font-face 
    font-family="Netflix Sans"
    font-weight="700"
    font-stretch="normal"
    units-per-em="1000"
    panose-1="2 0 8 3 0 0 0 0 0 0"
    ascent="800"
    descent="-200"
    x-height="521"
    cap-height="696"
    bbox="-266 -454 2000 1030"
    underline-thickness="80"
    underline-position="-389"
    unicode-range="U+000D-FFFD"
  />
<missing-glyph horiz-adv-x="500" 
d="M450 0h-400v750h400v-750zM400 50v650h-300v-650h300z" />
    <glyph glyph-name=".notdef" horiz-adv-x="500" 
d="M450 0h-400v750h400v-750zM400 50v650h-300v-650h300z" />
    <glyph glyph-name="glyph1" horiz-adv-x="0" 
 />
    <glyph glyph-name="uni000D" unicode="&#xd;" horiz-adv-x="221" 
 />
    <glyph glyph-name="space" unicode=" " horiz-adv-x="221" 
 />
    <glyph glyph-name="exclam" unicode="!" horiz-adv-x="297" 
d="M77 231l-10 465h163l-10 -465h-143zM148 -15c-26 0 -48 9 -67 28s-28 41 -28 68s9 49 28 68s41 28 67 28c27 0 49 -9 68 -28s28 -41 28 -68s-9 -49 -28 -68s-41 -28 -68 -28z" />
    <glyph glyph-name="quotedbl" unicode="&#x22;" horiz-adv-x="473" 
d="M58 442l-6 283h144l-5 -283h-133zM282 442l-6 283h144l-5 -283h-133z" />
    <glyph glyph-name="numbersign" unicode="#" 
d="M59 0l29 163h-66v110h85l27 147h-104v110h123l29 163h120l-29 -163h132l29 163h119l-29 -163h66v-110h-85l-27 -147h104v-110h-123l-29 -163h-120l29 163h-132l-29 -163h-119zM227 273h132l26 147h-132z" />
    <glyph glyph-name="dollar" unicode="$" 
d="M269 -108v100c-65 7 -118 29 -159 64c-40 35 -66 82 -77 140h144c6 -21 16 -38 31 -52c14 -15 34 -25 61 -30v178l-35 7c-67 13 -115 36 -146 69s-46 76 -46 129c0 40 10 75 30 105c20 29 47 53 82 71c34 18 72 29 115 33v105h78v-107c60 -7 109 -27 148 -61
s64 -78 76 -133h-144c-11 40 -38 64 -80 72v-167l27 -5c67 -13 118 -36 153 -70c35 -35 52 -79 52 -134c0 -63 -21 -113 -63 -152c-43 -38 -99 -59 -169 -64v-98h-78zM193 507c0 -18 5 -33 13 -45c10 -13 30 -23 63 -32v153c-24 -4 -43 -13 -56 -27c-13 -13 -20 -30 -20 -49
zM428 197c0 19 -6 34 -16 47c-12 12 -33 23 -65 32v-164c54 9 81 37 81 85z" />
    <glyph glyph-name="percent" unicode="%" horiz-adv-x="983" 
d="M236 327c-35 0 -68 9 -96 25c-30 18 -53 41 -70 70s-26 62 -26 97s9 67 26 97c17 28 40 52 70 68c28 18 61 26 96 26s68 -8 96 -26c30 -16 53 -40 70 -68c17 -30 26 -62 26 -97s-9 -68 -26 -97s-40 -52 -70 -70c-28 -16 -61 -25 -96 -25zM193 0l463 696h133l-462 -696
h-134zM236 441c22 0 40 7 56 23c14 14 22 33 22 55c0 21 -8 39 -22 55c-16 14 -34 22 -56 22s-40 -8 -56 -22c-14 -16 -22 -34 -22 -55c0 -22 8 -41 22 -55c16 -16 34 -23 56 -23zM747 -14c-35 0 -68 8 -97 26c-29 16 -52 40 -70 68c-16 30 -25 62 -25 97c0 36 9 69 25 97
c18 30 41 52 70 70c29 16 62 25 97 25s67 -9 97 -25c28 -18 52 -40 69 -70c17 -28 26 -61 26 -97c0 -35 -9 -67 -26 -97c-17 -28 -41 -52 -69 -68c-30 -18 -62 -26 -97 -26zM747 100c21 0 40 8 55 22c15 16 23 34 23 55c0 22 -8 41 -23 55c-15 16 -34 23 -55 23
c-22 0 -41 -7 -55 -23c-16 -14 -23 -33 -23 -55c0 -21 7 -39 23 -55c14 -14 33 -22 55 -22z" />
    <glyph glyph-name="ampersand" unicode="&#x26;" horiz-adv-x="747" 
d="M295 -16c-52 0 -96 9 -133 26c-37 18 -65 42 -84 74c-19 30 -29 66 -29 106c0 44 11 82 33 114c23 33 54 60 95 83c-22 24 -39 48 -50 72s-17 50 -17 78c0 33 9 62 27 89s43 48 77 64c32 16 71 24 114 24c46 0 85 -8 116 -24s55 -37 71 -63s24 -54 24 -85
c0 -41 -13 -76 -38 -104c-25 -29 -63 -53 -114 -73l109 -117l64 84h163l-139 -177l144 -155h-191l-50 53c-27 -22 -57 -39 -88 -51s-66 -18 -104 -18zM265 531c0 -15 4 -29 12 -41c8 -13 21 -28 38 -47c56 24 84 53 84 88c0 17 -6 32 -18 44s-28 18 -49 18
c-20 0 -36 -6 -48 -18c-13 -12 -19 -27 -19 -44zM207 210c0 -27 9 -50 27 -69s44 -29 78 -29s64 10 91 31l-149 160c-14 -12 -25 -26 -34 -41c-9 -16 -13 -33 -13 -52z" />
    <glyph glyph-name="quotesingle" unicode="'" horiz-adv-x="249" 
d="M58 442l-6 283h144l-5 -283h-133z" />
    <glyph glyph-name="parenleft" unicode="(" horiz-adv-x="341" 
d="M175 -160c-45 68 -77 140 -97 215c-19 75 -29 153 -29 233s10 158 29 232c20 76 52 147 97 215h151c-43 -75 -74 -149 -93 -223c-19 -75 -28 -149 -28 -224s9 -149 28 -224s50 -149 93 -224h-151z" />
    <glyph glyph-name="parenright" unicode=")" horiz-adv-x="340" 
d="M165 -160h-150c43 75 74 149 93 224s28 149 28 224s-9 149 -28 224c-19 74 -50 148 -93 223h150c45 -68 78 -139 97 -215c19 -74 29 -152 29 -232s-10 -158 -29 -233s-52 -147 -97 -215z" />
    <glyph glyph-name="asterisk" unicode="*" horiz-adv-x="513" 
d="M86 447l88 100l-131 28l38 119l126 -55l-13 136h125l-14 -136l126 55l39 -119l-132 -28l89 -100l-101 -77l-70 118l-70 -118z" />
    <glyph glyph-name="plus" unicode="+" 
d="M241 83v188h-174v126h174v188h130v-188h175v-126h-175v-188h-130z" />
    <glyph glyph-name="comma" unicode="," horiz-adv-x="290" 
d="M19 -176c24 37 44 71 59 100c16 29 27 55 33 76c-19 5 -34 14 -45 29c-12 15 -18 32 -18 51c0 23 8 44 26 62c16 19 39 28 67 28c29 0 53 -9 71 -28c19 -18 28 -44 28 -77s-8 -69 -24 -108s-40 -83 -73 -133h-124z" />
    <glyph glyph-name="hyphen" unicode="-" horiz-adv-x="484" 
d="M72 225v129h340v-129h-340z" />
    <glyph glyph-name="period" unicode="." horiz-adv-x="290" 
d="M145 -15c-27 0 -49 9 -68 28s-28 41 -28 68s9 49 28 68s41 28 68 28s49 -9 68 -28s28 -41 28 -68s-9 -49 -28 -68s-41 -28 -68 -28z" />
    <glyph glyph-name="slash" unicode="/" horiz-adv-x="447" 
d="M7 -160l283 895h150l-283 -895h-150z" />
    <glyph glyph-name="zero" unicode="0" 
d="M306 -15c-57 0 -108 15 -150 45c-44 29 -77 71 -100 126c-23 54 -35 118 -35 192s12 138 35 192c23 55 56 97 100 126c42 30 93 45 150 45c58 0 108 -15 151 -45c43 -29 76 -71 99 -126c23 -54 35 -118 35 -192s-12 -138 -35 -192c-23 -55 -56 -97 -99 -126
c-43 -30 -93 -45 -151 -45zM306 125c39 0 69 19 91 59c22 38 33 93 33 164s-11 126 -33 164c-22 40 -52 59 -91 59s-69 -19 -91 -59c-22 -38 -33 -93 -33 -164s11 -126 33 -164c22 -40 52 -59 91 -59z" />
    <glyph glyph-name="one" unicode="1" 
d="M271 0v533l-159 -44v137l317 83v-709h-158z" />
    <glyph glyph-name="two" unicode="2" 
d="M47 0v128l271 237c30 26 51 48 62 65s17 37 17 58c0 23 -8 43 -25 59s-40 24 -71 24c-30 0 -54 -7 -73 -21c-18 -15 -30 -33 -35 -56h-152c6 43 21 80 43 112c24 33 54 58 92 77c37 19 80 28 128 28c49 0 93 -9 131 -27c38 -19 68 -44 90 -78c22 -32 33 -71 33 -115
c0 -47 -13 -87 -38 -121c-25 -35 -58 -69 -98 -102l-157 -131h299v-137h-517z" />
    <glyph glyph-name="three" unicode="3" 
d="M308 -15c-79 0 -142 18 -189 53c-47 36 -76 85 -86 147h156c7 -20 21 -35 43 -46c20 -11 45 -16 74 -16s53 7 74 20c20 13 30 35 30 64c0 26 -10 45 -30 59c-20 12 -45 19 -76 19h-88v133h82c29 0 53 7 71 22c18 14 27 33 27 57c0 26 -9 45 -28 57c-19 13 -43 19 -72 19
c-27 0 -49 -5 -68 -17c-19 -10 -31 -25 -37 -43h-152c14 60 44 108 90 144s105 54 178 54c45 0 87 -8 123 -25c38 -16 67 -39 90 -70c22 -31 33 -67 33 -109c0 -34 -9 -64 -27 -90s-44 -45 -78 -58c40 -13 70 -34 91 -64s31 -63 31 -100c0 -44 -12 -82 -34 -113
c-24 -31 -55 -55 -94 -72s-84 -25 -134 -25z" />
    <glyph glyph-name="four" unicode="4" 
d="M344 0v149h-326v120l323 427h155v-419h97v-128h-97v-149h-152zM175 277h169v222z" />
    <glyph glyph-name="five" unicode="5" 
d="M318 -15c-71 0 -131 16 -179 48s-80 77 -95 136h159c9 -15 22 -26 40 -34s38 -12 61 -12c31 0 57 9 78 27s31 43 31 74s-10 56 -31 74c-20 17 -46 26 -78 26c-21 0 -42 -4 -61 -13s-35 -20 -46 -34h-141l40 419h430v-137h-304l-14 -159c17 18 38 32 62 42s51 15 80 15
c43 0 81 -10 114 -29c34 -20 61 -47 80 -82c20 -34 30 -73 30 -118c0 -51 -12 -95 -35 -132c-23 -36 -54 -64 -93 -82c-39 -20 -81 -29 -128 -29z" />
    <glyph glyph-name="six" unicode="6" 
d="M326 -15c-63 0 -116 15 -160 45c-43 31 -76 74 -100 128c-22 56 -34 120 -34 194c0 76 12 141 37 194c25 54 59 95 103 123c43 28 93 42 150 42c69 0 124 -16 165 -47c41 -32 70 -77 87 -134h-159c-8 14 -20 25 -35 33s-34 12 -56 12c-40 0 -72 -16 -96 -47
c-24 -32 -37 -82 -40 -150c19 26 42 46 70 60s62 21 101 21c41 0 79 -10 113 -29c35 -20 62 -47 82 -82c21 -34 31 -73 31 -117c0 -52 -12 -96 -37 -133s-57 -65 -96 -84s-81 -29 -126 -29zM319 121c31 0 58 10 79 29c21 20 32 45 32 76s-11 56 -32 76c-21 21 -48 31 -79 31
s-57 -10 -79 -31c-22 -20 -33 -45 -33 -76s11 -56 33 -76c22 -19 48 -29 79 -29z" />
    <glyph glyph-name="seven" unicode="7" 
d="M561 696v-128l-252 -568h-168l256 558h-346v138h510z" />
    <glyph glyph-name="eight" unicode="8" 
d="M306 -15c-53 0 -100 8 -142 24c-41 16 -74 39 -98 71c-23 30 -35 68 -35 112c0 38 12 72 35 104c24 30 56 52 97 65c-36 13 -63 34 -83 61c-18 28 -28 59 -28 92c0 39 11 73 32 102s51 52 89 70c38 16 82 25 133 25s95 -9 133 -25c38 -18 68 -41 89 -70s32 -63 32 -102
c0 -33 -10 -64 -28 -92c-20 -27 -47 -48 -83 -61c41 -13 73 -35 97 -65c23 -32 35 -66 35 -104c0 -44 -12 -82 -35 -112c-24 -32 -57 -55 -98 -71s-89 -24 -142 -24zM306 416c29 0 54 8 74 22c20 16 30 36 30 63c0 25 -10 46 -30 61s-45 23 -74 23s-54 -8 -74 -23
s-30 -36 -30 -61c0 -27 10 -47 30 -63c21 -14 45 -22 74 -22zM306 115c33 0 60 8 83 23c23 16 34 38 34 67c0 27 -11 49 -34 65c-23 17 -50 25 -83 25s-60 -8 -83 -25c-23 -16 -34 -38 -34 -65c0 -29 11 -51 34 -67c23 -15 50 -23 83 -23z" />
    <glyph glyph-name="nine" unicode="9" 
d="M286 711c63 0 117 -15 160 -45c44 -29 77 -71 100 -125s34 -118 34 -192c0 -118 -24 -208 -74 -271c-48 -62 -118 -93 -207 -93c-67 0 -124 16 -171 47c-46 32 -77 77 -92 134h160c7 -15 19 -26 36 -34c16 -7 35 -11 58 -11c40 0 72 15 95 47c23 30 36 81 39 150
c-18 -27 -41 -47 -69 -60c-28 -14 -62 -21 -102 -21c-42 0 -80 10 -114 29c-34 20 -61 47 -81 82c-21 34 -31 73 -31 116c0 51 12 94 37 131c24 37 56 65 96 85c39 21 81 31 126 31zM294 575c-31 0 -58 -10 -80 -29c-21 -20 -32 -46 -32 -77s11 -56 32 -76
c22 -20 49 -30 80 -30s57 10 78 30s32 45 32 76s-11 57 -32 77c-21 19 -47 29 -78 29z" />
    <glyph glyph-name="colon" unicode=":" horiz-adv-x="290" 
d="M145 -15c-27 0 -49 9 -68 28s-28 41 -28 68s9 49 28 68s41 28 68 28s49 -9 68 -28s28 -41 28 -68s-9 -49 -28 -68s-41 -28 -68 -28zM145 351c-27 0 -49 9 -68 28s-28 41 -28 68s9 49 28 68s41 28 68 28s49 -9 68 -28s28 -41 28 -68s-9 -49 -28 -68s-41 -28 -68 -28z" />
    <glyph glyph-name="semicolon" unicode=";" horiz-adv-x="290" 
d="M19 -176c24 37 44 71 59 100c16 29 27 55 33 76c-19 5 -34 14 -45 29c-12 15 -18 32 -18 51c0 23 8 44 26 62c16 19 39 28 67 28c29 0 53 -9 71 -28c19 -18 28 -44 28 -77s-8 -69 -24 -108s-40 -83 -73 -133h-124zM145 351c-27 0 -49 9 -68 28s-28 41 -28 68s9 49 28 68
s41 28 68 28s49 -9 68 -28s28 -41 28 -68s-9 -49 -28 -68s-41 -28 -68 -28z" />
    <glyph glyph-name="less" unicode="&#x3c;" 
d="M540 63l-482 208v126l482 208v-133l-330 -138l330 -138v-133z" />
    <glyph glyph-name="equal" unicode="=" 
d="M67 389v126h478v-126h-478zM67 153v126h478v-126h-478z" />
    <glyph glyph-name="greater" unicode="&#x3e;" 
d="M72 63v133l330 138l-330 138v133l482 -208v-126z" />
    <glyph glyph-name="question" unicode="?" horiz-adv-x="591" 
d="M202 231v21c0 37 7 69 20 94c14 26 41 50 81 73c34 20 56 36 67 49c10 12 15 25 15 40c0 17 -8 32 -25 44c-17 13 -39 19 -67 19c-29 0 -53 -6 -71 -19s-29 -29 -34 -48h-152c5 39 19 75 42 106s53 56 91 74c38 19 83 28 134 28c47 0 89 -8 126 -26c37 -16 65 -40 86 -70
c21 -31 31 -66 31 -107c0 -37 -10 -69 -30 -96s-50 -52 -89 -75c-31 -19 -52 -35 -61 -50c-9 -14 -14 -29 -14 -44v-13h-150zM284 -15c-26 0 -48 9 -67 28s-28 41 -28 68s9 49 28 68s41 28 67 28c27 0 49 -9 68 -28s28 -41 28 -68s-9 -49 -28 -68s-41 -28 -68 -28z" />
    <glyph glyph-name="at" unicode="@" horiz-adv-x="1110" 
d="M504 -233c-64 0 -123 10 -177 31c-54 20 -101 49 -141 86c-41 38 -72 83 -94 136c-23 52 -34 110 -34 174c0 73 13 142 38 206c25 63 62 119 110 168c47 48 105 86 172 113c68 27 144 41 228 41c64 0 123 -9 178 -28c54 -18 101 -44 142 -79s72 -77 94 -125
c23 -50 34 -105 34 -166c0 -70 -12 -130 -37 -179s-57 -87 -97 -113c-41 -27 -84 -40 -131 -40c-34 0 -62 7 -85 21c-22 14 -38 33 -47 56c-21 -27 -45 -47 -73 -59c-26 -13 -54 -19 -82 -19c-61 0 -108 19 -144 58c-34 39 -52 90 -52 155c0 52 10 99 31 142s49 77 84 102
s75 38 118 38c30 0 56 -6 79 -18c22 -13 39 -30 52 -51l8 55h130l-42 -300c-1 -3 -1 -6 -1 -10v-14c0 -9 3 -18 9 -24c7 -8 15 -11 25 -11c18 0 36 8 53 23s32 38 44 70c11 30 17 70 17 118c0 59 -13 110 -41 151c-26 41 -64 73 -112 95c-49 21 -105 32 -170 32
c-83 0 -154 -18 -213 -54s-103 -85 -134 -146c-31 -62 -46 -132 -46 -210c0 -63 13 -117 40 -163s64 -81 113 -106s106 -37 171 -37c42 0 80 4 114 11s71 19 110 35v-121c-35 -15 -72 -26 -111 -33c-40 -7 -83 -11 -130 -11zM527 115c37 0 65 14 86 43s31 64 31 107
c0 31 -7 55 -22 72c-14 17 -34 26 -59 26c-37 0 -65 -14 -87 -43c-20 -28 -31 -64 -31 -107c0 -31 7 -55 23 -72c14 -17 34 -26 59 -26z" />
    <glyph glyph-name="A" unicode="A" horiz-adv-x="720" 
d="M536 0l-48 139h-264l-48 -139h-164l263 696h170l263 -696h-172zM272 278h167l-83 241z" />
    <glyph glyph-name="B" unicode="B" horiz-adv-x="688" 
d="M72 0v696h312c48 0 90 -7 126 -22s64 -36 84 -64c21 -28 31 -62 31 -103c0 -33 -8 -62 -25 -87c-17 -24 -41 -43 -74 -56c41 -13 72 -34 93 -63s31 -62 31 -100c0 -41 -11 -77 -32 -107c-22 -30 -52 -53 -90 -70c-38 -16 -82 -24 -133 -24h-323zM366 563h-134v-141h134
c33 0 58 6 75 18c17 11 26 29 26 53c0 47 -34 70 -101 70zM383 291h-151v-158h151c71 0 106 26 106 79s-35 79 -106 79z" />
    <glyph glyph-name="C" unicode="C" horiz-adv-x="723" 
d="M37 348c0 71 14 134 43 189s69 97 120 129c51 30 110 46 177 46c62 0 115 -11 158 -34c43 -22 78 -52 103 -90c26 -39 43 -82 52 -130h-168c-7 33 -22 59 -47 80c-25 20 -57 30 -98 30c-53 0 -95 -20 -127 -60c-32 -39 -48 -93 -48 -160s16 -120 48 -160s74 -60 127 -60
c41 0 74 10 99 29s41 45 48 76h166c-8 -47 -25 -90 -51 -127c-26 -38 -61 -68 -104 -90c-43 -21 -96 -32 -158 -32c-67 0 -126 16 -177 46c-51 32 -91 74 -120 130c-29 54 -43 117 -43 188z" />
    <glyph glyph-name="D" unicode="D" horiz-adv-x="734" 
d="M72 0v696h271c72 0 135 -14 187 -43c54 -29 94 -69 124 -121c28 -52 43 -113 43 -184s-15 -132 -43 -184c-30 -52 -70 -92 -124 -121c-52 -29 -115 -43 -187 -43h-271zM235 141h98c61 0 109 18 145 54s54 87 54 153s-18 117 -54 153s-84 54 -145 54h-98v-414z" />
    <glyph glyph-name="E" unicode="E" horiz-adv-x="643" 
d="M72 0v696h514v-140h-352v-134h339v-140h-339v-142h357v-140h-519z" />
    <glyph glyph-name="F" unicode="F" horiz-adv-x="623" 
d="M72 0v696h504v-140h-341v-149h329v-139h-329v-268h-163z" />
    <glyph glyph-name="G" unicode="G" horiz-adv-x="752" 
d="M389 -16c-71 0 -132 16 -185 47s-94 75 -123 129c-29 56 -44 118 -44 188c0 71 15 133 44 188s70 98 123 129s114 47 184 47c81 0 149 -20 204 -58c55 -40 92 -94 109 -165h-166c-10 23 -27 42 -51 57c-25 15 -57 22 -96 22c-57 0 -102 -20 -136 -59
c-33 -39 -50 -93 -50 -161c0 -67 17 -120 51 -160c34 -41 81 -61 141 -61c32 0 60 6 84 17c23 12 42 28 55 48c13 19 20 41 20 64v8h-165v134h325v-103c0 -58 -13 -111 -38 -157c-25 -48 -62 -85 -111 -112c-48 -28 -106 -42 -175 -42z" />
    <glyph glyph-name="H" unicode="H" horiz-adv-x="769" 
d="M72 0v696h163v-261h299v261h163v-696h-163v294h-299v-294h-163z" />
    <glyph glyph-name="I" unicode="I" horiz-adv-x="307" 
d="M235 0h-163v696h163v-696z" />
    <glyph glyph-name="J" unicode="J" horiz-adv-x="619" 
d="M394 232v464h162v-470c0 -74 -23 -133 -69 -176c-46 -44 -111 -66 -194 -66c-53 0 -100 10 -139 30s-70 48 -92 83c-23 35 -35 76 -38 123h158c5 -29 16 -52 35 -68s44 -24 76 -24c30 0 54 9 73 28c19 18 28 43 28 76z" />
    <glyph glyph-name="K" unicode="K" horiz-adv-x="698" 
d="M72 0v696h163v-270l249 270h192l-309 -332l325 -364h-206l-251 284v-284h-163z" />
    <glyph glyph-name="L" unicode="L" horiz-adv-x="609" 
d="M574 141v-141h-502v696h163v-555h339z" />
    <glyph glyph-name="M" unicode="M" horiz-adv-x="899" 
d="M227 0h-155v696h183l198 -326l192 326h182v-696h-155v473l-223 -370l-222 368v-471z" />
    <glyph glyph-name="N" unicode="N" horiz-adv-x="768" 
d="M72 0v696h157l311 -448v448h156v-696h-156l-312 449v-449h-156z" />
    <glyph glyph-name="O" unicode="O" horiz-adv-x="790" 
d="M394 -16c-52 0 -100 9 -144 27c-43 18 -81 43 -112 76c-32 33 -57 71 -74 115c-18 45 -27 93 -27 146s9 101 27 146c17 44 42 82 74 115c31 33 69 58 112 76c44 18 92 27 144 27c53 0 101 -9 144 -27c44 -18 82 -43 114 -76s57 -71 74 -115c18 -45 27 -93 27 -146
s-9 -101 -27 -146c-17 -44 -42 -82 -74 -115s-70 -58 -114 -76c-43 -18 -91 -27 -144 -27zM394 128c38 0 72 9 101 28c29 18 52 44 69 77c16 33 24 72 24 115c0 44 -8 82 -24 116c-17 32 -40 58 -69 76c-29 19 -63 28 -101 28c-37 0 -70 -9 -100 -28
c-28 -18 -51 -44 -68 -76c-16 -34 -24 -72 -24 -116c0 -43 8 -82 24 -115c17 -33 40 -59 68 -77c30 -19 63 -28 100 -28z" />
    <glyph glyph-name="P" unicode="P" horiz-adv-x="666" 
d="M72 0v696h288c57 0 107 -10 148 -30s73 -48 95 -84s33 -78 33 -126s-11 -90 -33 -126c-22 -37 -54 -65 -95 -85s-91 -30 -148 -30h-125v-215h-163zM235 353h101c47 0 82 9 103 27c21 17 32 43 32 76s-11 58 -32 76c-21 17 -56 26 -103 26h-101v-205z" />
    <glyph glyph-name="Q" unicode="Q" horiz-adv-x="790" 
d="M394 -16c-52 0 -100 9 -144 27c-43 18 -81 43 -112 76c-32 33 -57 71 -74 115c-18 45 -27 93 -27 146c0 52 9 100 27 144c17 45 42 84 74 116c31 34 69 59 112 77c44 18 92 27 144 27s100 -9 144 -27s82 -43 114 -77c32 -32 57 -71 74 -116c18 -44 27 -92 27 -144
c0 -55 -10 -106 -31 -152c-20 -47 -48 -86 -84 -119l106 -138h-155l-55 72c-44 -18 -91 -27 -140 -27zM394 126c16 0 31 2 46 5l-108 141h154l58 -75c29 39 44 89 44 151c0 44 -8 82 -24 116c-17 32 -40 58 -69 76c-29 19 -63 28 -101 28c-37 0 -70 -9 -100 -28
c-28 -18 -51 -44 -68 -76c-16 -34 -24 -72 -24 -116s8 -83 24 -116c17 -33 40 -59 68 -78c30 -19 63 -28 100 -28z" />
    <glyph glyph-name="R" unicode="R" horiz-adv-x="691" 
d="M72 0v696h297c56 0 104 -10 145 -29s72 -46 94 -81s33 -76 33 -123c0 -49 -12 -91 -35 -126c-24 -35 -56 -62 -97 -81l170 -256h-185l-146 228h-113v-228h-163zM235 366h111c45 0 78 8 99 25s31 41 31 74c0 32 -10 55 -31 71c-21 14 -54 22 -99 22h-111v-192z" />
    <glyph glyph-name="S" unicode="S" horiz-adv-x="641" 
d="M326 -16c-85 0 -154 20 -204 58c-52 40 -85 93 -100 162h161c7 -24 23 -44 49 -59c24 -15 55 -23 92 -23c35 0 63 6 84 19s32 30 32 53c0 14 -3 26 -10 36c-6 10 -18 19 -36 26c-19 8 -46 15 -83 21l-74 13c-64 11 -112 33 -145 64c-32 31 -48 76 -48 135
c0 46 12 86 36 119s57 59 98 77s87 27 138 27c77 0 140 -18 190 -54s80 -88 91 -155h-161c-6 23 -19 40 -38 53c-20 12 -47 18 -80 18c-35 0 -62 -6 -82 -19c-19 -13 -29 -30 -29 -51c0 -19 8 -35 24 -46s48 -21 96 -30l73 -12c136 -23 204 -92 204 -205
c0 -49 -12 -90 -36 -124c-23 -34 -56 -60 -98 -77c-41 -17 -89 -26 -144 -26z" />
    <glyph glyph-name="T" unicode="T" horiz-adv-x="677" 
d="M420 0h-163v555h-221v141h605v-141h-221v-555z" />
    <glyph glyph-name="U" unicode="U" horiz-adv-x="746" 
d="M372 -16c-67 0 -123 13 -169 39s-81 63 -105 111c-23 47 -35 103 -35 168v394h162v-374c0 -59 11 -106 34 -142c23 -34 60 -52 113 -52c54 0 92 18 114 52c23 36 34 83 34 142v374h163v-394c0 -65 -12 -121 -35 -168c-24 -48 -59 -85 -105 -111s-103 -39 -171 -39z" />
    <glyph glyph-name="V" unicode="V" horiz-adv-x="716" 
d="M704 696l-261 -696h-171l-260 696h176l174 -504l173 504h169z" />
    <glyph glyph-name="W" unicode="W" horiz-adv-x="1002" 
d="M222 0l-201 696h169l118 -447l119 445h147l127 -449l114 451h167l-202 -696h-149l-130 464l-130 -464h-149z" />
    <glyph glyph-name="X" unicode="X" horiz-adv-x="737" 
d="M15 0l253 363l-227 333h194l137 -210l132 210h192l-229 -335l255 -361h-195l-165 240l-156 -240h-191z" />
    <glyph glyph-name="Y" unicode="Y" horiz-adv-x="686" 
d="M262 0v255l-252 441h183l154 -289l154 289h176l-252 -441v-255h-163z" />
    <glyph glyph-name="Z" unicode="Z" horiz-adv-x="636" 
d="M43 696h546v-136l-345 -419h351v-141h-552v136l345 419h-345v141z" />
    <glyph glyph-name="bracketleft" unicode="[" horiz-adv-x="387" 
d="M76 -160v895h274v-128h-124v-639h124v-128h-274z" />
    <glyph glyph-name="backslash" unicode="\" horiz-adv-x="447" 
d="M440 -160h-150l-283 895h150z" />
    <glyph glyph-name="bracketright" unicode="]" horiz-adv-x="387" 
d="M311 -160h-274v128h125v639h-125v128h274v-895z" />
    <glyph glyph-name="asciicircum" unicode="^" 
d="M45 393l193 364h136l193 -364h-140l-121 236l-121 -236h-140z" />
    <glyph glyph-name="underscore" unicode="_" horiz-adv-x="500" 
d="M0 -199v129h500v-129h-500z" />
    <glyph glyph-name="grave" unicode="`" horiz-adv-x="592" 
d="M273 590l-94 159h158l76 -159h-140z" />
    <glyph glyph-name="a" unicode="a" horiz-adv-x="549" 
d="M208 -15c-55 0 -98 15 -131 45c-33 31 -49 71 -49 121c0 55 20 97 59 127s94 45 163 45h95v18c0 26 -7 45 -22 57c-15 13 -35 19 -60 19c-22 0 -40 -4 -53 -13c-13 -8 -22 -17 -25 -28h-143c9 45 32 83 71 114s90 46 155 46c69 0 124 -17 164 -51c41 -34 61 -88 61 -161
v-324h-138v59c-16 -26 -37 -45 -65 -57c-26 -11 -54 -17 -82 -17zM248 103c15 0 30 3 46 10c14 7 27 17 36 29c10 14 15 30 15 49v30h-88c-27 0 -47 -5 -61 -15c-15 -11 -22 -26 -22 -45s7 -33 21 -43s32 -15 53 -15z" />
    <glyph glyph-name="b" unicode="b" horiz-adv-x="617" 
d="M60 0v725h151v-258c17 22 38 39 63 51c24 12 51 18 82 18c45 0 84 -12 118 -35c35 -23 62 -56 82 -97c19 -41 29 -89 29 -143s-10 -102 -29 -143c-20 -42 -47 -75 -82 -98c-34 -23 -73 -35 -118 -35c-33 0 -62 7 -87 19c-25 14 -47 32 -64 56v-60h-145zM318 118
c33 0 60 13 82 38c20 25 31 60 31 104c0 45 -11 80 -31 105c-22 25 -49 38 -82 38s-61 -13 -82 -39c-21 -25 -32 -60 -32 -104c0 -43 11 -78 32 -104c21 -25 49 -38 82 -38z" />
    <glyph glyph-name="c" unicode="c" horiz-adv-x="555" 
d="M293 -15c-53 0 -99 12 -139 35c-38 24 -69 57 -90 98s-32 89 -32 143c0 53 11 101 32 142s52 74 90 97c40 24 86 36 139 36c45 0 85 -9 117 -26c34 -18 60 -42 80 -72c20 -29 32 -62 36 -98h-154c-3 19 -12 34 -24 46c-14 11 -32 17 -57 17c-31 0 -56 -13 -75 -39
c-20 -25 -30 -60 -30 -103c0 -45 10 -80 30 -105c19 -25 44 -38 75 -38c25 0 44 5 57 16c14 11 23 25 26 44h152c-4 -36 -16 -69 -36 -98s-46 -52 -80 -70c-32 -16 -72 -25 -117 -25z" />
    <glyph glyph-name="d" unicode="d" horiz-adv-x="617" 
d="M261 -15c-45 0 -84 12 -119 35c-34 23 -61 56 -80 98c-20 41 -30 89 -30 143s10 102 30 143c19 41 46 74 80 97c35 23 74 35 119 35c31 0 58 -6 83 -18c24 -12 45 -29 62 -51v258h151v-725h-145v60c-17 -24 -39 -42 -64 -56c-25 -12 -54 -19 -87 -19zM299 118
c33 0 61 13 82 38c21 26 32 61 32 104c0 44 -11 79 -32 104c-21 26 -49 39 -82 39s-60 -13 -81 -38s-32 -60 -32 -105c0 -44 11 -79 32 -104s48 -38 81 -38z" />
    <glyph glyph-name="e" unicode="e" horiz-adv-x="569" 
d="M295 -15c-82 0 -146 25 -193 75c-47 49 -70 117 -70 203c0 52 10 99 32 140c20 41 50 74 89 97c39 24 85 36 139 36c78 0 138 -25 180 -74c42 -50 63 -117 63 -202v-48h-352c11 -72 49 -108 113 -108c21 0 39 3 52 10s23 15 28 24h151c-13 -47 -39 -84 -80 -112
c-41 -27 -91 -41 -152 -41zM291 417c-61 0 -97 -34 -108 -102h206c-1 30 -10 55 -27 73c-16 20 -40 29 -71 29z" />
    <glyph glyph-name="f" unicode="f" horiz-adv-x="369" 
d="M18 521h79v20c0 57 16 102 49 135s77 49 134 49h64v-129h-30c-21 0 -37 -6 -48 -18s-17 -28 -17 -48v-9h95v-130h-95v-391h-152v391h-79v130z" />
    <glyph glyph-name="g" unicode="g" horiz-adv-x="617" 
d="M260 6c-45 0 -84 11 -118 34c-35 23 -62 54 -81 94s-29 86 -29 137s10 97 29 137s46 71 81 94c34 23 73 34 118 34c33 0 63 -7 88 -20s47 -31 64 -54v59h145v-498c0 -78 -23 -138 -69 -180c-45 -42 -107 -63 -185 -63c-67 0 -124 16 -169 46c-46 32 -75 72 -86 122h156
c7 -13 19 -23 36 -30c17 -8 36 -12 59 -12c34 0 60 8 79 25s28 43 28 79v63c-17 -21 -38 -37 -63 -49s-52 -18 -83 -18zM298 138c33 0 61 12 82 37c22 25 33 57 33 97c0 39 -11 71 -33 96c-21 25 -49 37 -82 37s-60 -12 -80 -37c-22 -25 -32 -57 -32 -96
c0 -40 10 -72 32 -97c20 -25 47 -37 80 -37z" />
    <glyph glyph-name="h" unicode="h" horiz-adv-x="596" 
d="M60 0v725h152v-256c37 45 86 67 147 67c55 0 99 -20 132 -58c33 -40 49 -91 49 -156v-322h-152v302c0 30 -7 54 -21 72s-36 27 -65 27c-27 0 -48 -9 -65 -27c-17 -17 -25 -41 -25 -70v-304h-152z" />
    <glyph glyph-name="i" unicode="i" horiz-adv-x="273" 
d="M136 572c-25 0 -46 9 -64 26c-17 18 -26 39 -26 64s9 47 26 64c18 17 39 26 64 26s47 -9 64 -26c18 -17 27 -39 27 -64s-9 -46 -27 -64c-17 -17 -39 -26 -64 -26zM60 0v521h152v-521h-152z" />
    <glyph glyph-name="j" unicode="j" horiz-adv-x="273" 
d="M136 572c-25 0 -46 9 -64 26c-17 18 -26 39 -26 64s9 47 26 64c18 17 39 26 64 26s47 -9 64 -26c18 -17 27 -39 27 -64s-9 -46 -27 -64c-17 -17 -39 -26 -64 -26zM-26 -205v130h30c19 0 33 6 42 17c9 12 14 28 14 49v530h152v-548c0 -57 -15 -101 -44 -131
c-29 -32 -71 -47 -125 -47h-69z" />
    <glyph glyph-name="k" unicode="k" horiz-adv-x="579" 
d="M60 0v725h152v-405l173 201h179l-215 -245l226 -276h-188l-175 222v-222h-152z" />
    <glyph glyph-name="l" unicode="l" horiz-adv-x="272" 
d="M60 0v725h152v-725h-152z" />
    <glyph glyph-name="m" unicode="m" horiz-adv-x="865" 
d="M60 0v521h145v-54c16 22 36 39 59 51s49 18 78 18s56 -7 78 -21c24 -14 42 -34 57 -59c19 25 43 45 71 59c27 14 57 21 88 21c53 0 95 -18 126 -56c31 -36 47 -88 47 -153v-327h-152v309c0 29 -6 51 -18 67c-12 17 -30 25 -53 25s-42 -8 -56 -25c-13 -16 -20 -38 -20 -67
v-309h-152v309c0 29 -6 51 -18 67c-13 17 -31 25 -54 25s-41 -8 -54 -25c-13 -16 -20 -38 -20 -67v-309h-152z" />
    <glyph glyph-name="n" unicode="n" horiz-adv-x="596" 
d="M212 304v-304h-152v521h145v-58c38 49 89 73 154 73c55 0 99 -20 132 -58c33 -40 49 -91 49 -156v-322h-152v302c0 30 -7 54 -21 72s-36 27 -65 27c-27 0 -48 -9 -65 -27c-17 -17 -25 -41 -25 -70z" />
    <glyph glyph-name="o" unicode="o" horiz-adv-x="597" 
d="M298 -15c-52 0 -98 12 -138 35s-71 56 -94 98c-23 41 -34 89 -34 143s11 102 34 143s54 74 94 97s86 35 138 35c53 0 99 -12 139 -35s71 -56 94 -97s34 -89 34 -143s-11 -102 -34 -143c-23 -42 -54 -75 -94 -98s-86 -35 -139 -35zM298 118c33 0 60 13 82 38
c20 26 31 61 31 105s-11 79 -31 104c-22 25 -49 38 -82 38s-60 -13 -80 -38c-22 -25 -32 -60 -32 -104s10 -79 32 -105c20 -25 47 -38 80 -38z" />
    <glyph glyph-name="p" unicode="p" horiz-adv-x="617" 
d="M60 -205v726h145v-60c17 24 39 43 64 55c25 14 54 20 87 20c45 0 84 -12 118 -35c35 -23 62 -56 82 -97c19 -42 29 -90 29 -144s-10 -102 -29 -143c-20 -41 -47 -74 -82 -97c-34 -23 -73 -35 -118 -35c-31 0 -58 6 -82 18c-25 12 -46 29 -63 51v-259h-151zM318 118
c33 0 60 13 82 38c20 25 31 60 31 104s-11 79 -31 104c-22 26 -49 39 -82 39s-61 -13 -82 -39c-21 -25 -32 -60 -32 -104s11 -79 32 -104s49 -38 82 -38z" />
    <glyph glyph-name="q" unicode="q" horiz-adv-x="617" 
d="M261 -15c-45 0 -84 12 -119 35c-34 23 -61 56 -80 97c-20 41 -30 89 -30 143s10 102 30 144c19 41 46 74 80 97c35 23 74 35 119 35c33 0 62 -6 87 -20c25 -12 47 -31 64 -55v60h145v-726h-151v259c-17 -22 -38 -39 -62 -51c-25 -12 -52 -18 -83 -18zM299 118
c33 0 61 13 82 38s32 60 32 104s-11 79 -32 104c-21 26 -49 39 -82 39s-60 -13 -81 -39c-21 -25 -32 -60 -32 -104s11 -79 32 -104s48 -38 81 -38z" />
    <glyph glyph-name="r" unicode="r" horiz-adv-x="397" 
d="M212 253v-253h-152v521h145v-84c16 28 36 50 61 65c24 15 52 23 83 23h23v-142h-28c-39 0 -70 -12 -95 -35s-37 -55 -37 -95z" />
    <glyph glyph-name="s" unicode="s" horiz-adv-x="510" 
d="M263 -15c-67 0 -121 15 -163 46c-41 31 -65 71 -70 122h144c3 -13 12 -24 28 -34c15 -10 34 -15 57 -15s40 4 53 13s19 19 19 32s-5 23 -15 31c-11 7 -30 13 -57 17l-73 10c-51 7 -88 24 -112 51s-36 61 -36 103c0 35 10 66 28 93c20 26 45 46 78 60c32 15 68 22 108 22
c45 0 83 -8 114 -23s56 -35 74 -60s29 -51 32 -80h-142c-3 13 -12 24 -25 32s-30 12 -51 12s-37 -5 -50 -13c-12 -10 -18 -21 -18 -34c0 -12 5 -21 16 -28c11 -6 28 -11 53 -14l72 -10c51 -7 90 -25 115 -55s38 -66 38 -107c0 -35 -10 -66 -28 -92c-20 -25 -45 -45 -78 -58
c-33 -14 -70 -21 -111 -21z" />
    <glyph glyph-name="t" unicode="t" horiz-adv-x="378" 
d="M267 -4c-54 0 -96 15 -125 44c-30 29 -45 72 -45 129v222h-80v130h80v152c25 1 51 4 77 8c25 4 50 9 75 16v-176h95v-130h-95v-205c0 -20 5 -35 15 -46c10 -10 24 -15 41 -15h39v-129h-77z" />
    <glyph glyph-name="u" unicode="u" horiz-adv-x="590" 
d="M378 216v305h152v-521h-145v56c-16 -23 -36 -40 -60 -52c-24 -13 -51 -19 -81 -19c-61 0 -107 20 -140 60c-32 40 -48 91 -48 154v322h152v-305c0 -29 7 -52 21 -70c14 -17 35 -26 63 -26c27 0 48 9 64 26c14 18 22 41 22 70z" />
    <glyph glyph-name="v" unicode="v" horiz-adv-x="578" 
d="M368 0h-159l-201 521h173l114 -349l113 349h162z" />
    <glyph glyph-name="w" unicode="w" horiz-adv-x="798" 
d="M177 0l-165 521h154l84 -306l83 305h132l87 -305l84 306h150l-165 -521h-130l-93 327l-91 -327h-130z" />
    <glyph glyph-name="x" unicode="x" horiz-adv-x="578" 
d="M7 0l186 275l-169 246h181l90 -142l86 142h172l-168 -253l186 -268h-181l-108 164l-104 -164h-171z" />
    <glyph glyph-name="y" unicode="y" horiz-adv-x="578" 
d="M127 -205l85 205l-204 521h173l114 -342l113 342h162l-281 -726h-162z" />
    <glyph glyph-name="z" unicode="z" horiz-adv-x="522" 
d="M37 0v124l244 267h-244v130h445v-124l-244 -267h249v-130h-450z" />
    <glyph glyph-name="braceleft" unicode="{" horiz-adv-x="425" 
d="M317 -160c-65 0 -114 14 -147 44c-32 28 -48 77 -48 145v108c0 25 -5 44 -16 57c-10 14 -28 21 -53 21h-19v145h19c25 0 43 7 53 20c11 14 16 33 16 58v108c0 68 16 116 48 146c33 28 82 43 147 43h71v-128h-38c-26 0 -46 -6 -58 -18c-14 -12 -20 -33 -20 -62v-98
c0 -45 -8 -77 -23 -96s-42 -34 -79 -45c37 -11 64 -26 79 -46c15 -19 23 -51 23 -96v-98c0 -29 6 -49 20 -62c12 -12 32 -18 58 -18h38v-128h-71z" />
    <glyph glyph-name="bar" unicode="|" horiz-adv-x="333" 
d="M95 -119v850h144v-850h-144z" />
    <glyph glyph-name="braceright" unicode="}" horiz-adv-x="426" 
d="M108 -160h-71v128h38c27 0 47 6 59 18c14 13 20 33 20 62v98c0 45 8 77 22 96c16 19 42 34 79 45c-37 11 -63 26 -79 45c-14 20 -22 52 -22 97v98c0 29 -6 50 -20 62c-12 12 -32 18 -59 18h-38v128h71c65 0 114 -15 146 -43c33 -30 49 -78 49 -146v-108
c0 -25 5 -44 16 -58c11 -13 29 -20 54 -20h19v-145h-19c-25 0 -43 -7 -54 -21c-11 -13 -16 -32 -16 -57v-108c0 -68 -16 -117 -49 -145c-32 -30 -81 -44 -146 -44z" />
    <glyph glyph-name="asciitilde" unicode="~" 
d="M425 236c-25 0 -50 5 -73 16c-24 11 -51 28 -80 53c-16 13 -29 23 -40 27c-10 6 -20 8 -29 8c-29 0 -43 -17 -43 -51v-45h-131v50c0 55 14 99 43 130c28 31 66 47 115 47c25 0 50 -5 74 -17c24 -10 50 -28 79 -52c16 -13 29 -22 40 -28c10 -5 20 -8 29 -8
c29 0 43 17 43 52v45h131v-50c0 -55 -14 -99 -43 -130c-28 -31 -66 -47 -115 -47z" />
    <glyph glyph-name="uni00A0" unicode="&#xa0;" horiz-adv-x="221" 
 />
    <glyph glyph-name="exclamdown" unicode="&#xa1;" horiz-adv-x="297" 
d="M148 345c-26 0 -48 9 -67 28s-28 41 -28 68s9 49 28 67c19 19 41 28 67 28c27 0 49 -9 68 -28c19 -18 28 -40 28 -67s-9 -49 -28 -68s-41 -28 -68 -28zM67 -175l10 466h143l10 -466h-163z" />
    <glyph glyph-name="cent" unicode="&#xa2;" 
d="M279 -18v89c-46 7 -86 23 -119 47c-33 26 -59 58 -78 98c-18 39 -27 84 -27 133s9 94 27 133c19 39 45 72 78 96c33 26 73 41 119 48v88h76v-87c39 -4 74 -15 103 -33c30 -19 54 -42 72 -70c17 -28 28 -59 32 -92h-142c-8 37 -30 59 -65 68v-303c37 9 59 31 67 68h140
c-4 -34 -15 -65 -32 -93c-18 -28 -42 -51 -72 -69c-29 -18 -64 -29 -103 -33v-88h-76zM203 349c0 -37 7 -68 21 -93c14 -26 32 -44 55 -54v293c-23 -9 -41 -27 -55 -53c-14 -25 -21 -56 -21 -93z" />
    <glyph glyph-name="sterling" unicode="&#xa3;" 
d="M47 0v120c29 28 51 55 67 82c15 26 25 53 28 82h-98v117h69c-8 21 -14 40 -19 57c-4 18 -6 38 -6 61c0 37 10 69 28 98c20 29 46 51 80 69c35 16 75 25 121 25c67 0 121 -17 159 -51c40 -33 66 -78 81 -135h-148c-6 17 -16 29 -29 39c-13 8 -31 13 -53 13
c-27 0 -49 -7 -63 -21c-16 -14 -23 -32 -23 -55c0 -14 2 -29 7 -45c5 -15 12 -34 22 -55h186v-117h-168c-7 -54 -31 -104 -74 -150h352v-134h-519z" />
    <glyph glyph-name="currency" unicode="&#xa4;" 
d="M105 71l-80 81l87 86c-20 35 -30 72 -30 111s10 76 30 111l-87 86l80 81l88 -88c16 9 34 17 53 22s39 8 60 8s41 -3 60 -8s37 -13 53 -22l88 88l80 -81l-87 -86c20 -35 30 -72 30 -111s-10 -76 -30 -111l87 -86l-80 -81l-88 88c-16 -9 -34 -17 -53 -22s-39 -8 -60 -8
s-41 3 -60 8s-37 13 -53 22zM306 244c30 0 54 10 73 32c19 20 28 45 28 73s-9 53 -28 73c-19 22 -43 32 -73 32s-54 -10 -73 -32c-19 -20 -28 -45 -28 -73s9 -53 28 -73c19 -22 43 -32 73 -32z" />
    <glyph glyph-name="yen" unicode="&#xa5;" 
d="M229 0v114h-152v90h152v63h-152v90h107l-177 339h172l131 -292l132 292h162l-175 -339h105v-90h-151v-63h151v-90h-151v-114h-154z" />
    <glyph glyph-name="brokenbar" unicode="&#xa6;" horiz-adv-x="333" 
d="M95 731h144v-350h-144v350zM239 -119h-144v350h144v-350z" />
    <glyph glyph-name="section" unicode="&#xa7;" horiz-adv-x="564" 
d="M286 -81c-63 0 -113 15 -150 47c-38 30 -59 72 -64 123h133c2 -13 10 -24 25 -35c14 -11 32 -16 55 -16c22 0 39 5 51 14c13 10 19 22 19 37s-5 26 -13 34c-10 8 -25 14 -46 19l-99 22c-55 11 -93 30 -115 56c-21 25 -32 56 -32 91c0 31 8 57 23 81c15 22 36 41 62 56
c-35 29 -52 69 -52 119c0 32 9 61 25 87c18 27 41 48 72 63s66 23 105 23c61 0 110 -16 147 -46c36 -32 56 -73 61 -124h-133c-2 13 -10 25 -23 36c-13 10 -31 15 -52 15c-20 0 -36 -5 -47 -14c-12 -9 -18 -22 -18 -37s5 -26 14 -35s25 -15 46 -19l80 -16
c51 -11 90 -30 116 -59c25 -29 38 -62 38 -101c0 -31 -7 -57 -20 -78s-31 -39 -53 -53c33 -29 50 -67 50 -114c0 -33 -9 -63 -25 -90c-18 -27 -41 -48 -72 -63s-67 -23 -108 -23zM345 257c10 5 18 13 25 21c6 10 9 21 9 35c0 17 -5 32 -14 45s-26 21 -50 26l-92 18
c-11 -6 -19 -14 -27 -24c-6 -11 -10 -23 -10 -37c0 -15 5 -28 14 -39s26 -20 51 -25z" />
    <glyph glyph-name="dieresis" unicode="&#xa8;" horiz-adv-x="592" 
d="M411 582c-23 0 -42 8 -57 23s-23 34 -23 57s8 42 23 57s34 23 57 23s42 -8 57 -23c16 -15 24 -34 24 -57s-8 -42 -24 -57c-15 -15 -34 -23 -57 -23zM181 582c-23 0 -42 8 -57 23c-16 15 -24 34 -24 57s8 42 24 57c15 15 34 23 57 23s42 -8 57 -23s23 -34 23 -57
s-8 -42 -23 -57s-34 -23 -57 -23z" />
    <glyph glyph-name="copyright" unicode="&#xa9;" horiz-adv-x="803" 
d="M402 -16c-52 0 -100 9 -143 26c-43 18 -81 43 -113 76c-33 33 -58 71 -76 116c-17 44 -26 93 -26 146s9 102 26 146c18 45 43 83 76 116c32 33 70 58 113 76c43 17 91 26 143 26c51 0 99 -9 142 -26c44 -18 82 -43 114 -76s57 -71 74 -116c18 -44 27 -93 27 -146
s-9 -102 -27 -146c-17 -45 -42 -83 -74 -116s-70 -58 -114 -76c-43 -17 -91 -26 -142 -26zM402 56c54 0 102 12 144 38c43 24 76 59 101 103s37 94 37 151s-12 108 -37 152c-25 43 -58 78 -101 102c-42 26 -90 38 -144 38c-53 0 -102 -12 -144 -38
c-44 -24 -77 -59 -102 -102c-25 -44 -37 -95 -37 -152s12 -107 37 -151s58 -79 102 -103c42 -26 91 -38 144 -38zM411 136c-41 0 -77 9 -107 28c-31 18 -54 43 -70 75c-17 32 -25 69 -25 110s8 78 25 109c16 32 39 57 70 76c30 18 66 27 107 27c34 0 64 -7 89 -20
c26 -13 47 -31 62 -54s25 -48 28 -76h-120c-3 14 -9 25 -19 34s-24 13 -42 13c-24 0 -43 -10 -58 -30c-15 -19 -22 -46 -22 -79c0 -34 7 -61 22 -81c15 -19 34 -29 58 -29c18 0 32 5 43 13c10 10 16 21 19 35h119c-5 -42 -23 -78 -54 -107c-32 -29 -74 -44 -125 -44z" />
    <glyph glyph-name="ordfeminine" unicode="&#xaa;" horiz-adv-x="455" 
d="M177 299c-43 0 -78 12 -105 37c-26 25 -39 57 -39 96c0 43 16 77 47 102c32 24 76 36 131 36h74v12c0 42 -22 63 -65 63c-19 0 -34 -3 -44 -9c-12 -7 -19 -15 -23 -24h-109c7 37 26 67 58 92c30 24 71 36 122 36c54 0 97 -14 129 -41s48 -70 48 -127v-260h-106v49
c-13 -21 -30 -37 -52 -47s-44 -15 -66 -15zM210 393c17 0 32 5 48 14c14 9 24 24 27 45v37h-64c-47 0 -70 -16 -70 -49c0 -15 5 -26 16 -34c11 -9 25 -13 43 -13z" />
    <glyph glyph-name="guillemotleft" unicode="&#xab;" horiz-adv-x="592" 
d="M167 46l-129 207l129 207h141l-125 -207l125 -207h-141zM410 46l-129 207l129 207h141l-125 -207l125 -207h-141z" />
    <glyph glyph-name="logicalnot" unicode="&#xac;" 
d="M412 188v155h-348v127h478v-282h-130z" />
    <glyph glyph-name="uni00AD" unicode="&#xad;" horiz-adv-x="484" 
d="M72 225v129h340v-129h-340z" />
    <glyph glyph-name="registered" unicode="&#xae;" horiz-adv-x="524" 
d="M262 246c-43 0 -82 10 -117 30c-35 21 -62 48 -82 84c-20 34 -30 74 -30 119s10 85 30 121c20 34 47 62 82 82s74 30 117 30c44 0 83 -10 118 -30c34 -20 61 -48 81 -82c20 -36 30 -76 30 -121s-10 -85 -30 -119c-20 -36 -47 -63 -81 -84c-35 -20 -74 -30 -118 -30z
M262 304c33 0 62 8 86 22c26 16 45 36 60 62c15 27 22 57 22 91c0 35 -7 65 -22 91c-15 27 -34 48 -60 62c-24 16 -53 23 -86 23c-32 0 -61 -7 -86 -23c-25 -14 -45 -35 -60 -62c-15 -26 -22 -56 -22 -91c0 -34 7 -64 22 -91c15 -26 35 -46 60 -62c25 -14 54 -22 86 -22z
M171 371v232h105c29 0 51 -8 66 -23c14 -15 21 -35 21 -58c0 -15 -3 -28 -10 -39s-16 -21 -27 -28l53 -84h-75l-39 69h-27v-69h-67zM238 497h23c23 0 35 8 35 25c0 16 -12 24 -35 24h-23v-49z" />
    <glyph glyph-name="macron" unicode="&#xaf;" horiz-adv-x="592" 
d="M132 730h328v-113h-328v113z" />
    <glyph glyph-name="degree" unicode="&#xb0;" horiz-adv-x="396" 
d="M198 415c-29 0 -56 7 -80 21c-23 14 -42 33 -56 56c-13 23 -20 49 -20 78s7 56 20 79c14 23 33 42 56 55c24 14 51 21 80 21s56 -7 79 -21c23 -13 42 -32 55 -55c14 -23 21 -50 21 -79s-7 -55 -21 -78c-13 -23 -32 -42 -55 -56s-50 -21 -79 -21zM198 499c19 0 36 7 50 21
c13 13 20 30 20 50s-7 37 -20 50c-14 14 -31 21 -50 21c-20 0 -37 -7 -50 -21c-13 -13 -20 -30 -20 -50s7 -37 20 -50c13 -14 30 -21 50 -21z" />
    <glyph glyph-name="plusminus" unicode="&#xb1;" 
d="M67 0v126h478v-126h-478zM241 176v188h-174v126h174v188h130v-188h175v-126h-175v-188h-130z" />
    <glyph glyph-name="uni00B2" unicode="&#xb2;" horiz-adv-x="400" 
d="M43 400v94l162 128c14 11 23 21 28 28s7 15 7 24s-4 17 -11 24c-7 6 -18 9 -31 9c-14 0 -25 -3 -34 -9c-8 -7 -13 -15 -16 -25h-110c5 39 22 71 51 95c29 25 66 37 111 37s83 -11 112 -35c30 -22 45 -53 45 -92c0 -28 -8 -52 -23 -72c-15 -21 -37 -41 -65 -62l-63 -45
h155v-99h-318z" />
    <glyph glyph-name="uni00B3" unicode="&#xb3;" horiz-adv-x="400" 
d="M205 391c-51 0 -91 11 -120 33c-29 21 -47 52 -52 92h115c6 -20 23 -30 51 -30c15 0 27 3 35 10c10 6 14 14 14 25c0 23 -17 34 -50 34h-47v89h45c31 0 47 11 47 33s-15 33 -45 33c-13 0 -24 -3 -32 -8c-10 -5 -15 -12 -18 -20h-112c9 39 27 70 56 91s66 32 112 32
c28 0 54 -5 76 -14c24 -9 42 -23 56 -40c13 -17 20 -38 20 -62c0 -19 -5 -35 -16 -51c-10 -14 -25 -26 -45 -33c23 -7 41 -19 53 -37c11 -16 17 -35 17 -55c0 -37 -15 -67 -46 -89s-69 -33 -114 -33z" />
    <glyph glyph-name="acute" unicode="&#xb4;" horiz-adv-x="592" 
d="M320 590h-140l76 159h158z" />
    <glyph glyph-name="mu" unicode="&#xb5;" horiz-adv-x="621" 
d="M61 -205v726h152v-304c0 -30 7 -54 22 -71s35 -26 62 -26c25 0 46 8 62 26c16 16 24 40 24 71v304h152v-338c0 -38 17 -57 51 -57h13v-130h-49c-63 0 -105 22 -126 65c-13 -23 -31 -42 -52 -55c-22 -14 -47 -21 -75 -21c-22 0 -41 3 -57 10c-15 7 -28 16 -37 27v-227
h-142z" />
    <glyph glyph-name="paragraph" unicode="&#xb6;" horiz-adv-x="727" 
d="M315 -140v356h-9c-57 0 -107 10 -148 30c-41 21 -73 49 -95 86c-22 36 -33 78 -33 126s11 90 33 126c22 35 54 63 95 82c41 20 91 30 148 30h339v-836h-126v719h-78v-719h-126z" />
    <glyph glyph-name="periodcentered" unicode="&#xb7;" horiz-adv-x="290" 
d="M145 271c-27 0 -49 9 -68 28s-28 41 -28 67c0 27 9 49 28 68s41 28 68 28s49 -9 68 -28s28 -41 28 -68c0 -26 -9 -48 -28 -67s-41 -28 -68 -28z" />
    <glyph glyph-name="cedilla" unicode="&#xb8;" horiz-adv-x="592" 
d="M190 -261v84h59c30 0 45 11 45 32c0 19 -13 29 -40 29h-50l47 155h87l-30 -87c27 -1 51 -11 70 -30s29 -43 29 -71c0 -35 -11 -62 -33 -82c-23 -20 -54 -30 -94 -30h-90z" />
    <glyph glyph-name="uni00B9" unicode="&#xb9;" horiz-adv-x="400" 
d="M169 400v279l-90 -22v101l206 46v-404h-116z" />
    <glyph glyph-name="ordmasculine" unicode="&#xba;" horiz-adv-x="494" 
d="M247 299c-41 0 -77 9 -109 29c-32 18 -57 45 -75 78s-27 71 -27 114s9 80 27 114c18 32 43 58 75 78c32 18 68 28 109 28s78 -10 109 -28c32 -20 57 -46 75 -78c18 -34 27 -71 27 -114s-9 -81 -27 -114s-43 -60 -75 -78c-31 -20 -68 -29 -109 -29zM247 404
c27 0 49 11 66 32s25 49 25 84s-8 63 -25 84s-39 31 -66 31s-49 -10 -65 -31c-18 -21 -26 -49 -26 -84s8 -63 26 -84c16 -21 38 -32 65 -32z" />
    <glyph glyph-name="guillemotright" unicode="&#xbb;" horiz-adv-x="591" 
d="M41 46l125 207l-125 207h141l128 -207l-128 -207h-141zM284 46l125 207l-125 207h141l128 -207l-128 -207h-141z" />
    <glyph glyph-name="onequarter" unicode="&#xbc;" horiz-adv-x="940" 
d="M169 320v279l-90 -22v101l206 46v-404h-116zM185 0l451 696h129l-451 -696h-129zM758 0v76h-191v88l183 233h114v-232h55v-89h-55v-76h-106zM673 165h85v106z" />
    <glyph glyph-name="onehalf" unicode="&#xbd;" horiz-adv-x="940" 
d="M169 320v279l-90 -22v101l206 46v-404h-116zM171 0l451 696h129l-451 -696h-129zM583 0v94l162 128c14 11 23 21 28 28s7 15 7 24s-4 17 -11 24c-7 6 -18 9 -31 9c-14 0 -25 -3 -34 -9c-8 -7 -13 -15 -16 -25h-110c5 39 22 71 51 95c29 25 66 37 111 37s83 -11 112 -35
c30 -22 45 -53 45 -92c0 -28 -8 -52 -23 -72c-15 -21 -37 -41 -65 -62l-63 -45h155v-99h-318z" />
    <glyph glyph-name="threequarters" unicode="&#xbe;" horiz-adv-x="940" 
d="M205 311c-51 0 -91 11 -120 33c-29 21 -47 52 -52 92h115c6 -20 23 -30 51 -30c15 0 27 3 35 10c10 6 14 14 14 25c0 23 -17 34 -50 34h-47v89h45c31 0 47 11 47 33s-15 33 -45 33c-13 0 -24 -3 -32 -8c-10 -5 -15 -12 -18 -20h-112c9 39 27 70 56 91s66 32 112 32
c28 0 54 -5 76 -14c24 -9 42 -23 56 -40c13 -17 20 -38 20 -62c0 -19 -5 -35 -16 -51c-10 -14 -25 -26 -45 -33c23 -7 41 -19 53 -37c11 -16 17 -35 17 -55c0 -37 -15 -67 -46 -89s-69 -33 -114 -33zM203 0l451 696h129l-451 -696h-129zM758 0v76h-191v88l183 233h114v-232
h55v-89h-55v-76h-106zM673 165h85v106z" />
    <glyph glyph-name="questiondown" unicode="&#xbf;" horiz-adv-x="561" 
d="M297 345c-27 0 -49 9 -68 28s-28 41 -28 68s9 49 28 67c19 19 41 28 68 28s49 -9 68 -28c19 -18 28 -40 28 -67s-9 -49 -28 -68s-41 -28 -68 -28zM278 -191c-47 0 -89 9 -126 25c-37 18 -65 41 -86 72c-21 30 -31 65 -31 106c0 37 10 69 31 96c20 27 49 52 88 75
c32 19 52 36 62 51c8 14 13 28 13 43v14h150v-22c0 -37 -7 -68 -20 -93c-13 -26 -40 -51 -80 -74c-23 -13 -40 -25 -52 -34s-20 -18 -24 -26c-4 -9 -6 -18 -6 -28c0 -17 8 -32 25 -44c16 -13 38 -19 66 -19c30 0 54 6 72 19c18 12 29 28 34 48h151c-5 -40 -19 -76 -41 -107
c-23 -31 -53 -56 -91 -75c-38 -18 -83 -27 -135 -27z" />
    <glyph glyph-name="Agrave" unicode="&#xc0;" horiz-adv-x="720" 
d="M536 0l-48 139h-264l-48 -139h-164l263 696h170l263 -696h-172zM272 278h167l-83 241zM294 765l-106 152h164l88 -152h-146z" />
    <glyph glyph-name="Aacute" unicode="&#xc1;" horiz-adv-x="720" 
d="M536 0l-48 139h-264l-48 -139h-164l263 696h170l263 -696h-172zM272 278h167l-83 241zM426 765h-146l88 152h164z" />
    <glyph glyph-name="Acircumflex" unicode="&#xc2;" horiz-adv-x="720" 
d="M536 0l-48 139h-264l-48 -139h-164l263 696h170l263 -696h-172zM272 278h167l-83 241zM149 765l124 152h174l124 -152h-146l-65 67l-65 -67h-146z" />
    <glyph glyph-name="Atilde" unicode="&#xc3;" horiz-adv-x="720" 
d="M536 0l-48 139h-264l-48 -139h-164l263 696h170l263 -696h-172zM272 278h167l-83 241zM440 758c-14 0 -28 2 -42 6c-15 3 -31 10 -48 21c-11 7 -20 12 -28 15c-6 2 -13 3 -20 3c-20 0 -30 -10 -30 -31v-13h-109v40c0 36 11 64 33 85c22 20 50 30 84 30c14 0 28 -2 43 -5
s31 -11 48 -22c11 -7 21 -11 27 -14c8 -3 14 -4 20 -4c20 0 30 10 30 31v13h109v-40c0 -35 -11 -63 -33 -84c-21 -21 -49 -31 -84 -31z" />
    <glyph glyph-name="Adieresis" unicode="&#xc4;" horiz-adv-x="720" 
d="M536 0l-48 139h-264l-48 -139h-164l263 696h170l263 -696h-172zM272 278h167l-83 241zM479 759c-23 0 -42 8 -57 23s-23 34 -23 57c0 22 8 41 23 57c15 15 34 23 57 23s42 -8 57 -23c16 -16 24 -35 24 -57c0 -23 -8 -42 -24 -57c-15 -15 -34 -23 -57 -23zM241 759
c-23 0 -42 8 -57 23c-16 15 -24 34 -24 57c0 22 8 41 24 57c15 15 34 23 57 23s42 -8 57 -23c15 -16 23 -35 23 -57c0 -23 -8 -42 -23 -57s-34 -23 -57 -23z" />
    <glyph glyph-name="Aring" unicode="&#xc5;" horiz-adv-x="720" 
d="M536 0l-48 139h-264l-48 -139h-164l263 696h170l263 -696h-172zM272 278h167l-83 241zM360 617c-24 0 -46 6 -66 17c-20 12 -36 28 -48 48s-18 42 -18 66c0 25 6 47 18 66c12 20 28 36 48 48c20 11 42 17 66 17c25 0 47 -6 66 -17c20 -12 36 -28 48 -48
c12 -19 18 -41 18 -66c0 -24 -6 -46 -18 -66s-28 -36 -48 -48c-19 -11 -41 -17 -66 -17zM360 696c15 0 27 5 37 15s15 22 15 37s-5 28 -15 38c-10 9 -22 14 -37 14s-27 -5 -37 -14c-10 -10 -15 -23 -15 -38s5 -27 15 -37s22 -15 37 -15z" />
    <glyph glyph-name="AE" unicode="&#xc6;" horiz-adv-x="1085" 
d="M181 0h-179l443 696h583v-140h-352v-134h340v-140h-340v-142h357v-140h-519v139h-250zM346 278h168v282z" />
    <glyph glyph-name="Ccedilla" unicode="&#xc7;" horiz-adv-x="723" 
d="M37 348c0 71 14 134 43 189s69 97 120 129c51 30 110 46 177 46c62 0 115 -11 158 -34c43 -22 78 -52 103 -90c26 -39 43 -82 52 -130h-168c-7 33 -22 59 -47 80c-25 20 -57 30 -98 30c-53 0 -95 -20 -127 -60c-32 -39 -48 -93 -48 -160s16 -120 48 -160s74 -60 127 -60
c41 0 74 10 99 29s41 45 48 76h166c-8 -47 -25 -90 -51 -127c-26 -38 -61 -68 -104 -90c-43 -21 -96 -32 -158 -32c-67 0 -126 16 -177 46c-51 32 -91 74 -120 130c-29 54 -43 117 -43 188zM283 -261v84h59c29 0 44 11 44 32c0 19 -13 29 -40 29h-49l46 153h87l-29 -85
c27 -1 51 -11 69 -30c20 -19 29 -43 29 -71c0 -35 -11 -62 -33 -82c-23 -20 -54 -30 -94 -30h-89z" />
    <glyph glyph-name="Egrave" unicode="&#xc8;" horiz-adv-x="643" 
d="M72 0v696h514v-140h-352v-134h339v-140h-339v-142h357v-140h-519zM263 765l-106 152h164l88 -152h-146z" />
    <glyph glyph-name="Eacute" unicode="&#xc9;" horiz-adv-x="643" 
d="M72 0v696h514v-140h-352v-134h339v-140h-339v-142h357v-140h-519zM395 765h-146l88 152h164z" />
    <glyph glyph-name="Ecircumflex" unicode="&#xca;" horiz-adv-x="643" 
d="M72 0v696h514v-140h-352v-134h339v-140h-339v-142h357v-140h-519zM118 765l124 152h174l124 -152h-146l-65 67l-65 -67h-146z" />
    <glyph glyph-name="Edieresis" unicode="&#xcb;" horiz-adv-x="643" 
d="M72 0v696h514v-140h-352v-134h339v-140h-339v-142h357v-140h-519zM448 759c-23 0 -42 8 -57 23s-23 34 -23 57c0 22 8 41 23 57c15 15 34 23 57 23s42 -8 58 -23c15 -16 23 -35 23 -57c0 -23 -8 -42 -23 -57c-16 -15 -35 -23 -58 -23zM210 759c-23 0 -42 8 -58 23
c-15 15 -23 34 -23 57c0 22 8 41 23 57c16 15 35 23 58 23s42 -8 57 -23c15 -16 23 -35 23 -57c0 -23 -8 -42 -23 -57s-34 -23 -57 -23z" />
    <glyph glyph-name="Igrave" unicode="&#xcc;" horiz-adv-x="307" 
d="M235 0h-163v696h163v-696zM87 765l-106 152h164l88 -152h-146z" />
    <glyph glyph-name="Iacute" unicode="&#xcd;" horiz-adv-x="307" 
d="M235 0h-163v696h163v-696zM219 765h-146l88 152h164z" />
    <glyph glyph-name="Icircumflex" unicode="&#xce;" horiz-adv-x="307" 
d="M235 0h-163v696h163v-696zM-58 765l124 152h174l124 -152h-146l-65 67l-65 -67h-146z" />
    <glyph glyph-name="Idieresis" unicode="&#xcf;" horiz-adv-x="307" 
d="M235 0h-163v696h163v-696zM272 759c-23 0 -42 8 -57 23s-23 34 -23 57c0 22 8 41 23 57c15 15 34 23 57 23s42 -8 58 -23c15 -16 23 -35 23 -57c0 -23 -8 -42 -23 -57c-16 -15 -35 -23 -58 -23zM34 759c-23 0 -42 8 -58 23c-15 15 -23 34 -23 57c0 22 8 41 23 57
c16 15 35 23 58 23s42 -8 57 -23c15 -16 23 -35 23 -57c0 -23 -8 -42 -23 -57s-34 -23 -57 -23z" />
    <glyph glyph-name="Eth" unicode="&#xd0;" horiz-adv-x="766" 
d="M104 0v305h-82v117h82v274h270c72 0 135 -14 188 -43s94 -69 124 -121c28 -52 43 -113 43 -184s-15 -132 -43 -184c-30 -52 -71 -92 -124 -121s-116 -43 -188 -43h-270zM266 141h98c61 0 110 18 146 54s54 87 54 153s-18 117 -54 153s-85 54 -146 54h-98v-133h138v-117
h-138v-164z" />
    <glyph glyph-name="Ntilde" unicode="&#xd1;" horiz-adv-x="768" 
d="M72 0v696h157l311 -448v448h156v-696h-156l-312 449v-449h-156zM464 758c-14 0 -28 2 -42 6c-15 3 -31 10 -48 21c-11 7 -20 12 -28 15c-6 2 -13 3 -20 3c-20 0 -30 -10 -30 -31v-13h-109v40c0 36 11 64 33 85c22 20 50 30 84 30c14 0 28 -2 43 -5s31 -11 48 -22
c11 -7 21 -11 27 -14c8 -3 14 -4 20 -4c20 0 30 10 30 31v13h109v-40c0 -35 -11 -63 -33 -84c-21 -21 -49 -31 -84 -31z" />
    <glyph glyph-name="Ograve" unicode="&#xd2;" horiz-adv-x="790" 
d="M394 -16c-52 0 -100 9 -144 27c-43 18 -81 43 -112 76c-32 33 -57 71 -74 115c-18 45 -27 93 -27 146s9 101 27 146c17 44 42 82 74 115c31 33 69 58 112 76c44 18 92 27 144 27c53 0 101 -9 144 -27c44 -18 82 -43 114 -76s57 -71 74 -115c18 -45 27 -93 27 -146
s-9 -101 -27 -146c-17 -44 -42 -82 -74 -115s-70 -58 -114 -76c-43 -18 -91 -27 -144 -27zM394 128c38 0 72 9 101 28c29 18 52 44 69 77c16 33 24 72 24 115c0 44 -8 82 -24 116c-17 32 -40 58 -69 76c-29 19 -63 28 -101 28c-37 0 -70 -9 -100 -28
c-28 -18 -51 -44 -68 -76c-16 -34 -24 -72 -24 -116c0 -43 8 -82 24 -115c17 -33 40 -59 68 -77c30 -19 63 -28 100 -28zM328 765l-106 152h164l88 -152h-146z" />
    <glyph glyph-name="Oacute" unicode="&#xd3;" horiz-adv-x="790" 
d="M394 -16c-52 0 -100 9 -144 27c-43 18 -81 43 -112 76c-32 33 -57 71 -74 115c-18 45 -27 93 -27 146s9 101 27 146c17 44 42 82 74 115c31 33 69 58 112 76c44 18 92 27 144 27c53 0 101 -9 144 -27c44 -18 82 -43 114 -76s57 -71 74 -115c18 -45 27 -93 27 -146
s-9 -101 -27 -146c-17 -44 -42 -82 -74 -115s-70 -58 -114 -76c-43 -18 -91 -27 -144 -27zM394 128c38 0 72 9 101 28c29 18 52 44 69 77c16 33 24 72 24 115c0 44 -8 82 -24 116c-17 32 -40 58 -69 76c-29 19 -63 28 -101 28c-37 0 -70 -9 -100 -28
c-28 -18 -51 -44 -68 -76c-16 -34 -24 -72 -24 -116c0 -43 8 -82 24 -115c17 -33 40 -59 68 -77c30 -19 63 -28 100 -28zM460 765h-146l88 152h164z" />
    <glyph glyph-name="Ocircumflex" unicode="&#xd4;" horiz-adv-x="790" 
d="M394 -16c-52 0 -100 9 -144 27c-43 18 -81 43 -112 76c-32 33 -57 71 -74 115c-18 45 -27 93 -27 146s9 101 27 146c17 44 42 82 74 115c31 33 69 58 112 76c44 18 92 27 144 27c53 0 101 -9 144 -27c44 -18 82 -43 114 -76s57 -71 74 -115c18 -45 27 -93 27 -146
s-9 -101 -27 -146c-17 -44 -42 -82 -74 -115s-70 -58 -114 -76c-43 -18 -91 -27 -144 -27zM394 128c38 0 72 9 101 28c29 18 52 44 69 77c16 33 24 72 24 115c0 44 -8 82 -24 116c-17 32 -40 58 -69 76c-29 19 -63 28 -101 28c-37 0 -70 -9 -100 -28
c-28 -18 -51 -44 -68 -76c-16 -34 -24 -72 -24 -116c0 -43 8 -82 24 -115c17 -33 40 -59 68 -77c30 -19 63 -28 100 -28zM183 765l124 152h174l124 -152h-146l-65 67l-65 -67h-146z" />
    <glyph glyph-name="Otilde" unicode="&#xd5;" horiz-adv-x="790" 
d="M394 -16c-52 0 -100 9 -144 27c-43 18 -81 43 -112 76c-32 33 -57 71 -74 115c-18 45 -27 93 -27 146s9 101 27 146c17 44 42 82 74 115c31 33 69 58 112 76c44 18 92 27 144 27c53 0 101 -9 144 -27c44 -18 82 -43 114 -76s57 -71 74 -115c18 -45 27 -93 27 -146
s-9 -101 -27 -146c-17 -44 -42 -82 -74 -115s-70 -58 -114 -76c-43 -18 -91 -27 -144 -27zM394 128c38 0 72 9 101 28c29 18 52 44 69 77c16 33 24 72 24 115c0 44 -8 82 -24 116c-17 32 -40 58 -69 76c-29 19 -63 28 -101 28c-37 0 -70 -9 -100 -28
c-28 -18 -51 -44 -68 -76c-16 -34 -24 -72 -24 -116c0 -43 8 -82 24 -115c17 -33 40 -59 68 -77c30 -19 63 -28 100 -28zM474 758c-14 0 -28 2 -42 6c-15 3 -31 10 -48 21c-11 7 -20 12 -28 15c-6 2 -13 3 -20 3c-20 0 -30 -10 -30 -31v-13h-109v40c0 36 11 64 33 85
c22 20 50 30 84 30c14 0 28 -2 43 -5s31 -11 48 -22c11 -7 21 -11 27 -14c8 -3 14 -4 20 -4c20 0 30 10 30 31v13h109v-40c0 -35 -11 -63 -33 -84c-21 -21 -49 -31 -84 -31z" />
    <glyph glyph-name="Odieresis" unicode="&#xd6;" horiz-adv-x="790" 
d="M394 -16c-52 0 -100 9 -144 27c-43 18 -81 43 -112 76c-32 33 -57 71 -74 115c-18 45 -27 93 -27 146s9 101 27 146c17 44 42 82 74 115c31 33 69 58 112 76c44 18 92 27 144 27c53 0 101 -9 144 -27c44 -18 82 -43 114 -76s57 -71 74 -115c18 -45 27 -93 27 -146
s-9 -101 -27 -146c-17 -44 -42 -82 -74 -115s-70 -58 -114 -76c-43 -18 -91 -27 -144 -27zM394 128c38 0 72 9 101 28c29 18 52 44 69 77c16 33 24 72 24 115c0 44 -8 82 -24 116c-17 32 -40 58 -69 76c-29 19 -63 28 -101 28c-37 0 -70 -9 -100 -28
c-28 -18 -51 -44 -68 -76c-16 -34 -24 -72 -24 -116c0 -43 8 -82 24 -115c17 -33 40 -59 68 -77c30 -19 63 -28 100 -28zM513 759c-23 0 -42 8 -57 23s-23 34 -23 57c0 22 8 41 23 57c15 15 34 23 57 23s42 -8 57 -23c16 -16 24 -35 24 -57c0 -23 -8 -42 -24 -57
c-15 -15 -34 -23 -57 -23zM275 759c-23 0 -42 8 -57 23c-16 15 -24 34 -24 57c0 22 8 41 24 57c15 15 34 23 57 23s42 -8 57 -23c15 -16 23 -35 23 -57c0 -23 -8 -42 -23 -57s-34 -23 -57 -23z" />
    <glyph glyph-name="multiply" unicode="&#xd7;" 
d="M155 95l-88 86l152 152l-152 152l88 86l151 -151l151 151l88 -86l-152 -152l152 -152l-88 -86l-151 151z" />
    <glyph glyph-name="Oslash" unicode="&#xd8;" horiz-adv-x="790" 
d="M69 -50l81 125c-35 33 -63 72 -83 119s-30 98 -30 154c0 53 9 101 27 146c17 44 42 82 74 115c31 33 69 58 112 76c44 18 92 27 144 27c55 0 106 -10 153 -31l42 65h132l-82 -125c36 -33 64 -72 84 -119s30 -98 30 -154c0 -53 -9 -101 -27 -146c-17 -44 -42 -82 -74 -115
s-70 -58 -114 -76c-43 -18 -91 -27 -144 -27c-54 0 -104 10 -151 30l-42 -64h-132zM194 348c0 -29 4 -55 10 -80c8 -24 18 -45 31 -64l233 357c-23 9 -47 13 -74 13c-39 0 -74 -10 -104 -28c-30 -20 -54 -46 -70 -80c-18 -34 -26 -73 -26 -118zM394 122c40 0 75 10 106 28
c30 20 54 46 70 80c18 34 26 73 26 118c0 29 -4 55 -10 79c-8 24 -18 46 -31 65l-233 -357c22 -9 46 -13 72 -13z" />
    <glyph glyph-name="Ugrave" unicode="&#xd9;" horiz-adv-x="746" 
d="M372 -16c-67 0 -123 13 -169 39s-81 63 -105 111c-23 47 -35 103 -35 168v394h162v-374c0 -59 11 -106 34 -142c23 -34 60 -52 113 -52c54 0 92 18 114 52c23 36 34 83 34 142v374h163v-394c0 -65 -12 -121 -35 -168c-24 -48 -59 -85 -105 -111s-103 -39 -171 -39z
M307 765l-106 152h164l88 -152h-146z" />
    <glyph glyph-name="Uacute" unicode="&#xda;" horiz-adv-x="746" 
d="M372 -16c-67 0 -123 13 -169 39s-81 63 -105 111c-23 47 -35 103 -35 168v394h162v-374c0 -59 11 -106 34 -142c23 -34 60 -52 113 -52c54 0 92 18 114 52c23 36 34 83 34 142v374h163v-394c0 -65 -12 -121 -35 -168c-24 -48 -59 -85 -105 -111s-103 -39 -171 -39z
M439 765h-146l88 152h164z" />
    <glyph glyph-name="Ucircumflex" unicode="&#xdb;" horiz-adv-x="746" 
d="M372 -16c-67 0 -123 13 -169 39s-81 63 -105 111c-23 47 -35 103 -35 168v394h162v-374c0 -59 11 -106 34 -142c23 -34 60 -52 113 -52c54 0 92 18 114 52c23 36 34 83 34 142v374h163v-394c0 -65 -12 -121 -35 -168c-24 -48 -59 -85 -105 -111s-103 -39 -171 -39z
M162 765l124 152h174l124 -152h-146l-65 67l-65 -67h-146z" />
    <glyph glyph-name="Udieresis" unicode="&#xdc;" horiz-adv-x="746" 
d="M372 -16c-67 0 -123 13 -169 39s-81 63 -105 111c-23 47 -35 103 -35 168v394h162v-374c0 -59 11 -106 34 -142c23 -34 60 -52 113 -52c54 0 92 18 114 52c23 36 34 83 34 142v374h163v-394c0 -65 -12 -121 -35 -168c-24 -48 -59 -85 -105 -111s-103 -39 -171 -39z
M492 759c-23 0 -42 8 -57 23s-23 34 -23 57c0 22 8 41 23 57c15 15 34 23 57 23s42 -8 58 -23c15 -16 23 -35 23 -57c0 -23 -8 -42 -23 -57c-16 -15 -35 -23 -58 -23zM254 759c-23 0 -42 8 -58 23c-15 15 -23 34 -23 57c0 22 8 41 23 57c16 15 35 23 58 23s42 -8 57 -23
c15 -16 23 -35 23 -57c0 -23 -8 -42 -23 -57s-34 -23 -57 -23z" />
    <glyph glyph-name="Yacute" unicode="&#xdd;" horiz-adv-x="686" 
d="M262 0v255l-252 441h183l154 -289l154 289h176l-252 -441v-255h-163zM409 765h-146l88 152h164z" />
    <glyph glyph-name="Thorn" unicode="&#xde;" horiz-adv-x="666" 
d="M72 0v696h163v-105h125c57 0 107 -10 148 -30s73 -48 95 -84s33 -78 33 -126s-11 -90 -33 -127c-22 -36 -54 -64 -95 -84s-91 -30 -148 -30h-125v-110h-163zM336 453h-101v-205h101c47 0 82 9 103 26c21 18 32 44 32 77s-11 58 -32 75c-21 18 -56 27 -103 27z" />
    <glyph glyph-name="germandbls" unicode="&#xdf;" horiz-adv-x="637" 
d="M60 0v467c0 81 24 144 70 189c48 46 111 69 191 69c51 0 94 -9 131 -26c36 -17 64 -41 83 -71s29 -64 29 -102c0 -33 -8 -62 -24 -87c-17 -25 -40 -43 -70 -56c39 -13 70 -36 93 -67c23 -32 34 -70 34 -114c0 -39 -9 -73 -28 -104s-45 -55 -80 -72s-76 -26 -124 -26h-79
v130h65c29 0 52 8 68 24s24 38 24 66c0 27 -9 49 -27 64c-19 15 -44 23 -76 23h-43v128h24c28 0 51 7 68 21s26 34 26 59c0 23 -8 42 -25 55c-17 14 -39 21 -66 21c-34 0 -61 -10 -82 -31c-20 -21 -30 -54 -30 -99v-461h-152z" />
    <glyph glyph-name="agrave" unicode="&#xe0;" horiz-adv-x="549" 
d="M208 -15c-55 0 -98 15 -131 45c-33 31 -49 71 -49 121c0 55 20 97 59 127s94 45 163 45h95v18c0 26 -7 45 -22 57c-15 13 -35 19 -60 19c-22 0 -40 -4 -53 -13c-13 -8 -22 -17 -25 -28h-143c9 45 32 83 71 114s90 46 155 46c69 0 124 -17 164 -51c41 -34 61 -88 61 -161
v-324h-138v59c-16 -26 -37 -45 -65 -57c-26 -11 -54 -17 -82 -17zM248 103c15 0 30 3 46 10c14 7 27 17 36 29c10 14 15 30 15 49v30h-88c-27 0 -47 -5 -61 -15c-15 -11 -22 -26 -22 -45s7 -33 21 -43s32 -15 53 -15zM210 590l-94 159h158l76 -159h-140z" />
    <glyph glyph-name="aacute" unicode="&#xe1;" horiz-adv-x="549" 
d="M208 -15c-55 0 -98 15 -131 45c-33 31 -49 71 -49 121c0 55 20 97 59 127s94 45 163 45h95v18c0 26 -7 45 -22 57c-15 13 -35 19 -60 19c-22 0 -40 -4 -53 -13c-13 -8 -22 -17 -25 -28h-143c9 45 32 83 71 114s90 46 155 46c69 0 124 -17 164 -51c41 -34 61 -88 61 -161
v-324h-138v59c-16 -26 -37 -45 -65 -57c-26 -11 -54 -17 -82 -17zM248 103c15 0 30 3 46 10c14 7 27 17 36 29c10 14 15 30 15 49v30h-88c-27 0 -47 -5 -61 -15c-15 -11 -22 -26 -22 -45s7 -33 21 -43s32 -15 53 -15zM336 590h-140l76 159h158z" />
    <glyph glyph-name="acircumflex" unicode="&#xe2;" horiz-adv-x="549" 
d="M208 -15c-55 0 -98 15 -131 45c-33 31 -49 71 -49 121c0 55 20 97 59 127s94 45 163 45h95v18c0 26 -7 45 -22 57c-15 13 -35 19 -60 19c-22 0 -40 -4 -53 -13c-13 -8 -22 -17 -25 -28h-143c9 45 32 83 71 114s90 46 155 46c69 0 124 -17 164 -51c41 -34 61 -88 61 -161
v-324h-138v59c-16 -26 -37 -45 -65 -57c-26 -11 -54 -17 -82 -17zM248 103c15 0 30 3 46 10c14 7 27 17 36 29c10 14 15 30 15 49v30h-88c-27 0 -47 -5 -61 -15c-15 -11 -22 -26 -22 -45s7 -33 21 -43s32 -15 53 -15zM67 590l124 159h164l124 -159h-142l-64 73l-64 -73h-142
z" />
    <glyph glyph-name="atilde" unicode="&#xe3;" horiz-adv-x="549" 
d="M208 -15c-55 0 -98 15 -131 45c-33 31 -49 71 -49 121c0 55 20 97 59 127s94 45 163 45h95v18c0 26 -7 45 -22 57c-15 13 -35 19 -60 19c-22 0 -40 -4 -53 -13c-13 -8 -22 -17 -25 -28h-143c9 45 32 83 71 114s90 46 155 46c69 0 124 -17 164 -51c41 -34 61 -88 61 -161
v-324h-138v59c-16 -26 -37 -45 -65 -57c-26 -11 -54 -17 -82 -17zM248 103c15 0 30 3 46 10c14 7 27 17 36 29c10 14 15 30 15 49v30h-88c-27 0 -47 -5 -61 -15c-15 -11 -22 -26 -22 -45s7 -33 21 -43s32 -15 53 -15zM350 587c-14 0 -28 2 -42 7c-13 5 -30 13 -50 26
c-9 6 -17 10 -23 12s-12 3 -17 3c-19 0 -28 -10 -28 -31v-16h-106v42c0 35 10 63 31 84s48 31 81 31c14 0 28 -2 42 -7c13 -4 30 -13 50 -26c9 -6 17 -10 23 -12s12 -3 17 -3c19 0 28 10 28 31v16h106v-42c0 -36 -10 -64 -31 -84c-21 -21 -48 -31 -81 -31z" />
    <glyph glyph-name="adieresis" unicode="&#xe4;" horiz-adv-x="549" 
d="M208 -15c-55 0 -98 15 -131 45c-33 31 -49 71 -49 121c0 55 20 97 59 127s94 45 163 45h95v18c0 26 -7 45 -22 57c-15 13 -35 19 -60 19c-22 0 -40 -4 -53 -13c-13 -8 -22 -17 -25 -28h-143c9 45 32 83 71 114s90 46 155 46c69 0 124 -17 164 -51c41 -34 61 -88 61 -161
v-324h-138v59c-16 -26 -37 -45 -65 -57c-26 -11 -54 -17 -82 -17zM248 103c15 0 30 3 46 10c14 7 27 17 36 29c10 14 15 30 15 49v30h-88c-27 0 -47 -5 -61 -15c-15 -11 -22 -26 -22 -45s7 -33 21 -43s32 -15 53 -15zM388 582c-23 0 -42 8 -57 23s-23 34 -23 57s8 42 23 57
s34 23 57 23s42 -8 58 -23c15 -15 23 -34 23 -57s-8 -42 -23 -57c-16 -15 -35 -23 -58 -23zM158 582c-23 0 -42 8 -58 23c-15 15 -23 34 -23 57s8 42 23 57c16 15 35 23 58 23s42 -8 57 -23s23 -34 23 -57s-8 -42 -23 -57s-34 -23 -57 -23z" />
    <glyph glyph-name="aring" unicode="&#xe5;" horiz-adv-x="549" 
d="M208 -15c-55 0 -98 15 -131 45c-33 31 -49 71 -49 121c0 55 20 97 59 127s94 45 163 45h95v18c0 26 -7 45 -22 57c-15 13 -35 19 -60 19c-22 0 -40 -4 -53 -13c-13 -8 -22 -17 -25 -28h-143c9 45 32 83 71 114s90 46 155 46c69 0 124 -17 164 -51c41 -34 61 -88 61 -161
v-324h-138v59c-16 -26 -37 -45 -65 -57c-26 -11 -54 -17 -82 -17zM248 103c15 0 30 3 46 10c14 7 27 17 36 29c10 14 15 30 15 49v30h-88c-27 0 -47 -5 -61 -15c-15 -11 -22 -26 -22 -45s7 -33 21 -43s32 -15 53 -15zM273 566c-24 0 -46 6 -66 18c-20 11 -36 27 -48 46
c-12 20 -18 42 -18 66c0 25 6 47 18 66c12 20 28 36 48 48c20 11 42 17 66 17c25 0 47 -6 67 -17c19 -12 35 -28 47 -48c12 -19 18 -41 18 -66c0 -24 -6 -46 -18 -66c-12 -19 -28 -35 -47 -46c-20 -12 -42 -18 -67 -18zM273 644c15 0 27 5 37 15s15 22 15 37s-5 28 -15 38
c-10 9 -22 14 -37 14s-27 -5 -37 -14c-10 -10 -15 -23 -15 -38s5 -27 15 -37s22 -15 37 -15z" />
    <glyph glyph-name="ae" unicode="&#xe6;" horiz-adv-x="885" 
d="M222 -15c-59 0 -106 15 -142 45c-34 31 -52 71 -52 121c0 54 20 95 58 125c40 28 93 43 162 43h97v22c0 26 -7 45 -22 57c-15 13 -35 19 -60 19c-22 0 -40 -4 -53 -13c-13 -8 -22 -17 -25 -28h-143c9 45 32 83 70 114c39 31 89 46 151 46c43 0 79 -7 108 -21
s51 -35 68 -63c19 27 44 48 75 62c32 15 65 22 100 22c75 0 134 -25 175 -74c41 -50 62 -117 62 -200v-42h-353c10 -77 48 -116 114 -116c21 0 38 3 51 10s23 15 28 24h152c-13 -47 -39 -84 -80 -112c-41 -27 -90 -41 -149 -41c-48 0 -88 9 -122 27c-32 17 -59 42 -80 74
c-20 -33 -46 -58 -79 -75s-70 -26 -111 -26zM607 417c-59 0 -95 -33 -107 -98h204c-1 29 -10 53 -27 71s-40 27 -70 27zM248 103c23 0 45 7 66 23c21 14 31 36 31 65v29h-88c-27 0 -47 -5 -61 -14c-15 -10 -22 -25 -22 -44s7 -33 21 -44c14 -10 32 -15 53 -15z" />
    <glyph glyph-name="ccedilla" unicode="&#xe7;" horiz-adv-x="555" 
d="M293 -15c-53 0 -99 12 -139 35c-38 24 -69 57 -90 98s-32 89 -32 143c0 53 11 101 32 142s52 74 90 97c40 24 86 36 139 36c45 0 85 -9 117 -26c34 -18 60 -42 80 -72c20 -29 32 -62 36 -98h-154c-3 19 -12 34 -24 46c-14 11 -32 17 -57 17c-31 0 -56 -13 -75 -39
c-20 -25 -30 -60 -30 -103c0 -45 10 -80 30 -105c19 -25 44 -38 75 -38c25 0 44 5 57 16c14 11 23 25 26 44h152c-4 -36 -16 -69 -36 -98s-46 -52 -80 -70c-32 -16 -72 -25 -117 -25zM195 -261v84h59c30 0 45 11 45 32c0 19 -13 29 -40 29h-50l47 155h87l-30 -87
c27 -1 51 -11 70 -30s29 -43 29 -71c0 -35 -11 -62 -34 -82c-22 -20 -53 -30 -93 -30h-90z" />
    <glyph glyph-name="egrave" unicode="&#xe8;" horiz-adv-x="569" 
d="M295 -15c-82 0 -146 25 -193 75c-47 49 -70 117 -70 203c0 52 10 99 32 140c20 41 50 74 89 97c39 24 85 36 139 36c78 0 138 -25 180 -74c42 -50 63 -117 63 -202v-48h-352c11 -72 49 -108 113 -108c21 0 39 3 52 10s23 15 28 24h151c-13 -47 -39 -84 -80 -112
c-41 -27 -91 -41 -152 -41zM291 417c-61 0 -97 -34 -108 -102h206c-1 30 -10 55 -27 73c-16 20 -40 29 -71 29zM221 590l-94 159h158l76 -159h-140z" />
    <glyph glyph-name="eacute" unicode="&#xe9;" horiz-adv-x="569" 
d="M295 -15c-82 0 -146 25 -193 75c-47 49 -70 117 -70 203c0 52 10 99 32 140c20 41 50 74 89 97c39 24 85 36 139 36c78 0 138 -25 180 -74c42 -50 63 -117 63 -202v-48h-352c11 -72 49 -108 113 -108c21 0 39 3 52 10s23 15 28 24h151c-13 -47 -39 -84 -80 -112
c-41 -27 -91 -41 -152 -41zM291 417c-61 0 -97 -34 -108 -102h206c-1 30 -10 55 -27 73c-16 20 -40 29 -71 29zM347 590h-140l76 159h158z" />
    <glyph glyph-name="ecircumflex" unicode="&#xea;" horiz-adv-x="569" 
d="M295 -15c-82 0 -146 25 -193 75c-47 49 -70 117 -70 203c0 52 10 99 32 140c20 41 50 74 89 97c39 24 85 36 139 36c78 0 138 -25 180 -74c42 -50 63 -117 63 -202v-48h-352c11 -72 49 -108 113 -108c21 0 39 3 52 10s23 15 28 24h151c-13 -47 -39 -84 -80 -112
c-41 -27 -91 -41 -152 -41zM291 417c-61 0 -97 -34 -108 -102h206c-1 30 -10 55 -27 73c-16 20 -40 29 -71 29zM78 590l124 159h164l124 -159h-142l-64 73l-64 -73h-142z" />
    <glyph glyph-name="edieresis" unicode="&#xeb;" horiz-adv-x="569" 
d="M295 -15c-82 0 -146 25 -193 75c-47 49 -70 117 -70 203c0 52 10 99 32 140c20 41 50 74 89 97c39 24 85 36 139 36c78 0 138 -25 180 -74c42 -50 63 -117 63 -202v-48h-352c11 -72 49 -108 113 -108c21 0 39 3 52 10s23 15 28 24h151c-13 -47 -39 -84 -80 -112
c-41 -27 -91 -41 -152 -41zM291 417c-61 0 -97 -34 -108 -102h206c-1 30 -10 55 -27 73c-16 20 -40 29 -71 29zM399 582c-23 0 -42 8 -57 23s-23 34 -23 57s8 42 23 57s34 23 57 23s42 -8 57 -23c16 -15 24 -34 24 -57s-8 -42 -24 -57c-15 -15 -34 -23 -57 -23zM169 582
c-23 0 -42 8 -57 23c-16 15 -24 34 -24 57s8 42 24 57c15 15 34 23 57 23s42 -8 57 -23s23 -34 23 -57s-8 -42 -23 -57s-34 -23 -57 -23z" />
    <glyph glyph-name="igrave" unicode="&#xec;" horiz-adv-x="273" 
d="M60 0v521h152v-521h-152zM73 590l-94 159h158l76 -159h-140z" />
    <glyph glyph-name="iacute" unicode="&#xed;" horiz-adv-x="273" 
d="M60 0v521h152v-521h-152zM199 590h-140l76 159h158z" />
    <glyph glyph-name="icircumflex" unicode="&#xee;" horiz-adv-x="273" 
d="M60 0v521h152v-521h-152zM-45 590l102 159h158l102 -159h-134l-47 68l-47 -68h-134z" />
    <glyph glyph-name="idieresis" unicode="&#xef;" horiz-adv-x="273" 
d="M60 0v521h152v-521h-152zM39 582c-23 0 -41 8 -57 23c-14 15 -22 34 -22 57s8 42 22 57c16 15 34 23 57 23c22 0 41 -8 55 -23c16 -15 23 -34 23 -57s-7 -42 -23 -57c-14 -15 -33 -23 -55 -23zM234 582c-22 0 -40 8 -56 23c-14 15 -22 34 -22 57s8 42 22 57
c16 15 34 23 56 23s40 -8 56 -23c14 -15 22 -34 22 -57s-8 -42 -22 -57c-16 -15 -34 -23 -56 -23z" />
    <glyph glyph-name="eth" unicode="&#xf0;" horiz-adv-x="601" 
d="M298 -15c-53 0 -100 11 -140 34s-71 54 -93 93s-33 84 -33 134c0 53 11 98 32 136s50 68 86 88c37 22 77 32 120 32c57 0 105 -22 143 -66c-13 49 -38 94 -73 137l-146 -43v90l77 23c-33 27 -71 55 -115 82h179c23 -14 45 -29 64 -45l147 44v-90l-78 -23
c36 -46 61 -96 76 -151c14 -55 21 -112 21 -171c0 -65 -11 -121 -34 -166s-54 -80 -95 -103c-40 -23 -86 -35 -138 -35zM298 118c33 0 60 12 82 36c20 23 31 54 31 92s-11 69 -32 92c-21 24 -48 36 -81 36s-60 -12 -80 -36c-22 -23 -32 -54 -32 -92s10 -69 32 -92
c20 -24 47 -36 80 -36z" />
    <glyph glyph-name="ntilde" unicode="&#xf1;" horiz-adv-x="596" 
d="M212 304v-304h-152v521h145v-58c38 49 89 73 154 73c55 0 99 -20 132 -58c33 -40 49 -91 49 -156v-322h-152v302c0 30 -7 54 -21 72s-36 27 -65 27c-27 0 -48 -9 -65 -27c-17 -17 -25 -41 -25 -70zM377 587c-14 0 -28 2 -41 7c-14 5 -31 13 -51 26c-9 6 -17 10 -23 12
s-12 3 -17 3c-19 0 -28 -10 -28 -31v-16h-106v42c0 35 10 63 31 84s48 31 81 31c14 0 28 -2 41 -7c14 -4 31 -13 51 -26c9 -6 17 -10 23 -12s12 -3 17 -3c19 0 28 10 28 31v16h106v-42c0 -36 -10 -64 -31 -84c-21 -21 -48 -31 -81 -31z" />
    <glyph glyph-name="ograve" unicode="&#xf2;" horiz-adv-x="597" 
d="M298 -15c-52 0 -98 12 -138 35s-71 56 -94 98c-23 41 -34 89 -34 143s11 102 34 143s54 74 94 97s86 35 138 35c53 0 99 -12 139 -35s71 -56 94 -97s34 -89 34 -143s-11 -102 -34 -143c-23 -42 -54 -75 -94 -98s-86 -35 -139 -35zM298 118c33 0 60 13 82 38
c20 26 31 61 31 105s-11 79 -31 104c-22 25 -49 38 -82 38s-60 -13 -80 -38c-22 -25 -32 -60 -32 -104s10 -79 32 -105c20 -25 47 -38 80 -38zM235 590l-94 159h158l76 -159h-140z" />
    <glyph glyph-name="oacute" unicode="&#xf3;" horiz-adv-x="597" 
d="M298 -15c-52 0 -98 12 -138 35s-71 56 -94 98c-23 41 -34 89 -34 143s11 102 34 143s54 74 94 97s86 35 138 35c53 0 99 -12 139 -35s71 -56 94 -97s34 -89 34 -143s-11 -102 -34 -143c-23 -42 -54 -75 -94 -98s-86 -35 -139 -35zM298 118c33 0 60 13 82 38
c20 26 31 61 31 105s-11 79 -31 104c-22 25 -49 38 -82 38s-60 -13 -80 -38c-22 -25 -32 -60 -32 -104s10 -79 32 -105c20 -25 47 -38 80 -38zM361 590h-140l76 159h158z" />
    <glyph glyph-name="ocircumflex" unicode="&#xf4;" horiz-adv-x="597" 
d="M298 -15c-52 0 -98 12 -138 35s-71 56 -94 98c-23 41 -34 89 -34 143s11 102 34 143s54 74 94 97s86 35 138 35c53 0 99 -12 139 -35s71 -56 94 -97s34 -89 34 -143s-11 -102 -34 -143c-23 -42 -54 -75 -94 -98s-86 -35 -139 -35zM298 118c33 0 60 13 82 38
c20 26 31 61 31 105s-11 79 -31 104c-22 25 -49 38 -82 38s-60 -13 -80 -38c-22 -25 -32 -60 -32 -104s10 -79 32 -105c20 -25 47 -38 80 -38zM92 590l124 159h164l124 -159h-142l-64 73l-64 -73h-142z" />
    <glyph glyph-name="otilde" unicode="&#xf5;" horiz-adv-x="597" 
d="M298 -15c-52 0 -98 12 -138 35s-71 56 -94 98c-23 41 -34 89 -34 143s11 102 34 143s54 74 94 97s86 35 138 35c53 0 99 -12 139 -35s71 -56 94 -97s34 -89 34 -143s-11 -102 -34 -143c-23 -42 -54 -75 -94 -98s-86 -35 -139 -35zM298 118c33 0 60 13 82 38
c20 26 31 61 31 105s-11 79 -31 104c-22 25 -49 38 -82 38s-60 -13 -80 -38c-22 -25 -32 -60 -32 -104s10 -79 32 -105c20 -25 47 -38 80 -38zM375 587c-14 0 -28 2 -41 7c-14 5 -31 13 -51 26c-9 6 -17 10 -23 12s-12 3 -17 3c-19 0 -28 -10 -28 -31v-16h-106v42
c0 35 10 63 31 84s48 31 81 31c14 0 28 -2 41 -7c14 -4 31 -13 51 -26c9 -6 17 -10 23 -12s12 -3 17 -3c19 0 28 10 28 31v16h106v-42c0 -36 -10 -64 -31 -84c-21 -21 -48 -31 -81 -31z" />
    <glyph glyph-name="odieresis" unicode="&#xf6;" horiz-adv-x="597" 
d="M298 -15c-52 0 -98 12 -138 35s-71 56 -94 98c-23 41 -34 89 -34 143s11 102 34 143s54 74 94 97s86 35 138 35c53 0 99 -12 139 -35s71 -56 94 -97s34 -89 34 -143s-11 -102 -34 -143c-23 -42 -54 -75 -94 -98s-86 -35 -139 -35zM298 118c33 0 60 13 82 38
c20 26 31 61 31 105s-11 79 -31 104c-22 25 -49 38 -82 38s-60 -13 -80 -38c-22 -25 -32 -60 -32 -104s10 -79 32 -105c20 -25 47 -38 80 -38zM413 582c-23 0 -42 8 -57 23s-23 34 -23 57s8 42 23 57s34 23 57 23s42 -8 57 -23c16 -15 24 -34 24 -57s-8 -42 -24 -57
c-15 -15 -34 -23 -57 -23zM183 582c-23 0 -42 8 -57 23c-16 15 -24 34 -24 57s8 42 24 57c15 15 34 23 57 23s42 -8 57 -23s23 -34 23 -57s-8 -42 -23 -57s-34 -23 -57 -23z" />
    <glyph glyph-name="divide" unicode="&#xf7;" 
d="M306 459c-22 0 -41 8 -56 23c-16 15 -24 34 -24 56c0 23 8 42 24 57c15 15 34 23 56 23s41 -8 56 -23c16 -15 24 -34 24 -57c0 -22 -8 -41 -24 -56c-15 -15 -34 -23 -56 -23zM67 270v127h478v-127h-478zM306 49c-22 0 -41 8 -56 23c-16 15 -24 34 -24 57c0 22 8 41 24 56
c15 15 34 23 56 23s41 -8 56 -23c16 -15 24 -34 24 -56c0 -23 -8 -42 -24 -57c-15 -15 -34 -23 -56 -23z" />
    <glyph glyph-name="oslash" unicode="&#xf8;" horiz-adv-x="597" 
d="M47 -52l67 107c-26 24 -46 54 -60 89c-15 35 -22 74 -22 117c0 54 11 102 34 143s54 74 94 97s86 35 138 35c38 0 73 -6 106 -19l35 56h111l-67 -107c26 -24 46 -54 61 -88c14 -36 21 -74 21 -117c0 -54 -11 -102 -34 -143c-23 -42 -54 -75 -94 -98s-86 -35 -139 -35
c-37 0 -72 6 -105 19l-35 -56h-111zM177 261c0 -31 5 -58 15 -81l144 229c-12 4 -25 6 -38 6c-35 0 -64 -14 -87 -41c-23 -28 -34 -66 -34 -113zM298 106c36 0 65 14 88 42s34 66 34 113c0 31 -5 58 -15 81l-144 -230c11 -4 24 -6 37 -6z" />
    <glyph glyph-name="ugrave" unicode="&#xf9;" horiz-adv-x="590" 
d="M378 216v305h152v-521h-145v56c-16 -23 -36 -40 -60 -52c-24 -13 -51 -19 -81 -19c-61 0 -107 20 -140 60c-32 40 -48 91 -48 154v322h152v-305c0 -29 7 -52 21 -70c14 -17 35 -26 63 -26c27 0 48 9 64 26c14 18 22 41 22 70zM230 590l-94 159h158l76 -159h-140z" />
    <glyph glyph-name="uacute" unicode="&#xfa;" horiz-adv-x="590" 
d="M378 216v305h152v-521h-145v56c-16 -23 -36 -40 -60 -52c-24 -13 -51 -19 -81 -19c-61 0 -107 20 -140 60c-32 40 -48 91 -48 154v322h152v-305c0 -29 7 -52 21 -70c14 -17 35 -26 63 -26c27 0 48 9 64 26c14 18 22 41 22 70zM356 590h-140l76 159h158z" />
    <glyph glyph-name="ucircumflex" unicode="&#xfb;" horiz-adv-x="590" 
d="M378 216v305h152v-521h-145v56c-16 -23 -36 -40 -60 -52c-24 -13 -51 -19 -81 -19c-61 0 -107 20 -140 60c-32 40 -48 91 -48 154v322h152v-305c0 -29 7 -52 21 -70c14 -17 35 -26 63 -26c27 0 48 9 64 26c14 18 22 41 22 70zM87 590l124 159h164l124 -159h-142l-64 73
l-64 -73h-142z" />
    <glyph glyph-name="udieresis" unicode="&#xfc;" horiz-adv-x="590" 
d="M378 216v305h152v-521h-145v56c-16 -23 -36 -40 -60 -52c-24 -13 -51 -19 -81 -19c-61 0 -107 20 -140 60c-32 40 -48 91 -48 154v322h152v-305c0 -29 7 -52 21 -70c14 -17 35 -26 63 -26c27 0 48 9 64 26c14 18 22 41 22 70zM408 582c-23 0 -42 8 -57 23s-23 34 -23 57
s8 42 23 57s34 23 57 23s42 -8 58 -23c15 -15 23 -34 23 -57s-8 -42 -23 -57c-16 -15 -35 -23 -58 -23zM178 582c-23 0 -42 8 -58 23c-15 15 -23 34 -23 57s8 42 23 57c16 15 35 23 58 23s42 -8 57 -23s23 -34 23 -57s-8 -42 -23 -57s-34 -23 -57 -23z" />
    <glyph glyph-name="yacute" unicode="&#xfd;" horiz-adv-x="578" 
d="M127 -205l85 205l-204 521h173l114 -342l113 342h162l-281 -726h-162zM356 590h-140l76 159h158z" />
    <glyph glyph-name="thorn" unicode="&#xfe;" horiz-adv-x="617" 
d="M60 -205v930h151v-258c17 22 38 39 63 51c24 12 51 18 82 18c45 0 84 -12 118 -35c35 -23 62 -56 82 -97c19 -42 29 -90 29 -144s-10 -102 -29 -143c-20 -41 -47 -74 -82 -97c-34 -23 -73 -35 -118 -35c-31 0 -58 6 -82 18c-25 12 -46 29 -63 51v-259h-151zM318 118
c33 0 60 13 82 38c20 25 31 60 31 104s-11 79 -31 104c-22 26 -49 39 -82 39s-61 -13 -82 -39c-21 -25 -32 -60 -32 -104s11 -79 32 -104s49 -38 82 -38z" />
    <glyph glyph-name="ydieresis" unicode="&#xff;" horiz-adv-x="578" 
d="M127 -205l85 205l-204 521h173l114 -342l113 342h162l-281 -726h-162zM408 582c-23 0 -42 8 -57 23s-23 34 -23 57s8 42 23 57s34 23 57 23s42 -8 58 -23c15 -15 23 -34 23 -57s-8 -42 -23 -57c-16 -15 -35 -23 -58 -23zM178 582c-23 0 -42 8 -58 23
c-15 15 -23 34 -23 57s8 42 23 57c16 15 35 23 58 23s42 -8 57 -23s23 -34 23 -57s-8 -42 -23 -57s-34 -23 -57 -23z" />
    <glyph glyph-name="Amacron" unicode="&#x100;" horiz-adv-x="720" 
d="M536 0l-48 139h-264l-48 -139h-164l263 696h170l263 -696h-172zM272 278h167l-83 241zM190 899h340v-115h-340v115z" />
    <glyph glyph-name="amacron" unicode="&#x101;" horiz-adv-x="549" 
d="M208 -15c-55 0 -98 15 -131 45c-33 31 -49 71 -49 121c0 55 20 97 59 127s94 45 163 45h95v18c0 26 -7 45 -22 57c-15 13 -35 19 -60 19c-22 0 -40 -4 -53 -13c-13 -8 -22 -17 -25 -28h-143c9 45 32 83 71 114s90 46 155 46c69 0 124 -17 164 -51c41 -34 61 -88 61 -161
v-324h-138v59c-16 -26 -37 -45 -65 -57c-26 -11 -54 -17 -82 -17zM248 103c15 0 30 3 46 10c14 7 27 17 36 29c10 14 15 30 15 49v30h-88c-27 0 -47 -5 -61 -15c-15 -11 -22 -26 -22 -45s7 -33 21 -43s32 -15 53 -15zM109 730h328v-113h-328v113z" />
    <glyph glyph-name="Abreve" unicode="&#x102;" horiz-adv-x="720" 
d="M536 0l-48 139h-264l-48 -139h-164l263 696h170l263 -696h-172zM272 278h167l-83 241zM360 758c-54 0 -98 14 -133 43s-54 67 -57 115h124c3 -16 10 -29 21 -38c11 -10 26 -15 45 -15s34 5 45 15c11 9 18 22 21 38h124c-3 -48 -22 -86 -56 -115c-36 -29 -80 -43 -134 -43
z" />
    <glyph glyph-name="abreve" unicode="&#x103;" horiz-adv-x="549" 
d="M208 -15c-55 0 -98 15 -131 45c-33 31 -49 71 -49 121c0 55 20 97 59 127s94 45 163 45h95v18c0 26 -7 45 -22 57c-15 13 -35 19 -60 19c-22 0 -40 -4 -53 -13c-13 -8 -22 -17 -25 -28h-143c9 45 32 83 71 114s90 46 155 46c69 0 124 -17 164 -51c41 -34 61 -88 61 -161
v-324h-138v59c-16 -26 -37 -45 -65 -57c-26 -11 -54 -17 -82 -17zM248 103c15 0 30 3 46 10c14 7 27 17 36 29c10 14 15 30 15 49v30h-88c-27 0 -47 -5 -61 -15c-15 -11 -22 -26 -22 -45s7 -33 21 -43s32 -15 53 -15zM273 582c-53 0 -96 15 -129 45c-34 30 -52 70 -55 121
h119c3 -19 10 -34 21 -44c11 -12 26 -17 44 -17s33 5 44 17c11 10 18 25 21 44h119c-3 -51 -21 -91 -54 -121s-77 -45 -130 -45z" />
    <glyph glyph-name="Aogonek" unicode="&#x104;" horiz-adv-x="720" 
d="M536 0l-48 139h-264l-48 -139h-164l263 696h170l263 -696h-172zM272 278h167l-83 241zM634 -258c-47 0 -85 11 -112 32c-28 22 -42 50 -42 85c0 72 49 128 146 169l55 -28c-29 -21 -49 -39 -61 -56c-11 -17 -17 -34 -17 -51s6 -31 17 -40c12 -9 27 -14 45 -14h34v-97h-65
z" />
    <glyph glyph-name="aogonek" unicode="&#x105;" horiz-adv-x="549" 
d="M208 -15c-55 0 -98 15 -131 45c-33 31 -49 71 -49 121c0 55 20 97 59 127s94 45 163 45h95v18c0 26 -7 45 -22 57c-15 13 -35 19 -60 19c-22 0 -40 -4 -53 -13c-13 -8 -22 -17 -25 -28h-143c9 45 32 83 71 114s90 46 155 46c69 0 124 -17 164 -51c41 -34 61 -88 61 -161
v-324h-138v59c-16 -26 -37 -45 -65 -57c-26 -11 -54 -17 -82 -17zM248 103c15 0 30 3 46 10c14 7 27 17 36 29c10 14 15 30 15 49v30h-88c-27 0 -47 -5 -61 -15c-15 -11 -22 -26 -22 -45s7 -33 21 -43s32 -15 53 -15zM432 -258c-47 0 -85 11 -112 32c-27 22 -41 50 -41 85
c0 73 48 129 145 169l56 -28c-29 -21 -50 -39 -61 -56s-17 -34 -17 -51s6 -31 18 -40c11 -9 26 -14 44 -14h34v-97h-66z" />
    <glyph glyph-name="Cacute" unicode="&#x106;" horiz-adv-x="723" 
d="M37 348c0 71 14 134 43 189s69 97 120 129c51 30 110 46 177 46c62 0 115 -11 158 -34c43 -22 78 -52 103 -90c26 -39 43 -82 52 -130h-168c-7 33 -22 59 -47 80c-25 20 -57 30 -98 30c-53 0 -95 -20 -127 -60c-32 -39 -48 -93 -48 -160s16 -120 48 -160s74 -60 127 -60
c41 0 74 10 99 29s41 45 48 76h166c-8 -47 -25 -90 -51 -127c-26 -38 -61 -68 -104 -90c-43 -21 -96 -32 -158 -32c-67 0 -126 16 -177 46c-51 32 -91 74 -120 130c-29 54 -43 117 -43 188zM443 765h-146l88 152h164z" />
    <glyph glyph-name="cacute" unicode="&#x107;" horiz-adv-x="555" 
d="M293 -15c-53 0 -99 12 -139 35c-38 24 -69 57 -90 98s-32 89 -32 143c0 53 11 101 32 142s52 74 90 97c40 24 86 36 139 36c45 0 85 -9 117 -26c34 -18 60 -42 80 -72c20 -29 32 -62 36 -98h-154c-3 19 -12 34 -24 46c-14 11 -32 17 -57 17c-31 0 -56 -13 -75 -39
c-20 -25 -30 -60 -30 -103c0 -45 10 -80 30 -105c19 -25 44 -38 75 -38c25 0 44 5 57 16c14 11 23 25 26 44h152c-4 -36 -16 -69 -36 -98s-46 -52 -80 -70c-32 -16 -72 -25 -117 -25zM356 590h-140l76 159h158z" />
    <glyph glyph-name="Ccircumflex" unicode="&#x108;" horiz-adv-x="723" 
d="M37 348c0 71 14 134 43 189s69 97 120 129c51 30 110 46 177 46c62 0 115 -11 158 -34c43 -22 78 -52 103 -90c26 -39 43 -82 52 -130h-168c-7 33 -22 59 -47 80c-25 20 -57 30 -98 30c-53 0 -95 -20 -127 -60c-32 -39 -48 -93 -48 -160s16 -120 48 -160s74 -60 127 -60
c41 0 74 10 99 29s41 45 48 76h166c-8 -47 -25 -90 -51 -127c-26 -38 -61 -68 -104 -90c-43 -21 -96 -32 -158 -32c-67 0 -126 16 -177 46c-51 32 -91 74 -120 130c-29 54 -43 117 -43 188zM166 765l124 152h174l124 -152h-146l-65 67l-65 -67h-146z" />
    <glyph glyph-name="ccircumflex" unicode="&#x109;" horiz-adv-x="555" 
d="M293 -15c-53 0 -99 12 -139 35c-38 24 -69 57 -90 98s-32 89 -32 143c0 53 11 101 32 142s52 74 90 97c40 24 86 36 139 36c45 0 85 -9 117 -26c34 -18 60 -42 80 -72c20 -29 32 -62 36 -98h-154c-3 19 -12 34 -24 46c-14 11 -32 17 -57 17c-31 0 -56 -13 -75 -39
c-20 -25 -30 -60 -30 -103c0 -45 10 -80 30 -105c19 -25 44 -38 75 -38c25 0 44 5 57 16c14 11 23 25 26 44h152c-4 -36 -16 -69 -36 -98s-46 -52 -80 -70c-32 -16 -72 -25 -117 -25zM87 590l124 159h164l124 -159h-142l-64 73l-64 -73h-142z" />
    <glyph glyph-name="Cdotaccent" unicode="&#x10a;" horiz-adv-x="723" 
d="M37 348c0 71 14 134 43 189s69 97 120 129c51 30 110 46 177 46c62 0 115 -11 158 -34c43 -22 78 -52 103 -90c26 -39 43 -82 52 -130h-168c-7 33 -22 59 -47 80c-25 20 -57 30 -98 30c-53 0 -95 -20 -127 -60c-32 -39 -48 -93 -48 -160s16 -120 48 -160s74 -60 127 -60
c41 0 74 10 99 29s41 45 48 76h166c-8 -47 -25 -90 -51 -127c-26 -38 -61 -68 -104 -90c-43 -21 -96 -32 -158 -32c-67 0 -126 16 -177 46c-51 32 -91 74 -120 130c-29 54 -43 117 -43 188zM376 754c-24 0 -44 8 -61 26c-17 16 -25 37 -25 61s8 45 25 61c17 18 37 26 61 26
c25 0 45 -8 62 -26c17 -16 25 -37 25 -61s-8 -45 -25 -61c-17 -18 -37 -26 -62 -26z" />
    <glyph glyph-name="cdotaccent" unicode="&#x10b;" horiz-adv-x="555" 
d="M293 -15c-53 0 -99 12 -139 35c-38 24 -69 57 -90 98s-32 89 -32 143c0 53 11 101 32 142s52 74 90 97c40 24 86 36 139 36c45 0 85 -9 117 -26c34 -18 60 -42 80 -72c20 -29 32 -62 36 -98h-154c-3 19 -12 34 -24 46c-14 11 -32 17 -57 17c-31 0 -56 -13 -75 -39
c-20 -25 -30 -60 -30 -103c0 -45 10 -80 30 -105c19 -25 44 -38 75 -38c25 0 44 5 57 16c14 11 23 25 26 44h152c-4 -36 -16 -69 -36 -98s-46 -52 -80 -70c-32 -16 -72 -25 -117 -25zM292 579c-24 0 -44 9 -61 25c-17 18 -25 38 -25 62s8 44 25 62c17 16 37 25 61 25
c25 0 45 -9 62 -25c17 -18 25 -38 25 -62s-8 -44 -25 -62c-17 -16 -37 -25 -62 -25z" />
    <glyph glyph-name="Ccaron" unicode="&#x10c;" horiz-adv-x="723" 
d="M37 348c0 71 14 134 43 189s69 97 120 129c51 30 110 46 177 46c62 0 115 -11 158 -34c43 -22 78 -52 103 -90c26 -39 43 -82 52 -130h-168c-7 33 -22 59 -47 80c-25 20 -57 30 -98 30c-53 0 -95 -20 -127 -60c-32 -39 -48 -93 -48 -160s16 -120 48 -160s74 -60 127 -60
c41 0 74 10 99 29s41 45 48 76h166c-8 -47 -25 -90 -51 -127c-26 -38 -61 -68 -104 -90c-43 -21 -96 -32 -158 -32c-67 0 -126 16 -177 46c-51 32 -91 74 -120 130c-29 54 -43 117 -43 188zM290 765l-124 152h146l65 -67l65 67h146l-124 -152h-174z" />
    <glyph glyph-name="ccaron" unicode="&#x10d;" horiz-adv-x="555" 
d="M293 -15c-53 0 -99 12 -139 35c-38 24 -69 57 -90 98s-32 89 -32 143c0 53 11 101 32 142s52 74 90 97c40 24 86 36 139 36c45 0 85 -9 117 -26c34 -18 60 -42 80 -72c20 -29 32 -62 36 -98h-154c-3 19 -12 34 -24 46c-14 11 -32 17 -57 17c-31 0 -56 -13 -75 -39
c-20 -25 -30 -60 -30 -103c0 -45 10 -80 30 -105c19 -25 44 -38 75 -38c25 0 44 5 57 16c14 11 23 25 26 44h152c-4 -36 -16 -69 -36 -98s-46 -52 -80 -70c-32 -16 -72 -25 -117 -25zM211 590l-124 159h142l64 -73l64 73h142l-124 -159h-164z" />
    <glyph glyph-name="Dcaron" unicode="&#x10e;" horiz-adv-x="734" 
d="M72 0v696h271c72 0 135 -14 187 -43c54 -29 94 -69 124 -121c28 -52 43 -113 43 -184s-15 -132 -43 -184c-30 -52 -70 -92 -124 -121c-52 -29 -115 -43 -187 -43h-271zM235 141h98c61 0 109 18 145 54s54 87 54 153s-18 117 -54 153s-84 54 -145 54h-98v-414zM257 765
l-124 152h146l65 -67l65 67h146l-124 -152h-174z" />
    <glyph glyph-name="dcaron" unicode="&#x10f;" horiz-adv-x="755" 
d="M261 -15c-45 0 -84 12 -119 35c-34 23 -61 56 -80 98c-20 41 -30 89 -30 143s10 102 30 143c19 41 46 74 80 97c35 23 74 35 119 35c31 0 58 -6 83 -18c24 -12 45 -29 62 -51v258h151v-725h-145v60c-17 -24 -39 -42 -64 -56c-25 -12 -54 -19 -87 -19zM299 118
c33 0 61 13 82 38c21 26 32 61 32 104c0 44 -11 79 -32 104c-21 26 -49 39 -82 39s-60 -13 -81 -38s-32 -60 -32 -105c0 -44 11 -79 32 -104s48 -38 81 -38zM623 486l2 239h135l-25 -239h-112z" />
    <glyph glyph-name="Dcroat" unicode="&#x110;" horiz-adv-x="766" 
d="M104 0v305h-82v117h82v274h270c72 0 135 -14 188 -43s94 -69 124 -121c28 -52 43 -113 43 -184s-15 -132 -43 -184c-30 -52 -71 -92 -124 -121s-116 -43 -188 -43h-270zM266 141h98c61 0 110 18 146 54s54 87 54 153s-18 117 -54 153s-85 54 -146 54h-98v-133h138v-117
h-138v-164z" />
    <glyph glyph-name="dcroat" unicode="&#x111;" horiz-adv-x="633" 
d="M261 -15c-43 0 -82 11 -117 33c-35 23 -62 54 -82 94s-30 86 -30 138c0 53 10 99 30 139s47 71 82 95c35 22 74 34 117 34c31 0 58 -6 83 -18c24 -12 45 -29 62 -50v115h-130v92h130v68h151v-68h65v-92h-65v-565h-145v58c-17 -23 -39 -40 -64 -54
c-25 -12 -54 -19 -87 -19zM299 118c33 0 61 12 82 37s32 56 32 95c0 40 -11 72 -32 97s-49 37 -82 37s-60 -12 -81 -36c-21 -25 -32 -57 -32 -98c0 -39 11 -70 32 -95s48 -37 81 -37z" />
    <glyph glyph-name="Emacron" unicode="&#x112;" horiz-adv-x="643" 
d="M72 0v696h514v-140h-352v-134h339v-140h-339v-142h357v-140h-519zM159 899h340v-115h-340v115z" />
    <glyph glyph-name="emacron" unicode="&#x113;" horiz-adv-x="569" 
d="M295 -15c-82 0 -146 25 -193 75c-47 49 -70 117 -70 203c0 52 10 99 32 140c20 41 50 74 89 97c39 24 85 36 139 36c78 0 138 -25 180 -74c42 -50 63 -117 63 -202v-48h-352c11 -72 49 -108 113 -108c21 0 39 3 52 10s23 15 28 24h151c-13 -47 -39 -84 -80 -112
c-41 -27 -91 -41 -152 -41zM291 417c-61 0 -97 -34 -108 -102h206c-1 30 -10 55 -27 73c-16 20 -40 29 -71 29zM120 730h328v-113h-328v113z" />
    <glyph glyph-name="Ebreve" unicode="&#x114;" horiz-adv-x="643" 
d="M72 0v696h514v-140h-352v-134h339v-140h-339v-142h357v-140h-519zM329 758c-54 0 -98 14 -133 43s-54 67 -57 115h124c3 -16 10 -29 21 -38c11 -10 26 -15 45 -15s34 5 45 15c11 9 18 22 21 38h124c-3 -48 -21 -86 -57 -115c-34 -29 -79 -43 -133 -43z" />
    <glyph glyph-name="ebreve" unicode="&#x115;" horiz-adv-x="569" 
d="M295 -15c-82 0 -146 25 -193 75c-47 49 -70 117 -70 203c0 52 10 99 32 140c20 41 50 74 89 97c39 24 85 36 139 36c78 0 138 -25 180 -74c42 -50 63 -117 63 -202v-48h-352c11 -72 49 -108 113 -108c21 0 39 3 52 10s23 15 28 24h151c-13 -47 -39 -84 -80 -112
c-41 -27 -91 -41 -152 -41zM291 417c-61 0 -97 -34 -108 -102h206c-1 30 -10 55 -27 73c-16 20 -40 29 -71 29zM284 582c-53 0 -96 15 -130 45c-33 30 -51 70 -54 121h119c3 -19 10 -34 21 -44c11 -12 26 -17 44 -17s33 5 44 17c11 10 18 25 21 44h119
c-3 -51 -21 -91 -54 -121s-77 -45 -130 -45z" />
    <glyph glyph-name="Edotaccent" unicode="&#x116;" horiz-adv-x="643" 
d="M72 0v696h514v-140h-352v-134h339v-140h-339v-142h357v-140h-519zM328 754c-24 0 -44 8 -61 26c-17 16 -25 37 -25 61s8 45 25 61c17 18 37 26 61 26c25 0 45 -8 62 -26c17 -16 25 -37 25 -61s-8 -45 -25 -61c-17 -18 -37 -26 -62 -26z" />
    <glyph glyph-name="edotaccent" unicode="&#x117;" horiz-adv-x="569" 
d="M295 -15c-82 0 -146 25 -193 75c-47 49 -70 117 -70 203c0 52 10 99 32 140c20 41 50 74 89 97c39 24 85 36 139 36c78 0 138 -25 180 -74c42 -50 63 -117 63 -202v-48h-352c11 -72 49 -108 113 -108c21 0 39 3 52 10s23 15 28 24h151c-13 -47 -39 -84 -80 -112
c-41 -27 -91 -41 -152 -41zM291 417c-61 0 -97 -34 -108 -102h206c-1 30 -10 55 -27 73c-16 20 -40 29 -71 29zM283 579c-24 0 -44 9 -61 25c-17 18 -25 38 -25 62s8 44 25 62c17 16 37 25 61 25c25 0 45 -9 62 -25c17 -18 25 -38 25 -62s-8 -44 -25 -62
c-17 -16 -37 -25 -62 -25z" />
    <glyph glyph-name="Eogonek" unicode="&#x118;" horiz-adv-x="643" 
d="M72 0v696h514v-140h-352v-134h339v-140h-339v-142h357v-140h-519zM520 -258c-47 0 -85 11 -112 32c-28 22 -42 50 -42 85c0 72 49 128 146 169l55 -28c-29 -21 -49 -39 -61 -56c-11 -17 -17 -34 -17 -51s6 -31 17 -40c12 -9 27 -14 45 -14h34v-97h-65z" />
    <glyph glyph-name="eogonek" unicode="&#x119;" horiz-adv-x="569" 
d="M295 -15c-82 0 -146 25 -193 75c-47 49 -70 117 -70 203c0 52 10 99 32 140c20 41 50 74 89 97c39 24 85 36 139 36c78 0 138 -25 180 -74c42 -50 63 -117 63 -202v-48h-352c11 -72 49 -108 113 -108c21 0 39 3 52 10s23 15 28 24h151c-13 -47 -39 -84 -80 -112
c-41 -27 -91 -41 -152 -41zM291 417c-61 0 -97 -34 -108 -102h206c-1 30 -10 55 -27 73c-16 20 -40 29 -71 29zM373 -258c-47 0 -85 11 -113 32c-27 21 -41 49 -41 84c0 23 5 44 16 64c11 21 29 42 55 64c25 21 61 45 106 71l54 -28c-32 -23 -56 -43 -71 -59
s-25 -30 -30 -42c-5 -13 -7 -25 -7 -36c0 -17 6 -30 18 -39c11 -9 26 -14 44 -14h34v-97h-65z" />
    <glyph glyph-name="Ecaron" unicode="&#x11a;" horiz-adv-x="643" 
d="M72 0v696h514v-140h-352v-134h339v-140h-339v-142h357v-140h-519zM242 765l-124 152h146l65 -67l65 67h146l-124 -152h-174z" />
    <glyph glyph-name="ecaron" unicode="&#x11b;" horiz-adv-x="569" 
d="M295 -15c-82 0 -146 25 -193 75c-47 49 -70 117 -70 203c0 52 10 99 32 140c20 41 50 74 89 97c39 24 85 36 139 36c78 0 138 -25 180 -74c42 -50 63 -117 63 -202v-48h-352c11 -72 49 -108 113 -108c21 0 39 3 52 10s23 15 28 24h151c-13 -47 -39 -84 -80 -112
c-41 -27 -91 -41 -152 -41zM291 417c-61 0 -97 -34 -108 -102h206c-1 30 -10 55 -27 73c-16 20 -40 29 -71 29zM202 590l-124 159h142l64 -73l64 73h142l-124 -159h-164z" />
    <glyph glyph-name="Gcircumflex" unicode="&#x11c;" horiz-adv-x="752" 
d="M389 -16c-71 0 -132 16 -185 47s-94 75 -123 129c-29 56 -44 118 -44 188c0 71 15 133 44 188s70 98 123 129s114 47 184 47c81 0 149 -20 204 -58c55 -40 92 -94 109 -165h-166c-10 23 -27 42 -51 57c-25 15 -57 22 -96 22c-57 0 -102 -20 -136 -59
c-33 -39 -50 -93 -50 -161c0 -67 17 -120 51 -160c34 -41 81 -61 141 -61c32 0 60 6 84 17c23 12 42 28 55 48c13 19 20 41 20 64v8h-165v134h325v-103c0 -58 -13 -111 -38 -157c-25 -48 -62 -85 -111 -112c-48 -28 -106 -42 -175 -42zM174 765l124 152h174l124 -152h-146
l-65 67l-65 -67h-146z" />
    <glyph glyph-name="gcircumflex" unicode="&#x11d;" horiz-adv-x="617" 
d="M260 6c-45 0 -84 11 -118 34c-35 23 -62 54 -81 94s-29 86 -29 137s10 97 29 137s46 71 81 94c34 23 73 34 118 34c33 0 63 -7 88 -20s47 -31 64 -54v59h145v-498c0 -78 -23 -138 -69 -180c-45 -42 -107 -63 -185 -63c-67 0 -124 16 -169 46c-46 32 -75 72 -86 122h156
c7 -13 19 -23 36 -30c17 -8 36 -12 59 -12c34 0 60 8 79 25s28 43 28 79v63c-17 -21 -38 -37 -63 -49s-52 -18 -83 -18zM298 138c33 0 61 12 82 37c22 25 33 57 33 97c0 39 -11 71 -33 96c-21 25 -49 37 -82 37s-60 -12 -80 -37c-22 -25 -32 -57 -32 -96
c0 -40 10 -72 32 -97c20 -25 47 -37 80 -37zM100 590l124 159h164l124 -159h-142l-64 73l-64 -73h-142z" />
    <glyph glyph-name="Gbreve" unicode="&#x11e;" horiz-adv-x="752" 
d="M389 -16c-71 0 -132 16 -185 47s-94 75 -123 129c-29 56 -44 118 -44 188c0 71 15 133 44 188s70 98 123 129s114 47 184 47c81 0 149 -20 204 -58c55 -40 92 -94 109 -165h-166c-10 23 -27 42 -51 57c-25 15 -57 22 -96 22c-57 0 -102 -20 -136 -59
c-33 -39 -50 -93 -50 -161c0 -67 17 -120 51 -160c34 -41 81 -61 141 -61c32 0 60 6 84 17c23 12 42 28 55 48c13 19 20 41 20 64v8h-165v134h325v-103c0 -58 -13 -111 -38 -157c-25 -48 -62 -85 -111 -112c-48 -28 -106 -42 -175 -42zM385 758c-54 0 -98 14 -133 43
s-54 67 -57 115h124c3 -16 10 -29 21 -38c11 -10 26 -15 45 -15s34 5 45 15c11 9 18 22 21 38h124c-3 -48 -21 -86 -57 -115c-34 -29 -79 -43 -133 -43z" />
    <glyph glyph-name="gbreve" unicode="&#x11f;" horiz-adv-x="617" 
d="M260 6c-45 0 -84 11 -118 34c-35 23 -62 54 -81 94s-29 86 -29 137s10 97 29 137s46 71 81 94c34 23 73 34 118 34c33 0 63 -7 88 -20s47 -31 64 -54v59h145v-498c0 -78 -23 -138 -69 -180c-45 -42 -107 -63 -185 -63c-67 0 -124 16 -169 46c-46 32 -75 72 -86 122h156
c7 -13 19 -23 36 -30c17 -8 36 -12 59 -12c34 0 60 8 79 25s28 43 28 79v63c-17 -21 -38 -37 -63 -49s-52 -18 -83 -18zM298 138c33 0 61 12 82 37c22 25 33 57 33 97c0 39 -11 71 -33 96c-21 25 -49 37 -82 37s-60 -12 -80 -37c-22 -25 -32 -57 -32 -96
c0 -40 10 -72 32 -97c20 -25 47 -37 80 -37zM306 582c-53 0 -96 15 -130 45c-33 30 -51 70 -54 121h119c3 -19 10 -34 21 -44c11 -12 26 -17 44 -17s33 5 44 17c11 10 18 25 21 44h119c-3 -51 -21 -91 -54 -121s-77 -45 -130 -45z" />
    <glyph glyph-name="Gdotaccent" unicode="&#x120;" horiz-adv-x="752" 
d="M389 -16c-71 0 -132 16 -185 47s-94 75 -123 129c-29 56 -44 118 -44 188c0 71 15 133 44 188s70 98 123 129s114 47 184 47c81 0 149 -20 204 -58c55 -40 92 -94 109 -165h-166c-10 23 -27 42 -51 57c-25 15 -57 22 -96 22c-57 0 -102 -20 -136 -59
c-33 -39 -50 -93 -50 -161c0 -67 17 -120 51 -160c34 -41 81 -61 141 -61c32 0 60 6 84 17c23 12 42 28 55 48c13 19 20 41 20 64v8h-165v134h325v-103c0 -58 -13 -111 -38 -157c-25 -48 -62 -85 -111 -112c-48 -28 -106 -42 -175 -42zM384 754c-24 0 -44 8 -61 26
c-17 16 -25 37 -25 61s8 45 25 61c17 18 37 26 61 26c25 0 45 -8 62 -26c17 -16 25 -37 25 -61s-8 -45 -25 -61c-17 -18 -37 -26 -62 -26z" />
    <glyph glyph-name="gdotaccent" unicode="&#x121;" horiz-adv-x="617" 
d="M260 6c-45 0 -84 11 -118 34c-35 23 -62 54 -81 94s-29 86 -29 137s10 97 29 137s46 71 81 94c34 23 73 34 118 34c33 0 63 -7 88 -20s47 -31 64 -54v59h145v-498c0 -78 -23 -138 -69 -180c-45 -42 -107 -63 -185 -63c-67 0 -124 16 -169 46c-46 32 -75 72 -86 122h156
c7 -13 19 -23 36 -30c17 -8 36 -12 59 -12c34 0 60 8 79 25s28 43 28 79v63c-17 -21 -38 -37 -63 -49s-52 -18 -83 -18zM298 138c33 0 61 12 82 37c22 25 33 57 33 97c0 39 -11 71 -33 96c-21 25 -49 37 -82 37s-60 -12 -80 -37c-22 -25 -32 -57 -32 -96
c0 -40 10 -72 32 -97c20 -25 47 -37 80 -37zM305 579c-24 0 -44 9 -61 25c-17 18 -25 38 -25 62s8 44 25 62c17 16 37 25 61 25c25 0 45 -9 62 -25c17 -18 25 -38 25 -62s-8 -44 -25 -62c-17 -16 -37 -25 -62 -25z" />
    <glyph glyph-name="uni0122" unicode="&#x122;" horiz-adv-x="752" 
d="M389 -16c-71 0 -132 16 -185 47s-94 75 -123 129c-29 56 -44 118 -44 188c0 71 15 133 44 188s70 98 123 129s114 47 184 47c81 0 149 -20 204 -58c55 -40 92 -94 109 -165h-166c-10 23 -27 42 -51 57c-25 15 -57 22 -96 22c-57 0 -102 -20 -136 -59
c-33 -39 -50 -93 -50 -161c0 -67 17 -120 51 -160c34 -41 81 -61 141 -61c32 0 60 6 84 17c23 12 42 28 55 48c13 19 20 41 20 64v8h-165v134h325v-103c0 -58 -13 -111 -38 -157c-25 -48 -62 -85 -111 -112c-48 -28 -106 -42 -175 -42zM311 -273c13 17 23 33 31 45
c8 14 16 28 24 44c-18 3 -33 11 -44 22s-17 26 -17 44c0 20 8 37 23 51c16 14 36 21 60 21c27 0 49 -8 64 -22c16 -16 24 -35 24 -59c0 -23 -5 -47 -16 -69c-11 -24 -26 -49 -47 -77h-102z" />
    <glyph glyph-name="uni0123" unicode="&#x123;" horiz-adv-x="617" 
d="M260 6c-45 0 -84 11 -118 34c-35 23 -62 54 -81 94s-29 86 -29 137s10 97 29 137s46 71 81 94c34 23 73 34 118 34c33 0 63 -7 88 -20s47 -31 64 -54v59h145v-498c0 -78 -23 -138 -69 -180c-45 -42 -107 -63 -185 -63c-67 0 -124 16 -169 46c-46 32 -75 72 -86 122h156
c7 -13 19 -23 36 -30c17 -8 36 -12 59 -12c34 0 60 8 79 25s28 43 28 79v63c-17 -21 -38 -37 -63 -49s-52 -18 -83 -18zM298 138c33 0 61 12 82 37c22 25 33 57 33 97c0 39 -11 71 -33 96c-21 25 -49 37 -82 37s-60 -12 -80 -37c-22 -25 -32 -57 -32 -96
c0 -40 10 -72 32 -97c20 -25 47 -37 80 -37zM307 579c-27 0 -49 8 -65 23c-15 15 -23 35 -23 58c0 47 25 100 74 159h101c-15 -19 -27 -37 -37 -52s-19 -32 -28 -50c18 -3 33 -10 44 -21s17 -26 17 -44c0 -21 -8 -38 -24 -52c-15 -14 -35 -21 -59 -21z" />
    <glyph glyph-name="Hcircumflex" unicode="&#x124;" horiz-adv-x="769" 
d="M72 0v696h163v-261h299v261h163v-696h-163v294h-299v-294h-163zM174 765l124 152h174l124 -152h-146l-65 67l-65 -67h-146z" />
    <glyph glyph-name="hcircumflex" unicode="&#x125;" horiz-adv-x="596" 
d="M60 0v725h152v-256c37 45 86 67 147 67c55 0 99 -20 132 -58c33 -40 49 -91 49 -156v-322h-152v302c0 30 -7 54 -21 72s-36 27 -65 27c-27 0 -48 -9 -65 -27c-17 -17 -25 -41 -25 -70v-304h-152zM-75 765l124 152h174l124 -152h-146l-65 67l-65 -67h-146z" />
    <glyph glyph-name="Hbar" unicode="&#x126;" horiz-adv-x="845" 
d="M110 0v496h-80v115h80v85h162v-85h301v85h162v-85h80v-115h-80v-496h-162v267h-301v-267h-162zM272 407h301v89h-301v-89z" />
    <glyph glyph-name="hbar" unicode="&#x127;" 
d="M76 0v565h-65v92h65v68h152v-68h129v-92h-129v-116c37 45 86 68 147 68c37 0 69 -9 95 -27c28 -18 48 -43 64 -75c14 -32 22 -69 22 -112v-303h-152v283c0 29 -7 53 -21 71c-14 19 -36 28 -65 28c-27 0 -48 -9 -65 -27s-25 -42 -25 -71v-284h-152z" />
    <glyph glyph-name="Itilde" unicode="&#x128;" horiz-adv-x="307" 
d="M235 0h-163v696h163v-696zM233 758c-14 0 -28 2 -43 6c-14 3 -30 10 -47 21c-11 7 -21 12 -27 15c-8 2 -14 3 -21 3c-20 0 -30 -10 -30 -31v-13h-109v40c0 36 11 64 33 85c22 20 50 30 84 30c14 0 28 -2 43 -5s31 -11 48 -22c11 -7 20 -11 28 -14c6 -3 13 -4 19 -4
c20 0 30 10 30 31v13h109v-40c0 -35 -11 -63 -32 -84c-22 -21 -50 -31 -85 -31z" />
    <glyph glyph-name="itilde" unicode="&#x129;" horiz-adv-x="273" 
d="M60 0v521h152v-521h-152zM210 587c-14 0 -26 2 -38 6c-10 4 -24 11 -41 21s-30 15 -39 15c-15 0 -23 -10 -23 -29v-12h-104v42c0 33 8 60 25 80s41 30 72 30c14 0 26 -2 38 -6c10 -4 24 -11 41 -21s30 -15 39 -15c15 0 23 10 23 29v12h104v-42c0 -33 -8 -60 -25 -80
s-41 -30 -72 -30z" />
    <glyph glyph-name="Imacron" unicode="&#x12a;" horiz-adv-x="307" 
d="M235 0h-163v696h163v-696zM-17 899h340v-115h-340v115z" />
    <glyph glyph-name="imacron" unicode="&#x12b;" horiz-adv-x="273" 
d="M60 0v521h152v-521h-152zM-23 730h318v-113h-318v113z" />
    <glyph glyph-name="Ibreve" unicode="&#x12c;" horiz-adv-x="307" 
d="M235 0h-163v696h163v-696zM153 758c-54 0 -98 14 -133 43s-54 67 -57 115h124c3 -16 10 -29 21 -38c11 -10 26 -15 45 -15s34 5 45 15c11 9 18 22 21 38h124c-3 -48 -21 -86 -57 -115c-34 -29 -79 -43 -133 -43z" />
    <glyph glyph-name="ibreve" unicode="&#x12d;" horiz-adv-x="273" 
d="M60 0v521h152v-521h-152zM136 582c-53 0 -94 15 -124 45c-29 30 -45 70 -47 121h119c1 -19 5 -34 14 -44c9 -12 21 -17 38 -17s29 5 38 17c9 10 13 25 14 44h119c-2 -51 -18 -91 -47 -121s-71 -45 -124 -45z" />
    <glyph glyph-name="Iogonek" unicode="&#x12e;" horiz-adv-x="307" 
d="M235 0h-163v696h163v-696zM163 -258c-47 0 -85 11 -113 32c-27 22 -41 50 -41 85c0 72 49 128 146 169l55 -28c-29 -21 -49 -39 -60 -56c-12 -17 -18 -34 -18 -51s6 -31 18 -40c11 -9 26 -14 44 -14h34v-97h-65z" />
    <glyph glyph-name="iogonek" unicode="&#x12f;" horiz-adv-x="273" 
d="M136 572c-25 0 -46 9 -64 26c-17 18 -26 39 -26 64s9 47 26 64c18 17 39 26 64 26s47 -9 64 -26c18 -17 27 -39 27 -64s-9 -46 -27 -64c-17 -17 -39 -26 -64 -26zM60 0v521h152v-521h-152zM146 -258c-47 0 -85 11 -112 32c-27 22 -41 50 -41 85c0 73 48 129 145 169
l56 -28c-29 -21 -50 -39 -61 -56s-17 -34 -17 -51s6 -31 18 -40c11 -9 26 -14 44 -14h34v-97h-66z" />
    <glyph glyph-name="Idotaccent" unicode="&#x130;" horiz-adv-x="307" 
d="M235 0h-163v696h163v-696zM152 754c-24 0 -44 8 -61 26c-17 16 -25 37 -25 61s8 45 25 61c17 18 37 26 61 26c25 0 45 -8 62 -26c17 -16 25 -37 25 -61s-8 -45 -25 -61c-17 -18 -37 -26 -62 -26z" />
    <glyph glyph-name="dotlessi" unicode="&#x131;" horiz-adv-x="273" 
d="M60 0v521h152v-521h-152z" />
    <glyph glyph-name="IJ" unicode="&#x132;" horiz-adv-x="716" 
d="M358 -16c-53 0 -101 10 -144 30s-77 49 -104 86s-42 82 -47 135h164c5 -32 18 -58 41 -77c23 -20 53 -30 90 -30c38 0 70 12 95 36s38 65 38 122v410h162v-421c0 -63 -13 -116 -39 -159c-25 -43 -60 -76 -104 -98c-45 -23 -95 -34 -152 -34zM63 336v360h162v-360h-162z
" />
    <glyph glyph-name="ij" unicode="&#x133;" horiz-adv-x="546" 
d="M136 572c-25 0 -46 9 -64 26c-17 18 -26 39 -26 64s9 47 26 64c18 17 39 26 64 26s47 -9 64 -26c18 -17 27 -39 27 -64s-9 -46 -27 -64c-17 -17 -39 -26 -64 -26zM60 0v521h152v-521h-152zM409 572c-25 0 -46 9 -63 26c-18 18 -27 39 -27 64s9 47 27 64
c17 17 38 26 63 26s47 -9 65 -26c17 -17 26 -39 26 -64s-9 -46 -26 -64c-18 -17 -40 -26 -65 -26zM247 -205v130h30c19 0 33 6 42 17c9 12 14 28 14 49v530h152v-548c0 -57 -15 -101 -44 -131c-29 -32 -71 -47 -125 -47h-69z" />
    <glyph glyph-name="Jcircumflex" unicode="&#x134;" horiz-adv-x="619" 
d="M394 232v464h162v-470c0 -74 -23 -133 -69 -176c-46 -44 -111 -66 -194 -66c-53 0 -100 10 -139 30s-70 48 -92 83c-23 35 -35 76 -38 123h158c5 -29 16 -52 35 -68s44 -24 76 -24c30 0 54 9 73 28c19 18 28 43 28 76zM264 765l124 152h174l124 -152h-146l-65 67l-65 -67
h-146z" />
    <glyph glyph-name="jcircumflex" unicode="&#x135;" horiz-adv-x="273" 
d="M-25 -205v130h30c18 0 32 6 41 17c10 12 15 28 15 49v530h152v-548c0 -57 -15 -101 -44 -131c-29 -32 -71 -47 -125 -47h-69zM-45 590l102 159h158l102 -159h-134l-47 68l-47 -68h-134z" />
    <glyph glyph-name="uni0136" unicode="&#x136;" horiz-adv-x="698" 
d="M72 0v696h163v-270l249 270h192l-309 -332l325 -364h-206l-251 284v-284h-163zM285 -273c13 17 23 33 31 45c8 14 16 28 24 44c-18 3 -33 11 -44 22s-17 26 -17 44c0 20 8 37 23 51c16 14 36 21 60 21c27 0 49 -8 64 -22c16 -16 24 -35 24 -59c0 -23 -5 -47 -16 -69
c-11 -24 -26 -49 -47 -77h-102z" />
    <glyph glyph-name="uni0137" unicode="&#x137;" horiz-adv-x="579" 
d="M60 0v725h152v-405l173 201h179l-215 -245l226 -276h-188l-175 222v-222h-152zM217 -273c13 17 23 33 31 45c8 14 16 28 24 44c-18 3 -33 11 -44 22s-17 26 -17 44c0 20 8 37 23 51c16 14 36 21 60 21c27 0 49 -8 64 -22c16 -16 24 -35 24 -59c0 -23 -5 -47 -16 -69
c-11 -24 -26 -49 -47 -77h-102z" />
    <glyph glyph-name="kgreenlandic" unicode="&#x138;" horiz-adv-x="579" 
d="M60 0v521h152v-210l173 210h179l-215 -254l226 -267h-188l-175 212v-212h-152z" />
    <glyph glyph-name="Lacute" unicode="&#x139;" horiz-adv-x="609" 
d="M574 141v-141h-502v696h163v-555h339zM219 765h-146l88 152h164z" />
    <glyph glyph-name="lacute" unicode="&#x13a;" horiz-adv-x="272" 
d="M60 0v725h152v-725h-152zM202 794h-146l88 152h164z" />
    <glyph glyph-name="uni013B" unicode="&#x13b;" horiz-adv-x="609" 
d="M574 141v-141h-502v696h163v-555h339zM248 -273c13 17 23 33 31 45c8 14 16 28 24 44c-18 3 -33 11 -44 22s-17 26 -17 44c0 20 8 37 24 51c15 14 35 21 59 21c27 0 49 -8 65 -22c15 -16 23 -35 23 -59c0 -23 -5 -47 -16 -69c-11 -24 -26 -49 -47 -77h-102z" />
    <glyph glyph-name="uni013C" unicode="&#x13c;" horiz-adv-x="272" 
d="M60 0v725h152v-725h-152zM58 -273c13 17 23 33 31 45c8 14 16 28 24 44c-18 3 -33 11 -44 22s-17 26 -17 44c0 20 8 37 24 51c15 14 35 21 59 21c27 0 49 -8 65 -22c15 -16 23 -35 23 -59c0 -23 -5 -47 -16 -69c-11 -24 -26 -49 -47 -77h-102z" />
    <glyph glyph-name="Lcaron" unicode="&#x13d;" horiz-adv-x="609" 
d="M574 141v-141h-502v696h163v-555h339zM328 457l2 239h135l-25 -239h-112z" />
    <glyph glyph-name="lcaron" unicode="&#x13e;" horiz-adv-x="410" 
d="M60 0v725h152v-725h-152zM278 486l2 239h135l-25 -239h-112z" />
    <glyph glyph-name="Ldot" unicode="&#x13f;" horiz-adv-x="609" 
d="M574 141v-141h-502v696h163v-555h339zM451 271c-27 0 -49 9 -68 28s-28 41 -28 67c0 27 9 49 28 68s41 28 68 28s49 -9 68 -28s28 -41 28 -68c0 -26 -9 -48 -28 -67s-41 -28 -68 -28z" />
    <glyph glyph-name="ldot" unicode="&#x140;" horiz-adv-x="470" 
d="M60 0v725h152v-725h-152zM368 271c-27 0 -49 9 -68 28s-28 41 -28 67c0 27 9 49 28 68s41 28 68 28s49 -9 68 -28s28 -41 28 -68c0 -26 -9 -48 -28 -67s-41 -28 -68 -28z" />
    <glyph glyph-name="Lslash" unicode="&#x141;" horiz-adv-x="639" 
d="M103 0v281l-88 -48v123l88 48v292h162v-205l145 79v-123l-145 -79v-227h339v-141h-501z" />
    <glyph glyph-name="lslash" unicode="&#x142;" horiz-adv-x="321" 
d="M85 0v285l-78 -49v106l78 49v334h152v-238l77 48v-106l-77 -48v-381h-152z" />
    <glyph glyph-name="Nacute" unicode="&#x143;" horiz-adv-x="768" 
d="M72 0v696h157l311 -448v448h156v-696h-156l-312 449v-449h-156zM450 765h-146l88 152h164z" />
    <glyph glyph-name="nacute" unicode="&#x144;" horiz-adv-x="596" 
d="M212 304v-304h-152v521h145v-58c38 49 89 73 154 73c55 0 99 -20 132 -58c33 -40 49 -91 49 -156v-322h-152v302c0 30 -7 54 -21 72s-36 27 -65 27c-27 0 -48 -9 -65 -27c-17 -17 -25 -41 -25 -70zM363 590h-140l76 159h158z" />
    <glyph glyph-name="uni0145" unicode="&#x145;" horiz-adv-x="768" 
d="M72 0v696h157l311 -448v448h156v-696h-156l-312 449v-449h-156zM306 -273c13 17 23 33 31 45c8 14 16 28 24 44c-18 3 -33 11 -44 22s-17 26 -17 44c0 20 8 37 24 51c15 14 35 21 59 21c27 0 49 -8 65 -22c15 -16 23 -35 23 -59c0 -23 -5 -47 -16 -69
c-11 -24 -26 -49 -47 -77h-102z" />
    <glyph glyph-name="uni0146" unicode="&#x146;" horiz-adv-x="596" 
d="M212 304v-304h-152v521h145v-58c38 49 89 73 154 73c55 0 99 -20 132 -58c33 -40 49 -91 49 -156v-322h-152v302c0 30 -7 54 -21 72s-36 27 -65 27c-27 0 -48 -9 -65 -27c-17 -17 -25 -41 -25 -70zM222 -273c13 17 23 33 31 45c8 14 16 28 24 44c-18 3 -33 11 -44 22
s-17 26 -17 44c0 20 8 37 24 51c15 14 35 21 59 21c27 0 49 -8 65 -22c15 -16 23 -35 23 -59c0 -23 -5 -47 -16 -69c-11 -24 -26 -49 -47 -77h-102z" />
    <glyph glyph-name="Ncaron" unicode="&#x147;" horiz-adv-x="768" 
d="M72 0v696h157l311 -448v448h156v-696h-156l-312 449v-449h-156zM297 765l-124 152h146l65 -67l65 67h146l-124 -152h-174z" />
    <glyph glyph-name="ncaron" unicode="&#x148;" horiz-adv-x="596" 
d="M212 304v-304h-152v521h145v-58c38 49 89 73 154 73c55 0 99 -20 132 -58c33 -40 49 -91 49 -156v-322h-152v302c0 30 -7 54 -21 72s-36 27 -65 27c-27 0 -48 -9 -65 -27c-17 -17 -25 -41 -25 -70zM218 590l-124 159h142l64 -73l64 73h142l-124 -159h-164z" />
    <glyph glyph-name="napostrophe" unicode="&#x149;" horiz-adv-x="800" 
d="M30 403c22 35 39 64 52 87c13 24 21 45 26 64c-19 5 -35 14 -47 29s-18 32 -18 52c0 23 9 44 25 63c18 18 40 27 68 27c29 0 53 -9 72 -27c18 -19 27 -45 27 -78c0 -32 -6 -64 -19 -96c-12 -32 -34 -72 -65 -121h-121zM416 304v-304h-152v521h145v-58c38 49 89 73 154 73
c55 0 99 -20 132 -58c33 -40 49 -91 49 -156v-322h-152v302c0 30 -7 54 -21 72s-36 27 -65 27c-27 0 -48 -9 -65 -27c-17 -17 -25 -41 -25 -70z" />
    <glyph glyph-name="Eng" unicode="&#x14a;" horiz-adv-x="760" 
d="M72 0v696h157v-94c25 35 55 62 92 82c37 18 77 28 122 28c51 0 96 -13 134 -38s67 -60 89 -104c20 -43 31 -93 31 -150v-233c0 -64 -15 -112 -45 -143c-29 -32 -72 -48 -127 -48h-77v134h32c36 0 54 22 54 67v201c0 53 -12 95 -36 125c-23 30 -59 45 -106 45
c-45 0 -82 -14 -112 -43s-45 -71 -45 -128v-397h-163z" />
    <glyph glyph-name="eng" unicode="&#x14b;" horiz-adv-x="596" 
d="M303 -205v130h30c18 0 32 6 41 17c9 12 14 28 14 49v311c0 30 -7 54 -21 72s-36 27 -65 27c-27 0 -48 -9 -65 -27c-17 -17 -25 -41 -25 -70v-304h-152v521h145v-58c38 49 89 73 154 73c55 0 99 -20 132 -58c33 -40 49 -91 49 -156v-349c0 -57 -15 -101 -44 -131
c-29 -32 -71 -47 -125 -47h-68z" />
    <glyph glyph-name="Omacron" unicode="&#x14c;" horiz-adv-x="790" 
d="M394 -16c-52 0 -100 9 -144 27c-43 18 -81 43 -112 76c-32 33 -57 71 -74 115c-18 45 -27 93 -27 146s9 101 27 146c17 44 42 82 74 115c31 33 69 58 112 76c44 18 92 27 144 27c53 0 101 -9 144 -27c44 -18 82 -43 114 -76s57 -71 74 -115c18 -45 27 -93 27 -146
s-9 -101 -27 -146c-17 -44 -42 -82 -74 -115s-70 -58 -114 -76c-43 -18 -91 -27 -144 -27zM394 128c38 0 72 9 101 28c29 18 52 44 69 77c16 33 24 72 24 115c0 44 -8 82 -24 116c-17 32 -40 58 -69 76c-29 19 -63 28 -101 28c-37 0 -70 -9 -100 -28
c-28 -18 -51 -44 -68 -76c-16 -34 -24 -72 -24 -116c0 -43 8 -82 24 -115c17 -33 40 -59 68 -77c30 -19 63 -28 100 -28zM224 899h340v-115h-340v115z" />
    <glyph glyph-name="omacron" unicode="&#x14d;" horiz-adv-x="597" 
d="M298 -15c-52 0 -98 12 -138 35s-71 56 -94 98c-23 41 -34 89 -34 143s11 102 34 143s54 74 94 97s86 35 138 35c53 0 99 -12 139 -35s71 -56 94 -97s34 -89 34 -143s-11 -102 -34 -143c-23 -42 -54 -75 -94 -98s-86 -35 -139 -35zM298 118c33 0 60 13 82 38
c20 26 31 61 31 105s-11 79 -31 104c-22 25 -49 38 -82 38s-60 -13 -80 -38c-22 -25 -32 -60 -32 -104s10 -79 32 -105c20 -25 47 -38 80 -38zM134 730h328v-113h-328v113z" />
    <glyph glyph-name="Obreve" unicode="&#x14e;" horiz-adv-x="790" 
d="M394 -16c-52 0 -100 9 -144 27c-43 18 -81 43 -112 76c-32 33 -57 71 -74 115c-18 45 -27 93 -27 146s9 101 27 146c17 44 42 82 74 115c31 33 69 58 112 76c44 18 92 27 144 27c53 0 101 -9 144 -27c44 -18 82 -43 114 -76s57 -71 74 -115c18 -45 27 -93 27 -146
s-9 -101 -27 -146c-17 -44 -42 -82 -74 -115s-70 -58 -114 -76c-43 -18 -91 -27 -144 -27zM394 128c38 0 72 9 101 28c29 18 52 44 69 77c16 33 24 72 24 115c0 44 -8 82 -24 116c-17 32 -40 58 -69 76c-29 19 -63 28 -101 28c-37 0 -70 -9 -100 -28
c-28 -18 -51 -44 -68 -76c-16 -34 -24 -72 -24 -116c0 -43 8 -82 24 -115c17 -33 40 -59 68 -77c30 -19 63 -28 100 -28zM394 758c-54 0 -98 14 -133 43s-54 67 -57 115h124c3 -16 10 -29 21 -38c11 -10 26 -15 45 -15s34 5 45 15c11 9 18 22 21 38h124
c-3 -48 -22 -86 -56 -115c-36 -29 -80 -43 -134 -43z" />
    <glyph glyph-name="obreve" unicode="&#x14f;" horiz-adv-x="597" 
d="M298 -15c-52 0 -98 12 -138 35s-71 56 -94 98c-23 41 -34 89 -34 143s11 102 34 143s54 74 94 97s86 35 138 35c53 0 99 -12 139 -35s71 -56 94 -97s34 -89 34 -143s-11 -102 -34 -143c-23 -42 -54 -75 -94 -98s-86 -35 -139 -35zM298 118c33 0 60 13 82 38
c20 26 31 61 31 105s-11 79 -31 104c-22 25 -49 38 -82 38s-60 -13 -80 -38c-22 -25 -32 -60 -32 -104s10 -79 32 -105c20 -25 47 -38 80 -38zM298 582c-53 0 -96 15 -130 45c-33 30 -51 70 -54 121h119c3 -19 10 -34 21 -44c11 -12 26 -17 44 -17s33 5 44 17
c11 10 18 25 21 44h119c-3 -51 -21 -91 -54 -121s-77 -45 -130 -45z" />
    <glyph glyph-name="Ohungarumlaut" unicode="&#x150;" horiz-adv-x="790" 
d="M394 -16c-52 0 -100 9 -144 27c-43 18 -81 43 -112 76c-32 33 -57 71 -74 115c-18 45 -27 93 -27 146s9 101 27 146c17 44 42 82 74 115c31 33 69 58 112 76c44 18 92 27 144 27c53 0 101 -9 144 -27c44 -18 82 -43 114 -76s57 -71 74 -115c18 -45 27 -93 27 -146
s-9 -101 -27 -146c-17 -44 -42 -82 -74 -115s-70 -58 -114 -76c-43 -18 -91 -27 -144 -27zM394 128c38 0 72 9 101 28c29 18 52 44 69 77c16 33 24 72 24 115c0 44 -8 82 -24 116c-17 32 -40 58 -69 76c-29 19 -63 28 -101 28c-37 0 -70 -9 -100 -28
c-28 -18 -51 -44 -68 -76c-16 -34 -24 -72 -24 -116c0 -43 8 -82 24 -115c17 -33 40 -59 68 -77c30 -19 63 -28 100 -28zM353 765h-137l83 152h155zM572 765h-138l93 152h155z" />
    <glyph glyph-name="ohungarumlaut" unicode="&#x151;" horiz-adv-x="597" 
d="M298 -15c-52 0 -98 12 -138 35s-71 56 -94 98c-23 41 -34 89 -34 143s11 102 34 143s54 74 94 97s86 35 138 35c53 0 99 -12 139 -35s71 -56 94 -97s34 -89 34 -143s-11 -102 -34 -143c-23 -42 -54 -75 -94 -98s-86 -35 -139 -35zM298 118c33 0 60 13 82 38
c20 26 31 61 31 105s-11 79 -31 104c-22 25 -49 38 -82 38s-60 -13 -80 -38c-22 -25 -32 -60 -32 -104s10 -79 32 -105c20 -25 47 -38 80 -38zM338 590l86 159h149l-102 -159h-133zM124 590l76 159h150l-93 -159h-133z" />
    <glyph glyph-name="OE" unicode="&#x152;" horiz-adv-x="1156" 
d="M373 -16c-47 0 -90 9 -131 27s-76 43 -107 76s-55 71 -72 115c-17 45 -26 93 -26 146s9 101 26 146c17 44 41 82 72 115s66 58 107 76s84 27 131 27c51 0 94 -8 128 -24s62 -39 85 -69v77h513v-140h-353v-134h340v-140h-340v-142h358v-140h-518v77
c-25 -31 -54 -54 -86 -69c-34 -16 -76 -24 -127 -24zM394 128c38 0 72 9 100 28c30 18 52 44 68 77c17 33 25 72 25 115c0 44 -8 82 -25 116c-16 32 -38 58 -68 76c-28 19 -62 28 -100 28c-37 0 -70 -9 -100 -28c-28 -18 -51 -44 -68 -76c-16 -34 -24 -72 -24 -116
c0 -43 8 -82 24 -115c17 -33 40 -59 68 -77c30 -19 63 -28 100 -28z" />
    <glyph glyph-name="oe" unicode="&#x153;" horiz-adv-x="951" 
d="M295 -15c-51 0 -96 12 -135 35c-40 24 -71 57 -94 98s-34 89 -34 143s11 102 34 143s54 74 94 97c39 23 84 35 135 35c41 0 79 -9 113 -27c33 -18 59 -42 78 -73c19 31 45 55 78 73s69 27 110 27c78 0 138 -25 180 -74c42 -50 63 -117 63 -202v-47h-352
c11 -73 49 -109 112 -109c21 0 39 3 52 10s23 15 28 24h152c-13 -47 -39 -84 -80 -112c-41 -27 -91 -41 -152 -41c-41 0 -79 9 -111 27c-34 17 -60 43 -80 76c-19 -33 -45 -58 -78 -76c-34 -18 -72 -27 -113 -27zM673 417c-61 0 -97 -34 -108 -103h205c-1 31 -9 56 -26 74
c-16 20 -40 29 -71 29zM298 118c33 0 60 13 82 38c20 26 31 61 31 105s-11 79 -31 104c-22 25 -49 38 -82 38s-60 -13 -80 -38c-22 -25 -32 -60 -32 -104s10 -79 32 -105c20 -25 47 -38 80 -38z" />
    <glyph glyph-name="Racute" unicode="&#x154;" horiz-adv-x="691" 
d="M72 0v696h297c56 0 104 -10 145 -29s72 -46 94 -81s33 -76 33 -123c0 -49 -12 -91 -35 -126c-24 -35 -56 -62 -97 -81l170 -256h-185l-146 228h-113v-228h-163zM235 366h111c45 0 78 8 99 25s31 41 31 74c0 32 -10 55 -31 71c-21 14 -54 22 -99 22h-111v-192zM404 765
h-146l88 152h164z" />
    <glyph glyph-name="racute" unicode="&#x155;" horiz-adv-x="397" 
d="M212 253v-253h-152v521h145v-84c16 28 36 50 61 65c24 15 52 23 83 23h23v-142h-28c-39 0 -70 -12 -95 -35s-37 -55 -37 -95zM279 590h-140l76 159h158z" />
    <glyph glyph-name="uni0156" unicode="&#x156;" horiz-adv-x="691" 
d="M72 0v696h297c56 0 104 -10 145 -29s72 -46 94 -81s33 -76 33 -123c0 -49 -12 -91 -35 -126c-24 -35 -56 -62 -97 -81l170 -256h-185l-146 228h-113v-228h-163zM235 366h111c45 0 78 8 99 25s31 41 31 74c0 32 -10 55 -31 71c-21 14 -54 22 -99 22h-111v-192zM280 -273
c13 17 23 33 31 45c8 14 16 28 24 44c-18 3 -33 11 -44 22s-17 26 -17 44c0 20 8 37 24 51c15 14 35 21 59 21c27 0 49 -8 65 -22c15 -16 23 -35 23 -59c0 -23 -5 -47 -16 -69c-11 -24 -26 -49 -47 -77h-102z" />
    <glyph glyph-name="uni0157" unicode="&#x157;" horiz-adv-x="397" 
d="M212 253v-253h-152v521h145v-84c16 28 36 50 61 65c24 15 52 23 83 23h23v-142h-28c-39 0 -70 -12 -95 -35s-37 -55 -37 -95zM58 -273c13 17 23 33 31 45c8 14 16 28 24 44c-18 3 -33 11 -44 22s-17 26 -17 44c0 20 8 37 24 51c15 14 35 21 59 21c27 0 49 -8 65 -22
c15 -16 23 -35 23 -59c0 -23 -5 -47 -16 -69c-11 -24 -26 -49 -47 -77h-102z" />
    <glyph glyph-name="Rcaron" unicode="&#x158;" horiz-adv-x="691" 
d="M72 0v696h297c56 0 104 -10 145 -29s72 -46 94 -81s33 -76 33 -123c0 -49 -12 -91 -35 -126c-24 -35 -56 -62 -97 -81l170 -256h-185l-146 228h-113v-228h-163zM235 366h111c45 0 78 8 99 25s31 41 31 74c0 32 -10 55 -31 71c-21 14 -54 22 -99 22h-111v-192zM251 765
l-124 152h146l65 -67l65 67h146l-124 -152h-174z" />
    <glyph glyph-name="rcaron" unicode="&#x159;" horiz-adv-x="397" 
d="M212 253v-253h-152v521h145v-84c16 28 36 50 61 65c24 15 52 23 83 23h23v-142h-28c-39 0 -70 -12 -95 -35s-37 -55 -37 -95zM134 590l-124 159h142l64 -73l64 73h142l-124 -159h-164z" />
    <glyph glyph-name="Sacute" unicode="&#x15a;" horiz-adv-x="641" 
d="M326 -16c-85 0 -154 20 -204 58c-52 40 -85 93 -100 162h161c7 -24 23 -44 49 -59c24 -15 55 -23 92 -23c35 0 63 6 84 19s32 30 32 53c0 14 -3 26 -10 36c-6 10 -18 19 -36 26c-19 8 -46 15 -83 21l-74 13c-64 11 -112 33 -145 64c-32 31 -48 76 -48 135
c0 46 12 86 36 119s57 59 98 77s87 27 138 27c77 0 140 -18 190 -54s80 -88 91 -155h-161c-6 23 -19 40 -38 53c-20 12 -47 18 -80 18c-35 0 -62 -6 -82 -19c-19 -13 -29 -30 -29 -51c0 -19 8 -35 24 -46s48 -21 96 -30l73 -12c136 -23 204 -92 204 -205
c0 -49 -12 -90 -36 -124c-23 -34 -56 -60 -98 -77c-41 -17 -89 -26 -144 -26zM382 765h-146l88 152h164z" />
    <glyph glyph-name="sacute" unicode="&#x15b;" horiz-adv-x="510" 
d="M263 -15c-67 0 -121 15 -163 46c-41 31 -65 71 -70 122h144c3 -13 12 -24 28 -34c15 -10 34 -15 57 -15s40 4 53 13s19 19 19 32s-5 23 -15 31c-11 7 -30 13 -57 17l-73 10c-51 7 -88 24 -112 51s-36 61 -36 103c0 35 10 66 28 93c20 26 45 46 78 60c32 15 68 22 108 22
c45 0 83 -8 114 -23s56 -35 74 -60s29 -51 32 -80h-142c-3 13 -12 24 -25 32s-30 12 -51 12s-37 -5 -50 -13c-12 -10 -18 -21 -18 -34c0 -12 5 -21 16 -28c11 -6 28 -11 53 -14l72 -10c51 -7 90 -25 115 -55s38 -66 38 -107c0 -35 -10 -66 -28 -92c-20 -25 -45 -45 -78 -58
c-33 -14 -70 -21 -111 -21zM315 590h-140l76 159h158z" />
    <glyph glyph-name="Scircumflex" unicode="&#x15c;" horiz-adv-x="641" 
d="M326 -16c-85 0 -154 20 -204 58c-52 40 -85 93 -100 162h161c7 -24 23 -44 49 -59c24 -15 55 -23 92 -23c35 0 63 6 84 19s32 30 32 53c0 14 -3 26 -10 36c-6 10 -18 19 -36 26c-19 8 -46 15 -83 21l-74 13c-64 11 -112 33 -145 64c-32 31 -48 76 -48 135
c0 46 12 86 36 119s57 59 98 77s87 27 138 27c77 0 140 -18 190 -54s80 -88 91 -155h-161c-6 23 -19 40 -38 53c-20 12 -47 18 -80 18c-35 0 -62 -6 -82 -19c-19 -13 -29 -30 -29 -51c0 -19 8 -35 24 -46s48 -21 96 -30l73 -12c136 -23 204 -92 204 -205
c0 -49 -12 -90 -36 -124c-23 -34 -56 -60 -98 -77c-41 -17 -89 -26 -144 -26zM105 765l124 152h174l124 -152h-146l-65 67l-65 -67h-146z" />
    <glyph glyph-name="scircumflex" unicode="&#x15d;" horiz-adv-x="510" 
d="M263 -15c-67 0 -121 15 -163 46c-41 31 -65 71 -70 122h144c3 -13 12 -24 28 -34c15 -10 34 -15 57 -15s40 4 53 13s19 19 19 32s-5 23 -15 31c-11 7 -30 13 -57 17l-73 10c-51 7 -88 24 -112 51s-36 61 -36 103c0 35 10 66 28 93c20 26 45 46 78 60c32 15 68 22 108 22
c45 0 83 -8 114 -23s56 -35 74 -60s29 -51 32 -80h-142c-3 13 -12 24 -25 32s-30 12 -51 12s-37 -5 -50 -13c-12 -10 -18 -21 -18 -34c0 -12 5 -21 16 -28c11 -6 28 -11 53 -14l72 -10c51 -7 90 -25 115 -55s38 -66 38 -107c0 -35 -10 -66 -28 -92c-20 -25 -45 -45 -78 -58
c-33 -14 -70 -21 -111 -21zM46 590l124 159h164l124 -159h-142l-64 73l-64 -73h-142z" />
    <glyph glyph-name="Scedilla" unicode="&#x15e;" horiz-adv-x="641" 
d="M326 -16c-85 0 -154 20 -204 58c-52 40 -85 93 -100 162h161c7 -24 23 -44 49 -59c24 -15 55 -23 92 -23c35 0 63 6 84 19s32 30 32 53c0 14 -3 26 -10 36c-6 10 -18 19 -36 26c-19 8 -46 15 -83 21l-74 13c-64 11 -112 33 -145 64c-32 31 -48 76 -48 135
c0 46 12 86 36 119s57 59 98 77s87 27 138 27c77 0 140 -18 190 -54s80 -88 91 -155h-161c-6 23 -19 40 -38 53c-20 12 -47 18 -80 18c-35 0 -62 -6 -82 -19c-19 -13 -29 -30 -29 -51c0 -19 8 -35 24 -46s48 -21 96 -30l73 -12c136 -23 204 -92 204 -205
c0 -49 -12 -90 -36 -124c-23 -34 -56 -60 -98 -77c-41 -17 -89 -26 -144 -26zM232 -261v84h59c29 0 44 11 44 32c0 19 -13 29 -40 29h-49l46 153h87l-29 -85c27 -1 50 -11 70 -30c18 -19 28 -43 28 -71c0 -35 -11 -62 -34 -82c-22 -20 -53 -30 -93 -30h-89z" />
    <glyph glyph-name="scedilla" unicode="&#x15f;" horiz-adv-x="510" 
d="M263 -15c-67 0 -121 15 -163 46c-41 31 -65 71 -70 122h144c3 -13 12 -24 28 -34c15 -10 34 -15 57 -15s40 4 53 13s19 19 19 32s-5 23 -15 31c-11 7 -30 13 -57 17l-73 10c-51 7 -88 24 -112 51s-36 61 -36 103c0 35 10 66 28 93c20 26 45 46 78 60c32 15 68 22 108 22
c45 0 83 -8 114 -23s56 -35 74 -60s29 -51 32 -80h-142c-3 13 -12 24 -25 32s-30 12 -51 12s-37 -5 -50 -13c-12 -10 -18 -21 -18 -34c0 -12 5 -21 16 -28c11 -6 28 -11 53 -14l72 -10c51 -7 90 -25 115 -55s38 -66 38 -107c0 -35 -10 -66 -28 -92c-20 -25 -45 -45 -78 -58
c-33 -14 -70 -21 -111 -21zM173 -261v84h59c30 0 45 11 45 32c0 19 -13 29 -40 29h-50l47 155h87l-30 -87c27 -1 51 -11 70 -30s29 -43 29 -71c0 -35 -11 -62 -34 -82c-22 -20 -53 -30 -93 -30h-90z" />
    <glyph glyph-name="Scaron" unicode="&#x160;" horiz-adv-x="641" 
d="M326 -16c-85 0 -154 20 -204 58c-52 40 -85 93 -100 162h161c7 -24 23 -44 49 -59c24 -15 55 -23 92 -23c35 0 63 6 84 19s32 30 32 53c0 14 -3 26 -10 36c-6 10 -18 19 -36 26c-19 8 -46 15 -83 21l-74 13c-64 11 -112 33 -145 64c-32 31 -48 76 -48 135
c0 46 12 86 36 119s57 59 98 77s87 27 138 27c77 0 140 -18 190 -54s80 -88 91 -155h-161c-6 23 -19 40 -38 53c-20 12 -47 18 -80 18c-35 0 -62 -6 -82 -19c-19 -13 -29 -30 -29 -51c0 -19 8 -35 24 -46s48 -21 96 -30l73 -12c136 -23 204 -92 204 -205
c0 -49 -12 -90 -36 -124c-23 -34 -56 -60 -98 -77c-41 -17 -89 -26 -144 -26zM229 765l-124 152h146l65 -67l65 67h146l-124 -152h-174z" />
    <glyph glyph-name="scaron" unicode="&#x161;" horiz-adv-x="510" 
d="M263 -15c-67 0 -121 15 -163 46c-41 31 -65 71 -70 122h144c3 -13 12 -24 28 -34c15 -10 34 -15 57 -15s40 4 53 13s19 19 19 32s-5 23 -15 31c-11 7 -30 13 -57 17l-73 10c-51 7 -88 24 -112 51s-36 61 -36 103c0 35 10 66 28 93c20 26 45 46 78 60c32 15 68 22 108 22
c45 0 83 -8 114 -23s56 -35 74 -60s29 -51 32 -80h-142c-3 13 -12 24 -25 32s-30 12 -51 12s-37 -5 -50 -13c-12 -10 -18 -21 -18 -34c0 -12 5 -21 16 -28c11 -6 28 -11 53 -14l72 -10c51 -7 90 -25 115 -55s38 -66 38 -107c0 -35 -10 -66 -28 -92c-20 -25 -45 -45 -78 -58
c-33 -14 -70 -21 -111 -21zM170 590l-124 159h142l64 -73l64 73h142l-124 -159h-164z" />
    <glyph glyph-name="uni0162" unicode="&#x162;" horiz-adv-x="677" 
d="M420 0h-163v555h-221v141h605v-141h-221v-555zM244 -261v84h59c29 0 44 11 44 32c0 19 -13 29 -40 29h-49l46 153h87l-29 -85c27 -1 50 -11 70 -30c18 -19 28 -43 28 -71c0 -35 -11 -62 -34 -82c-22 -20 -53 -30 -93 -30h-89z" />
    <glyph glyph-name="uni0163" unicode="&#x163;" horiz-adv-x="378" 
d="M267 -4c-54 0 -96 15 -125 44c-30 29 -45 72 -45 129v222h-80v130h80v152c25 1 51 4 77 8c25 4 50 9 75 16v-176h95v-130h-95v-205c0 -20 5 -35 15 -46c10 -10 24 -15 41 -15h39v-129h-77zM129 -261v84h59c30 0 45 11 45 32c0 19 -13 29 -40 29h-50l47 155h87l-30 -87
c27 -1 51 -11 70 -30s29 -43 29 -71c0 -35 -11 -62 -34 -82c-22 -20 -53 -30 -93 -30h-90z" />
    <glyph glyph-name="Tcaron" unicode="&#x164;" horiz-adv-x="677" 
d="M420 0h-163v555h-221v141h605v-141h-221v-555zM251 765l-124 152h146l65 -67l65 67h146l-124 -152h-174z" />
    <glyph glyph-name="tcaron" unicode="&#x165;" horiz-adv-x="427" 
d="M267 -4c-54 0 -96 15 -125 44c-30 29 -45 72 -45 129v222h-80v130h80v152c25 1 51 4 77 8c25 4 50 9 75 16v-176h95v-130h-95v-205c0 -20 5 -35 15 -46c10 -10 24 -15 41 -15h39v-129h-77zM310 574l2 167h135l-25 -167h-112z" />
    <glyph glyph-name="Tbar" unicode="&#x166;" horiz-adv-x="677" 
d="M257 0v246h-142v121h142v188h-221v141h605v-141h-221v-188h142v-121h-142v-246h-163z" />
    <glyph glyph-name="tbar" unicode="&#x167;" horiz-adv-x="378" 
d="M17 217v108h80v69h-80v127h80v152c25 1 51 4 77 8c25 4 50 9 75 16v-176h95v-127h-95v-69h95v-108h-95v-31c0 -20 5 -35 15 -46c10 -10 24 -15 41 -15h39v-129h-77c-54 0 -96 15 -125 44c-30 29 -45 72 -45 129v48h-80z" />
    <glyph glyph-name="Utilde" unicode="&#x168;" horiz-adv-x="746" 
d="M372 -16c-67 0 -123 13 -169 39s-81 63 -105 111c-23 47 -35 103 -35 168v394h162v-374c0 -59 11 -106 34 -142c23 -34 60 -52 113 -52c54 0 92 18 114 52c23 36 34 83 34 142v374h163v-394c0 -65 -12 -121 -35 -168c-24 -48 -59 -85 -105 -111s-103 -39 -171 -39z
M453 758c-14 0 -28 2 -43 6c-14 3 -30 10 -47 21c-11 7 -21 12 -27 15c-8 2 -14 3 -21 3c-20 0 -30 -10 -30 -31v-13h-109v40c0 36 11 64 33 85c22 20 50 30 84 30c14 0 28 -2 43 -5s31 -11 48 -22c11 -7 20 -11 28 -14c6 -3 13 -4 19 -4c20 0 30 10 30 31v13h109v-40
c0 -35 -11 -63 -32 -84c-22 -21 -50 -31 -85 -31z" />
    <glyph glyph-name="utilde" unicode="&#x169;" horiz-adv-x="590" 
d="M378 216v305h152v-521h-145v56c-16 -23 -36 -40 -60 -52c-24 -13 -51 -19 -81 -19c-61 0 -107 20 -140 60c-32 40 -48 91 -48 154v322h152v-305c0 -29 7 -52 21 -70c14 -17 35 -26 63 -26c27 0 48 9 64 26c14 18 22 41 22 70zM370 587c-14 0 -28 2 -42 7
c-13 5 -30 13 -50 26c-9 6 -17 10 -23 12s-12 3 -17 3c-19 0 -28 -10 -28 -31v-16h-106v42c0 35 10 63 31 84s48 31 81 31c14 0 28 -2 42 -7c13 -4 30 -13 50 -26c9 -6 17 -10 23 -12s12 -3 17 -3c19 0 28 10 28 31v16h106v-42c0 -36 -10 -64 -31 -84
c-21 -21 -48 -31 -81 -31z" />
    <glyph glyph-name="Umacron" unicode="&#x16a;" horiz-adv-x="746" 
d="M372 -16c-67 0 -123 13 -169 39s-81 63 -105 111c-23 47 -35 103 -35 168v394h162v-374c0 -59 11 -106 34 -142c23 -34 60 -52 113 -52c54 0 92 18 114 52c23 36 34 83 34 142v374h163v-394c0 -65 -12 -121 -35 -168c-24 -48 -59 -85 -105 -111s-103 -39 -171 -39z
M203 899h340v-115h-340v115z" />
    <glyph glyph-name="umacron" unicode="&#x16b;" horiz-adv-x="590" 
d="M378 216v305h152v-521h-145v56c-16 -23 -36 -40 -60 -52c-24 -13 -51 -19 -81 -19c-61 0 -107 20 -140 60c-32 40 -48 91 -48 154v322h152v-305c0 -29 7 -52 21 -70c14 -17 35 -26 63 -26c27 0 48 9 64 26c14 18 22 41 22 70zM129 730h328v-113h-328v113z" />
    <glyph glyph-name="Ubreve" unicode="&#x16c;" horiz-adv-x="746" 
d="M372 -16c-67 0 -123 13 -169 39s-81 63 -105 111c-23 47 -35 103 -35 168v394h162v-374c0 -59 11 -106 34 -142c23 -34 60 -52 113 -52c54 0 92 18 114 52c23 36 34 83 34 142v374h163v-394c0 -65 -12 -121 -35 -168c-24 -48 -59 -85 -105 -111s-103 -39 -171 -39z
M373 758c-54 0 -98 14 -133 43s-54 67 -57 115h124c3 -16 10 -29 21 -38c11 -10 26 -15 45 -15s34 5 45 15c11 9 18 22 21 38h124c-3 -48 -21 -86 -57 -115c-34 -29 -79 -43 -133 -43z" />
    <glyph glyph-name="ubreve" unicode="&#x16d;" horiz-adv-x="590" 
d="M378 216v305h152v-521h-145v56c-16 -23 -36 -40 -60 -52c-24 -13 -51 -19 -81 -19c-61 0 -107 20 -140 60c-32 40 -48 91 -48 154v322h152v-305c0 -29 7 -52 21 -70c14 -17 35 -26 63 -26c27 0 48 9 64 26c14 18 22 41 22 70zM293 582c-53 0 -96 15 -129 45
c-34 30 -52 70 -55 121h119c3 -19 10 -34 21 -44c11 -12 26 -17 44 -17s33 5 44 17c11 10 18 25 21 44h119c-3 -51 -21 -91 -54 -121s-77 -45 -130 -45z" />
    <glyph glyph-name="Uring" unicode="&#x16e;" horiz-adv-x="746" 
d="M372 -16c-67 0 -123 13 -169 39s-81 63 -105 111c-23 47 -35 103 -35 168v394h162v-374c0 -59 11 -106 34 -142c23 -34 60 -52 113 -52c54 0 92 18 114 52c23 36 34 83 34 142v374h163v-394c0 -65 -12 -121 -35 -168c-24 -48 -59 -85 -105 -111s-103 -39 -171 -39z
M373 733c-24 0 -46 6 -66 17c-20 12 -36 28 -48 48s-18 42 -18 66c0 25 6 47 18 66c12 20 28 36 48 48c20 11 42 17 66 17c25 0 47 -6 67 -17c19 -12 35 -28 47 -48c12 -19 18 -41 18 -66c0 -24 -6 -46 -18 -66s-28 -36 -47 -48c-20 -11 -42 -17 -67 -17zM373 812
c15 0 27 5 37 15s15 22 15 37s-5 28 -15 38c-10 9 -22 14 -37 14s-27 -5 -37 -14c-10 -10 -15 -23 -15 -38s5 -27 15 -37s22 -15 37 -15z" />
    <glyph glyph-name="uring" unicode="&#x16f;" horiz-adv-x="590" 
d="M378 216v305h152v-521h-145v56c-16 -23 -36 -40 -60 -52c-24 -13 -51 -19 -81 -19c-61 0 -107 20 -140 60c-32 40 -48 91 -48 154v322h152v-305c0 -29 7 -52 21 -70c14 -17 35 -26 63 -26c27 0 48 9 64 26c14 18 22 41 22 70zM293 566c-24 0 -46 6 -66 18
c-20 11 -36 27 -48 46c-12 20 -18 42 -18 66c0 25 6 47 18 66c12 20 28 36 48 48c20 11 42 17 66 17c25 0 47 -6 67 -17c19 -12 35 -28 47 -48c12 -19 18 -41 18 -66c0 -24 -6 -46 -18 -66c-12 -19 -28 -35 -47 -46c-20 -12 -42 -18 -67 -18zM293 644c15 0 27 5 37 15
s15 22 15 37s-5 28 -15 38c-10 9 -22 14 -37 14s-27 -5 -37 -14c-10 -10 -15 -23 -15 -38s5 -27 15 -37s22 -15 37 -15z" />
    <glyph glyph-name="Uhungarumlaut" unicode="&#x170;" horiz-adv-x="746" 
d="M372 -16c-67 0 -123 13 -169 39s-81 63 -105 111c-23 47 -35 103 -35 168v394h162v-374c0 -59 11 -106 34 -142c23 -34 60 -52 113 -52c54 0 92 18 114 52c23 36 34 83 34 142v374h163v-394c0 -65 -12 -121 -35 -168c-24 -48 -59 -85 -105 -111s-103 -39 -171 -39z
M332 765h-137l83 152h155zM551 765h-138l93 152h155z" />
    <glyph glyph-name="uhungarumlaut" unicode="&#x171;" horiz-adv-x="590" 
d="M378 216v305h152v-521h-145v56c-16 -23 -36 -40 -60 -52c-24 -13 -51 -19 -81 -19c-61 0 -107 20 -140 60c-32 40 -48 91 -48 154v322h152v-305c0 -29 7 -52 21 -70c14 -17 35 -26 63 -26c27 0 48 9 64 26c14 18 22 41 22 70zM333 590l86 159h149l-102 -159h-133z
M119 590l76 159h150l-93 -159h-133z" />
    <glyph glyph-name="Uogonek" unicode="&#x172;" horiz-adv-x="746" 
d="M372 -16c-67 0 -123 13 -169 39s-81 63 -105 111c-23 47 -35 103 -35 168v394h162v-374c0 -59 11 -106 34 -142c23 -34 60 -52 113 -52c54 0 92 18 114 52c23 36 34 83 34 142v374h163v-394c0 -65 -12 -121 -35 -168c-24 -48 -59 -85 -105 -111s-103 -39 -171 -39z
M476 -258c-47 0 -85 11 -112 32c-28 21 -42 49 -42 84c0 23 5 44 16 64c11 21 29 42 54 64c26 21 62 45 107 71l54 -28c-32 -23 -56 -43 -71 -59s-25 -30 -30 -42c-5 -13 -7 -25 -7 -36c0 -17 6 -30 17 -39c12 -9 27 -14 45 -14h34v-97h-65z" />
    <glyph glyph-name="uogonek" unicode="&#x173;" horiz-adv-x="590" 
d="M378 216v305h152v-521h-145v56c-16 -23 -36 -40 -60 -52c-24 -13 -51 -19 -81 -19c-61 0 -107 20 -140 60c-32 40 -48 91 -48 154v322h152v-305c0 -29 7 -52 21 -70c14 -17 35 -26 63 -26c27 0 48 9 64 26c14 18 22 41 22 70zM466 -258c-47 0 -85 11 -112 32
c-27 22 -41 50 -41 85c0 73 48 129 145 169l56 -28c-29 -21 -50 -39 -61 -56s-17 -34 -17 -51s6 -31 18 -40c11 -9 26 -14 44 -14h34v-97h-66z" />
    <glyph glyph-name="Wcircumflex" unicode="&#x174;" horiz-adv-x="1002" 
d="M222 0l-201 696h169l118 -447l119 445h147l127 -449l114 451h167l-202 -696h-149l-130 464l-130 -464h-149zM290 765l124 152h174l124 -152h-146l-65 67l-65 -67h-146z" />
    <glyph glyph-name="wcircumflex" unicode="&#x175;" horiz-adv-x="798" 
d="M177 0l-165 521h154l84 -306l83 305h132l87 -305l84 306h150l-165 -521h-130l-93 327l-91 -327h-130zM193 590l124 159h164l124 -159h-142l-64 73l-64 -73h-142z" />
    <glyph glyph-name="Ycircumflex" unicode="&#x176;" horiz-adv-x="686" 
d="M262 0v255l-252 441h183l154 -289l154 289h176l-252 -441v-255h-163zM132 765l124 152h174l124 -152h-146l-65 67l-65 -67h-146z" />
    <glyph glyph-name="ycircumflex" unicode="&#x177;" horiz-adv-x="578" 
d="M127 -205l85 205l-204 521h173l114 -342l113 342h162l-281 -726h-162zM87 590l124 159h164l124 -159h-142l-64 73l-64 -73h-142z" />
    <glyph glyph-name="Ydieresis" unicode="&#x178;" horiz-adv-x="686" 
d="M262 0v255l-252 441h183l154 -289l154 289h176l-252 -441v-255h-163zM462 759c-23 0 -42 8 -57 23s-23 34 -23 57c0 22 8 41 23 57c15 15 34 23 57 23s42 -8 58 -23c15 -16 23 -35 23 -57c0 -23 -8 -42 -23 -57c-16 -15 -35 -23 -58 -23zM224 759c-23 0 -42 8 -58 23
c-15 15 -23 34 -23 57c0 22 8 41 23 57c16 15 35 23 58 23s42 -8 57 -23c15 -16 23 -35 23 -57c0 -23 -8 -42 -23 -57s-34 -23 -57 -23z" />
    <glyph glyph-name="Zacute" unicode="&#x179;" horiz-adv-x="636" 
d="M43 696h546v-136l-345 -419h351v-141h-552v136l345 419h-345v141zM382 765h-146l88 152h164z" />
    <glyph glyph-name="zacute" unicode="&#x17a;" horiz-adv-x="522" 
d="M37 0v124l244 267h-244v130h445v-124l-244 -267h249v-130h-450zM324 590h-140l76 159h158z" />
    <glyph glyph-name="Zdotaccent" unicode="&#x17b;" horiz-adv-x="636" 
d="M43 696h546v-136l-345 -419h351v-141h-552v136l345 419h-345v141zM315 754c-24 0 -44 8 -61 26c-17 16 -25 37 -25 61s8 45 25 61c17 18 37 26 61 26c25 0 45 -8 62 -26c17 -16 25 -37 25 -61s-8 -45 -25 -61c-17 -18 -37 -26 -62 -26z" />
    <glyph glyph-name="zdotaccent" unicode="&#x17c;" horiz-adv-x="522" 
d="M37 0v124l244 267h-244v130h445v-124l-244 -267h249v-130h-450zM260 579c-24 0 -44 9 -61 25c-17 18 -25 38 -25 62s8 44 25 62c17 16 37 25 61 25c25 0 45 -9 62 -25c17 -18 25 -38 25 -62s-8 -44 -25 -62c-17 -16 -37 -25 -62 -25z" />
    <glyph glyph-name="Zcaron" unicode="&#x17d;" horiz-adv-x="636" 
d="M43 696h546v-136l-345 -419h351v-141h-552v136l345 419h-345v141zM229 765l-124 152h146l65 -67l65 67h146l-124 -152h-174z" />
    <glyph glyph-name="zcaron" unicode="&#x17e;" horiz-adv-x="522" 
d="M37 0v124l244 267h-244v130h445v-124l-244 -267h249v-130h-450zM179 590l-124 159h142l64 -73l64 73h142l-124 -159h-164z" />
    <glyph glyph-name="longs" unicode="&#x17f;" horiz-adv-x="309" 
d="M307 725v-128h-30c-21 0 -37 -6 -48 -19c-11 -12 -17 -28 -17 -48v-530h-152v541c0 57 16 102 49 135s77 49 134 49h64z" />
    <glyph glyph-name="uni0181" unicode="&#x181;" horiz-adv-x="919" 
d="M303 0v563c-44 -1 -77 -13 -97 -35c-22 -24 -32 -63 -32 -118v-26h-136v36c0 91 22 159 67 206s113 70 206 70h304c48 0 90 -7 126 -22s64 -36 85 -64c20 -28 30 -62 30 -103c0 -33 -8 -62 -25 -87s-42 -43 -75 -56c42 -13 73 -34 94 -63s31 -62 31 -100
c0 -41 -11 -77 -33 -107c-21 -30 -51 -53 -89 -70c-38 -16 -82 -24 -133 -24h-323zM597 563h-134v-141h134c33 0 58 6 75 18c17 11 26 29 26 53c0 47 -34 70 -101 70zM614 291h-151v-158h151c71 0 106 26 106 79s-35 79 -106 79z" />
    <glyph glyph-name="uni0186" unicode="&#x186;" horiz-adv-x="723" 
d="M345 -16c-62 0 -115 11 -157 32c-44 22 -78 52 -104 90c-25 37 -42 80 -51 127h166c7 -32 23 -57 48 -77c25 -18 58 -28 99 -28c53 0 95 20 127 60s48 93 48 160s-16 121 -47 160c-32 40 -74 60 -127 60c-41 0 -73 -10 -98 -30s-41 -47 -48 -80h-168c9 48 27 91 53 130
c25 38 60 68 103 90c43 23 96 34 157 34c68 0 128 -16 178 -47c52 -31 91 -74 120 -129c28 -55 42 -117 42 -188s-14 -133 -43 -188s-69 -98 -120 -129s-111 -47 -178 -47z" />
    <glyph glyph-name="uni0189" unicode="&#x189;" horiz-adv-x="766" 
d="M104 0v305h-82v117h82v274h270c72 0 135 -14 188 -43s94 -69 124 -121c28 -52 43 -113 43 -184s-15 -132 -43 -184c-30 -52 -71 -92 -124 -121s-116 -43 -188 -43h-270zM266 141h98c61 0 110 18 146 54s54 87 54 153s-18 117 -54 153s-85 54 -146 54h-98v-133h138v-117
h-138v-164z" />
    <glyph glyph-name="uni018A" unicode="&#x18a;" horiz-adv-x="965" 
d="M303 0v555c-44 -1 -77 -12 -97 -33c-22 -22 -32 -60 -32 -113v-25h-136v36c0 91 22 159 67 206s113 70 206 70h263c72 0 134 -14 188 -43c52 -29 94 -69 122 -121c30 -52 44 -113 44 -184s-14 -132 -44 -184c-28 -52 -70 -92 -122 -121c-54 -29 -116 -43 -188 -43h-271z
M466 141h98c61 0 109 18 145 54s54 87 54 153s-18 117 -54 153s-84 54 -145 54h-98v-414z" />
    <glyph glyph-name="uni018E" unicode="&#x18e;" horiz-adv-x="643" 
d="M571 0h-519v140h357v142h-339v140h339v134h-352v140h514v-696z" />
    <glyph glyph-name="uni018F" unicode="&#x18f;" horiz-adv-x="736" 
d="M699 344c0 -70 -13 -132 -38 -186s-63 -96 -112 -128c-49 -30 -110 -46 -182 -46c-67 0 -126 14 -175 43s-87 70 -114 124s-40 119 -40 195v60h495c-9 53 -28 94 -59 121c-30 27 -68 41 -114 41c-33 0 -62 -6 -86 -17c-26 -11 -46 -27 -61 -48h-165c14 39 36 75 65 106
s65 56 107 75c43 19 90 28 143 28c69 0 128 -15 179 -44c50 -30 89 -72 116 -128c27 -54 41 -120 41 -196zM364 128c49 0 88 13 115 40s45 64 53 111h-329c1 -47 17 -83 45 -111c30 -26 68 -40 116 -40z" />
    <glyph glyph-name="uni0190" unicode="&#x190;" horiz-adv-x="623" 
d="M309 -16c-52 0 -98 8 -138 25s-71 40 -95 71c-22 31 -34 68 -34 111c0 39 11 73 32 104c22 31 54 52 95 65c-35 13 -63 32 -81 59c-20 27 -29 57 -29 91c0 41 11 77 33 108c21 30 51 53 90 70c38 16 82 24 132 24c74 0 134 -18 181 -55s76 -84 89 -143h-154
c-7 17 -20 32 -38 43c-17 11 -41 17 -70 17s-53 -6 -74 -20c-20 -12 -30 -32 -30 -59c0 -25 10 -44 29 -57s44 -20 73 -20h84v-133h-89c-35 0 -63 -7 -81 -20c-20 -13 -29 -33 -29 -58c0 -27 10 -47 29 -63c20 -14 46 -22 79 -22c29 0 55 5 76 16s35 26 42 46h159
c-11 -64 -40 -113 -89 -148s-113 -52 -192 -52z" />
    <glyph glyph-name="uni0191" unicode="&#x191;" horiz-adv-x="623" 
d="M-14 -205v133h32c36 0 54 22 54 67v701h504v-140h-341v-149h329v-139h-329v-282c0 -64 -15 -112 -45 -144c-29 -31 -72 -47 -127 -47h-77z" />
    <glyph glyph-name="florin" unicode="&#x192;" horiz-adv-x="385" 
d="M18 -205v129h30c21 0 38 6 48 18c12 12 17 28 17 48v401h-79v130h79v20c0 57 16 102 49 135s77 49 134 49h64v-129h-30c-21 0 -37 -6 -48 -18s-17 -28 -17 -48v-9h95v-130h-95v-412c0 -57 -16 -101 -49 -135c-32 -32 -77 -49 -134 -49h-64z" />
    <glyph glyph-name="uni0194" unicode="&#x194;" horiz-adv-x="727" 
d="M364 -16c-39 0 -70 7 -96 20c-24 13 -43 31 -55 53s-18 46 -18 72c0 25 4 47 13 67s22 43 39 70l23 34l-258 397h187l169 -277l168 277h179l-259 -396l24 -35c18 -27 31 -50 40 -70c8 -20 12 -42 12 -67c0 -26 -6 -50 -18 -72s-30 -40 -55 -53s-56 -20 -95 -20zM322 137
c0 -13 4 -23 12 -29c7 -8 17 -11 30 -11s23 3 30 11c7 6 11 16 11 29c0 11 -3 22 -9 33c-5 10 -14 24 -27 43l-5 8l-6 -8c-13 -18 -22 -32 -28 -43c-5 -11 -8 -22 -8 -33z" />
    <glyph glyph-name="uni0196" unicode="&#x196;" horiz-adv-x="349" 
d="M321 -4h-75c-57 0 -100 16 -130 48c-29 31 -44 79 -44 143v509h163v-502c0 -45 19 -68 57 -68h29v-130z" />
    <glyph glyph-name="uni0197" unicode="&#x197;" horiz-adv-x="371" 
d="M267 0h-163v308h-82v120h82v268h163v-268h82v-120h-82v-308z" />
    <glyph glyph-name="uni0198" unicode="&#x198;" horiz-adv-x="782" 
d="M72 0v696h163v-278l124 173c29 40 60 70 93 91c32 20 73 30 124 30c54 0 98 -14 130 -44c34 -28 50 -74 50 -135v-59h-145v41c0 39 -16 59 -47 59c-16 0 -30 -4 -42 -13c-13 -9 -26 -23 -40 -42l-113 -157l323 -362h-206l-251 284v-284h-163z" />
    <glyph glyph-name="uni0199" unicode="&#x199;" horiz-adv-x="579" 
d="M60 0v526c0 69 18 119 56 151c36 32 89 48 156 48h78v-121h-60c-52 0 -78 -28 -78 -84v-200l173 201h179l-215 -245l226 -276h-188l-175 222v-222h-152z" />
    <glyph glyph-name="uni019D" unicode="&#x19d;" horiz-adv-x="807" 
d="M28 -4v133h32c36 0 54 22 54 67v500h157v-94c24 35 54 62 91 82c36 18 76 28 119 28c50 0 94 -13 131 -38c38 -25 67 -60 88 -104c21 -43 31 -93 31 -150v-420h-163v398c0 53 -12 95 -35 125s-58 45 -103 45c-43 0 -79 -14 -108 -43c-30 -29 -45 -71 -45 -128v-210
c0 -64 -15 -112 -45 -143c-29 -32 -72 -48 -127 -48h-77z" />
    <glyph glyph-name="uni019E" unicode="&#x19e;" horiz-adv-x="596" 
d="M212 304v-304h-152v521h145v-58c38 49 89 73 154 73c55 0 99 -20 132 -58c33 -40 49 -91 49 -156v-527h-152v507c0 30 -7 54 -21 72s-36 27 -65 27c-27 0 -48 -9 -65 -27c-17 -17 -25 -41 -25 -70z" />
    <glyph glyph-name="uni019F" unicode="&#x19f;" horiz-adv-x="791" 
d="M395 -16c-52 0 -100 9 -143 27c-44 18 -82 43 -114 77c-32 32 -57 71 -74 116c-18 44 -27 92 -27 144s9 100 27 144c17 45 42 84 74 116c32 34 70 59 114 77c43 18 91 27 143 27c53 0 101 -9 145 -27c43 -18 81 -43 113 -77c32 -32 57 -71 75 -116c17 -44 26 -92 26 -144
s-9 -100 -26 -144c-18 -45 -43 -84 -75 -116c-32 -34 -70 -59 -113 -77c-44 -18 -92 -27 -145 -27zM395 574c-50 0 -93 -15 -128 -44c-35 -30 -58 -70 -69 -119h395c-11 49 -35 89 -70 119c-35 29 -78 44 -128 44zM395 122c50 0 93 15 128 44s59 69 70 118h-395
c11 -49 34 -89 70 -118c34 -29 77 -44 127 -44z" />
    <glyph glyph-name="Ohorn" unicode="&#x1a0;" horiz-adv-x="810" 
d="M754 348c0 -52 -9 -100 -26 -144c-18 -45 -43 -84 -75 -116c-32 -34 -70 -59 -113 -77c-44 -18 -92 -27 -145 -27c-52 0 -100 9 -143 27c-44 18 -82 43 -114 77c-32 32 -57 71 -74 116c-18 44 -27 92 -27 144s9 100 27 144c17 45 42 84 74 116c32 34 70 59 114 77
c43 18 91 27 143 27c22 0 43 -2 63 -6c21 -3 40 -8 59 -13c7 -2 15 -4 25 -5c8 -1 18 -2 29 -2h5c45 0 67 21 67 62v59h141v-76c0 -39 -9 -71 -27 -97s-44 -44 -79 -55c23 -31 42 -65 56 -105c13 -38 20 -81 20 -126zM202 348c0 -43 8 -82 24 -115c17 -33 40 -59 69 -77
c29 -19 63 -28 100 -28c38 0 72 9 101 28c29 18 52 44 68 77c17 33 25 72 25 115c0 44 -8 82 -25 116c-16 32 -39 58 -68 76c-29 19 -63 28 -101 28c-37 0 -71 -9 -100 -28c-29 -18 -52 -44 -69 -76c-16 -34 -24 -72 -24 -116z" />
    <glyph glyph-name="ohorn" unicode="&#x1a1;" horiz-adv-x="632" 
d="M565 261c0 -54 -11 -102 -34 -143c-23 -42 -54 -75 -94 -98s-86 -35 -139 -35c-52 0 -98 12 -138 35s-71 56 -94 98c-23 41 -34 89 -34 143c0 55 11 103 34 144s54 74 94 97s86 35 138 35c19 0 38 -2 54 -5c18 -4 34 -9 50 -15c10 -4 23 -6 40 -6c22 0 36 6 43 18
s10 26 10 42v60h131v-77c0 -78 -33 -126 -99 -143c25 -43 38 -93 38 -150zM186 261c0 -44 10 -79 32 -105c20 -25 47 -38 80 -38s60 13 82 38c20 26 31 61 31 105s-11 79 -31 104c-22 25 -49 38 -82 38s-60 -13 -80 -38c-22 -25 -32 -60 -32 -104z" />
    <glyph glyph-name="Uhorn" unicode="&#x1af;" horiz-adv-x="798" 
d="M683 303c0 -65 -12 -121 -35 -169c-24 -47 -59 -84 -105 -110c-46 -27 -103 -40 -171 -40c-67 0 -123 13 -169 40c-46 26 -81 63 -105 110c-23 48 -35 104 -35 169v393h162v-374c0 -59 11 -106 34 -142c23 -34 60 -52 113 -52c54 0 92 18 114 52c23 36 34 83 34 142v374
h114c38 0 57 21 57 62v59h141v-76c0 -46 -13 -83 -38 -111s-62 -45 -111 -50v-277z" />
    <glyph glyph-name="uhorn" unicode="&#x1b0;" horiz-adv-x="634" 
d="M244 -15c-61 0 -107 20 -140 60c-32 40 -48 91 -48 154v322h152v-305c0 -29 7 -52 21 -70c14 -17 35 -26 64 -26c27 0 47 9 63 26c14 18 22 41 22 70v305h87c37 0 55 20 55 60v60h131v-77c0 -40 -10 -73 -31 -98s-51 -42 -90 -49v-417h-145v56c-16 -23 -36 -40 -60 -52
c-24 -13 -51 -19 -81 -19z" />
    <glyph glyph-name="uni01B1" unicode="&#x1b1;" horiz-adv-x="808" 
d="M765 696v-141h-121c35 -29 63 -65 82 -107c19 -41 29 -87 29 -136c0 -64 -15 -121 -45 -170c-31 -49 -72 -88 -126 -116c-52 -28 -113 -42 -180 -42s-128 14 -180 42c-54 28 -95 67 -126 116c-30 49 -45 106 -45 170c0 49 10 95 29 136c19 42 47 78 82 107h-121v141h311
v-136c-41 -23 -74 -55 -99 -94c-25 -40 -37 -85 -37 -136c0 -39 8 -73 23 -104c15 -30 37 -54 65 -72c28 -17 61 -26 98 -26c38 0 71 9 98 26c28 18 50 42 65 72c15 31 23 65 23 104c0 51 -12 96 -37 136c-25 39 -58 71 -99 94v136h311z" />
    <glyph glyph-name="uni01B2" unicode="&#x1b2;" horiz-adv-x="738" 
d="M373 -16c-67 0 -124 13 -170 40c-46 26 -81 63 -105 110c-23 48 -35 104 -35 169v393h162v-374c0 -60 11 -107 34 -142s61 -52 114 -52c52 0 91 19 118 58s40 98 40 178c0 53 -4 94 -12 123s-19 49 -35 59c-14 12 -32 17 -53 17h-35v133h66c51 0 94 -11 129 -32
c35 -22 61 -58 79 -106c17 -50 26 -115 26 -197c0 -121 -28 -214 -86 -279c-56 -65 -136 -98 -237 -98z" />
    <glyph glyph-name="uni01B3" unicode="&#x1b3;" horiz-adv-x="872" 
d="M262 0v255l-252 441h184l154 -289l75 142c29 54 62 95 99 122s85 41 142 41c53 0 96 -14 130 -44c35 -28 52 -74 52 -135v-59h-145v38c0 41 -16 62 -49 62c-17 0 -32 -6 -44 -16c-14 -12 -27 -29 -40 -52l-143 -251v-255h-163z" />
    <glyph glyph-name="uni01B4" unicode="&#x1b4;" horiz-adv-x="787" 
d="M128 -205l85 205l-205 521h173l116 -347l62 183c19 57 47 102 83 133s83 47 140 47s101 -16 132 -47c31 -32 46 -76 46 -131v-57h-145v38c0 41 -16 62 -47 62c-15 0 -28 -5 -40 -16c-10 -10 -21 -27 -30 -51l-208 -540h-162z" />
    <glyph glyph-name="uni01B7" unicode="&#x1b7;" horiz-adv-x="640" 
d="M324 -16c-82 0 -148 19 -199 57s-82 92 -95 163h161c6 -26 21 -46 43 -60c24 -15 53 -22 90 -22c39 0 67 9 86 28s28 41 28 68s-11 47 -34 62c-23 14 -56 21 -101 21h-83v103l176 152h-339v140h513v-136l-173 -150c59 -5 108 -25 146 -58c38 -34 57 -80 57 -137
c0 -45 -12 -85 -35 -119c-23 -36 -56 -63 -97 -82c-41 -20 -89 -30 -144 -30z" />
    <glyph glyph-name="uni01B8" unicode="&#x1b8;" horiz-adv-x="640" 
d="M315 -16c-55 0 -103 10 -144 29s-73 46 -97 80c-22 34 -34 73 -34 117c0 39 9 72 26 101s41 51 72 68c30 17 65 27 104 30l-173 151v136h514v-140h-338l175 -152v-103h-84c-89 0 -134 -29 -134 -86c0 -25 10 -47 28 -65c20 -19 48 -28 87 -28c37 0 67 7 89 22
c24 14 38 34 43 61h161c-13 -71 -44 -125 -95 -163c-51 -39 -117 -58 -200 -58z" />
    <glyph glyph-name="uni01B9" unicode="&#x1b9;" horiz-adv-x="528" 
d="M268 -221c-51 0 -94 10 -131 29s-65 46 -85 81s-30 74 -30 119c0 39 8 74 25 106c17 30 40 55 71 74s67 29 109 31l-181 178v124h448v-130h-283l181 -178v-94h-68c-55 0 -93 -10 -116 -30s-34 -46 -34 -77s8 -57 25 -77s40 -30 70 -30c25 0 45 5 61 17c16 10 26 25 31 44
h155c-7 -55 -32 -100 -74 -134c-41 -36 -99 -53 -174 -53z" />
    <glyph glyph-name="uni01C0" unicode="&#x1c0;" horiz-adv-x="289" 
d="M72 0v725h145v-725h-145z" />
    <glyph glyph-name="uni01C1" unicode="&#x1c1;" horiz-adv-x="524" 
d="M72 0v725h145v-725h-145zM307 0v725h145v-725h-145z" />
    <glyph glyph-name="uni01C2" unicode="&#x1c2;" horiz-adv-x="354" 
d="M105 0v203h-72v116h72v88h-72v115h72v203h144v-203h72v-115h-72v-88h72v-116h-72v-203h-144z" />
    <glyph glyph-name="uni01C3" unicode="&#x1c3;" horiz-adv-x="306" 
d="M82 231l-10 494h162l-9 -494h-143zM153 -15c-26 0 -48 9 -67 28s-28 41 -28 68s9 49 28 68s41 28 67 28c27 0 49 -9 68 -28s28 -41 28 -68s-9 -49 -28 -68s-41 -28 -68 -28z" />
    <glyph glyph-name="uni01CD" unicode="&#x1cd;" horiz-adv-x="720" 
d="M536 0l-48 139h-264l-48 -139h-164l263 696h170l263 -696h-172zM272 278h167l-83 241zM273 765l-124 152h146l65 -67l65 67h146l-124 -152h-174z" />
    <glyph glyph-name="uni01CE" unicode="&#x1ce;" horiz-adv-x="549" 
d="M208 -15c-55 0 -98 15 -131 45c-33 31 -49 71 -49 121c0 55 20 97 59 127s94 45 163 45h95v18c0 26 -7 45 -22 57c-15 13 -35 19 -60 19c-22 0 -40 -4 -53 -13c-13 -8 -22 -17 -25 -28h-143c9 45 32 83 71 114s90 46 155 46c69 0 124 -17 164 -51c41 -34 61 -88 61 -161
v-324h-138v59c-16 -26 -37 -45 -65 -57c-26 -11 -54 -17 -82 -17zM248 103c15 0 30 3 46 10c14 7 27 17 36 29c10 14 15 30 15 49v30h-88c-27 0 -47 -5 -61 -15c-15 -11 -22 -26 -22 -45s7 -33 21 -43s32 -15 53 -15zM191 590l-124 159h142l64 -73l64 73h142l-124 -159h-164
z" />
    <glyph glyph-name="uni01CF" unicode="&#x1cf;" horiz-adv-x="307" 
d="M235 0h-163v696h163v-696zM66 765l-124 152h146l65 -67l65 67h146l-124 -152h-174z" />
    <glyph glyph-name="uni01D0" unicode="&#x1d0;" horiz-adv-x="273" 
d="M60 0v521h152v-521h-152zM57 590l-102 159h134l47 -68l47 68h134l-102 -159h-158z" />
    <glyph glyph-name="uni01D1" unicode="&#x1d1;" horiz-adv-x="790" 
d="M394 -16c-52 0 -100 9 -144 27c-43 18 -81 43 -112 76c-32 33 -57 71 -74 115c-18 45 -27 93 -27 146s9 101 27 146c17 44 42 82 74 115c31 33 69 58 112 76c44 18 92 27 144 27c53 0 101 -9 144 -27c44 -18 82 -43 114 -76s57 -71 74 -115c18 -45 27 -93 27 -146
s-9 -101 -27 -146c-17 -44 -42 -82 -74 -115s-70 -58 -114 -76c-43 -18 -91 -27 -144 -27zM394 128c38 0 72 9 101 28c29 18 52 44 69 77c16 33 24 72 24 115c0 44 -8 82 -24 116c-17 32 -40 58 -69 76c-29 19 -63 28 -101 28c-37 0 -70 -9 -100 -28
c-28 -18 -51 -44 -68 -76c-16 -34 -24 -72 -24 -116c0 -43 8 -82 24 -115c17 -33 40 -59 68 -77c30 -19 63 -28 100 -28zM307 765l-124 152h146l65 -67l65 67h146l-124 -152h-174z" />
    <glyph glyph-name="uni01D2" unicode="&#x1d2;" horiz-adv-x="597" 
d="M298 -15c-52 0 -98 12 -138 35s-71 56 -94 98c-23 41 -34 89 -34 143s11 102 34 143s54 74 94 97s86 35 138 35c53 0 99 -12 139 -35s71 -56 94 -97s34 -89 34 -143s-11 -102 -34 -143c-23 -42 -54 -75 -94 -98s-86 -35 -139 -35zM298 118c33 0 60 13 82 38
c20 26 31 61 31 105s-11 79 -31 104c-22 25 -49 38 -82 38s-60 -13 -80 -38c-22 -25 -32 -60 -32 -104s10 -79 32 -105c20 -25 47 -38 80 -38zM216 590l-124 159h142l64 -73l64 73h142l-124 -159h-164z" />
    <glyph glyph-name="uni01D3" unicode="&#x1d3;" horiz-adv-x="746" 
d="M372 -16c-67 0 -123 13 -169 39s-81 63 -105 111c-23 47 -35 103 -35 168v394h162v-374c0 -59 11 -106 34 -142c23 -34 60 -52 113 -52c54 0 92 18 114 52c23 36 34 83 34 142v374h163v-394c0 -65 -12 -121 -35 -168c-24 -48 -59 -85 -105 -111s-103 -39 -171 -39z
M286 765l-124 152h146l65 -67l65 67h146l-124 -152h-174z" />
    <glyph glyph-name="uni01D4" unicode="&#x1d4;" horiz-adv-x="590" 
d="M378 216v305h152v-521h-145v56c-16 -23 -36 -40 -60 -52c-24 -13 -51 -19 -81 -19c-61 0 -107 20 -140 60c-32 40 -48 91 -48 154v322h152v-305c0 -29 7 -52 21 -70c14 -17 35 -26 63 -26c27 0 48 9 64 26c14 18 22 41 22 70zM211 590l-124 159h142l64 -73l64 73h142
l-124 -159h-164z" />
    <glyph glyph-name="uni01D5" unicode="&#x1d5;" horiz-adv-x="746" 
d="M372 -16c-67 0 -123 13 -169 39s-81 63 -105 111c-23 47 -35 103 -35 168v394h162v-374c0 -59 11 -106 34 -142c23 -34 60 -52 113 -52c54 0 92 18 114 52c23 36 34 83 34 142v374h163v-394c0 -65 -12 -121 -35 -168c-24 -48 -59 -85 -105 -111s-103 -39 -171 -39z
M556 805c0 -20 -8 -37 -22 -51c-16 -15 -33 -22 -54 -22c-20 0 -37 7 -52 22c-15 14 -22 31 -22 51c0 21 7 39 22 53c15 15 32 22 52 22c21 0 38 -7 54 -22c14 -14 22 -32 22 -53zM339 805c0 -20 -7 -37 -22 -51c-15 -15 -32 -22 -53 -22s-38 7 -52 22c-15 14 -22 31 -22 51
c0 21 7 39 22 53c14 15 31 22 52 22s38 -7 53 -22c15 -14 22 -32 22 -53zM203 1016h340v-106h-340v106z" />
    <glyph glyph-name="uni01D6" unicode="&#x1d6;" horiz-adv-x="590" 
d="M378 216v305h152v-521h-145v56c-16 -23 -36 -40 -60 -52c-24 -13 -51 -19 -81 -19c-61 0 -107 20 -140 60c-32 40 -48 91 -48 154v322h152v-305c0 -29 7 -52 21 -70c14 -17 35 -26 63 -26c27 0 48 9 64 26c14 18 22 41 22 70zM397 589c-19 0 -36 7 -51 21
c-14 14 -21 31 -21 50c0 20 7 37 21 51c15 14 32 21 51 21s36 -7 51 -21s22 -31 22 -51c0 -19 -7 -36 -22 -50s-32 -21 -51 -21zM189 589c-19 0 -36 7 -51 21c-14 14 -21 31 -21 50c0 20 7 37 21 51c15 14 32 21 51 21s36 -7 51 -21c14 -14 21 -31 21 -51
c0 -19 -7 -36 -21 -50c-15 -14 -32 -21 -51 -21zM128 880h328v-104h-328v104z" />
    <glyph glyph-name="uni01D7" unicode="&#x1d7;" horiz-adv-x="746" 
d="M372 -16c-67 0 -123 13 -169 39s-81 63 -105 111c-23 47 -35 103 -35 168v394h162v-374c0 -59 11 -106 34 -142c23 -34 60 -52 113 -52c54 0 92 18 114 52c23 36 34 83 34 142v374h163v-394c0 -65 -12 -121 -35 -168c-24 -48 -59 -85 -105 -111s-103 -39 -171 -39z
M556 805c0 -20 -8 -37 -22 -51c-16 -15 -33 -22 -54 -22c-20 0 -37 7 -52 22c-15 14 -22 31 -22 51c0 21 7 39 22 53c15 15 32 22 52 22c21 0 38 -7 54 -22c14 -14 22 -32 22 -53zM339 805c0 -20 -7 -37 -22 -51c-15 -15 -32 -22 -53 -22s-38 7 -52 22c-15 14 -22 31 -22 51
c0 21 7 39 22 53c14 15 31 22 52 22s38 -7 53 -22c15 -14 22 -32 22 -53zM431 897h-129l73 120h147z" />
    <glyph glyph-name="uni01D8" unicode="&#x1d8;" horiz-adv-x="590" 
d="M378 216v305h152v-521h-145v56c-16 -23 -36 -40 -60 -52c-24 -13 -51 -19 -81 -19c-61 0 -107 20 -140 60c-32 40 -48 91 -48 154v322h152v-305c0 -29 7 -52 21 -70c14 -17 35 -26 63 -26c27 0 48 9 64 26c14 18 22 41 22 70zM397 589c-19 0 -36 7 -51 21
c-14 14 -21 31 -21 50c0 20 7 37 21 51c15 14 32 21 51 21s36 -7 51 -21s22 -31 22 -51c0 -19 -7 -36 -22 -50s-32 -21 -51 -21zM189 589c-19 0 -36 7 -51 21c-14 14 -21 31 -21 50c0 20 7 37 21 51c15 14 32 21 51 21s36 -7 51 -21c14 -14 21 -31 21 -51
c0 -19 -7 -36 -21 -50c-15 -14 -32 -21 -51 -21zM353 761h-124l76 159h142z" />
    <glyph glyph-name="uni01D9" unicode="&#x1d9;" horiz-adv-x="746" 
d="M372 -16c-67 0 -123 13 -169 39s-81 63 -105 111c-23 47 -35 103 -35 168v394h162v-374c0 -59 11 -106 34 -142c23 -34 60 -52 113 -52c54 0 92 18 114 52c23 36 34 83 34 142v374h163v-394c0 -65 -12 -121 -35 -168c-24 -48 -59 -85 -105 -111s-103 -39 -171 -39z
M556 805c0 -20 -8 -37 -22 -51c-16 -15 -33 -22 -54 -22c-20 0 -37 7 -52 22c-15 14 -22 31 -22 51c0 21 7 39 22 53c15 15 32 22 52 22c21 0 38 -7 54 -22c14 -14 22 -32 22 -53zM339 805c0 -20 -7 -37 -22 -51c-15 -15 -32 -22 -53 -22s-38 7 -52 22c-15 14 -22 31 -22 51
c0 21 7 39 22 53c14 15 31 22 52 22s38 -7 53 -22c15 -14 22 -32 22 -53zM170 1016h142l61 -52l61 52h142l-120 -118h-166z" />
    <glyph glyph-name="uni01DA" unicode="&#x1da;" horiz-adv-x="590" 
d="M378 216v305h152v-521h-145v56c-16 -23 -36 -40 -60 -52c-24 -13 -51 -19 -81 -19c-61 0 -107 20 -140 60c-32 40 -48 91 -48 154v322h152v-305c0 -29 7 -52 21 -70c14 -17 35 -26 63 -26c27 0 48 9 64 26c14 18 22 41 22 70zM397 589c-19 0 -36 7 -51 21
c-14 14 -21 31 -21 50c0 20 7 37 21 51c15 14 32 21 51 21s36 -7 51 -21s22 -31 22 -51c0 -19 -7 -36 -22 -50s-32 -21 -51 -21zM189 589c-19 0 -36 7 -51 21c-14 14 -21 31 -21 50c0 20 7 37 21 51c15 14 32 21 51 21s36 -7 51 -21c14 -14 21 -31 21 -51
c0 -19 -7 -36 -21 -50c-15 -14 -32 -21 -51 -21zM211 762l-115 142h134l63 -70l63 70h134l-115 -142h-164z" />
    <glyph glyph-name="uni01DB" unicode="&#x1db;" horiz-adv-x="746" 
d="M372 -16c-67 0 -123 13 -169 39s-81 63 -105 111c-23 47 -35 103 -35 168v394h162v-374c0 -59 11 -106 34 -142c23 -34 60 -52 113 -52c54 0 92 18 114 52c23 36 34 83 34 142v374h163v-394c0 -65 -12 -121 -35 -168c-24 -48 -59 -85 -105 -111s-103 -39 -171 -39z
M556 805c0 -20 -8 -37 -22 -51c-16 -15 -33 -22 -54 -22c-20 0 -37 7 -52 22c-15 14 -22 31 -22 51c0 21 7 39 22 53c15 15 32 22 52 22c21 0 38 -7 54 -22c14 -14 22 -32 22 -53zM339 805c0 -20 -7 -37 -22 -51c-15 -15 -32 -22 -53 -22s-38 7 -52 22c-15 14 -22 31 -22 51
c0 21 7 39 22 53c14 15 31 22 52 22s38 -7 53 -22c15 -14 22 -32 22 -53zM309 897l-91 120h147l73 -120h-129z" />
    <glyph glyph-name="uni01DC" unicode="&#x1dc;" horiz-adv-x="590" 
d="M378 216v305h152v-521h-145v56c-16 -23 -36 -40 -60 -52c-24 -13 -51 -19 -81 -19c-61 0 -107 20 -140 60c-32 40 -48 91 -48 154v322h152v-305c0 -29 7 -52 21 -70c14 -17 35 -26 63 -26c27 0 48 9 64 26c14 18 22 41 22 70zM397 589c-19 0 -36 7 -51 21
c-14 14 -21 31 -21 50c0 20 7 37 21 51c15 14 32 21 51 21s36 -7 51 -21s22 -31 22 -51c0 -19 -7 -36 -22 -50s-32 -21 -51 -21zM189 589c-19 0 -36 7 -51 21c-14 14 -21 31 -21 50c0 20 7 37 21 51c15 14 32 21 51 21s36 -7 51 -21c14 -14 21 -31 21 -51
c0 -19 -7 -36 -21 -50c-15 -14 -32 -21 -51 -21zM233 761l-94 159h142l76 -159h-124z" />
    <glyph glyph-name="uni01DD" unicode="&#x1dd;" horiz-adv-x="569" 
d="M274 536c55 0 102 -11 141 -34s69 -55 91 -96c20 -42 31 -92 31 -149c0 -51 -10 -98 -31 -139s-50 -74 -90 -98c-38 -23 -85 -35 -139 -35c-78 0 -138 25 -180 75c-42 49 -63 116 -63 201v48h352c-11 72 -49 108 -113 108c-21 0 -38 -3 -51 -10c-14 -7 -24 -15 -29 -24
h-151c13 47 39 85 80 112s91 41 152 41zM278 104c61 0 97 34 108 102h-206c1 -30 9 -54 26 -74c17 -18 41 -28 72 -28z" />
    <glyph glyph-name="uni01E4" unicode="&#x1e4;" horiz-adv-x="762" 
d="M388 -16c-71 0 -132 16 -185 47s-94 74 -123 129s-44 117 -44 188s15 133 44 188s70 98 124 129c52 31 114 47 184 47c80 0 148 -19 204 -58c55 -38 92 -91 109 -158h-166c-10 23 -27 42 -51 58c-25 14 -57 22 -96 22c-57 0 -103 -20 -140 -60c-36 -40 -54 -96 -54 -168
c0 -78 18 -138 54 -180c37 -42 85 -63 146 -63c31 0 58 5 83 15s44 25 59 45h-149v89h178v9v37h-178v104h326v-108c0 -14 -1 -28 -2 -42h53v-89h-76c-23 -54 -60 -98 -110 -131c-52 -33 -115 -50 -190 -50z" />
    <glyph glyph-name="uni01E5" unicode="&#x1e5;" horiz-adv-x="624" 
d="M260 30c-45 0 -84 11 -118 34c-35 22 -62 52 -81 90c-19 37 -29 79 -29 125c0 51 10 96 29 135s46 69 81 90c34 21 73 32 118 32c33 0 63 -7 88 -20s47 -31 64 -54v59h145v-498v-10h62v-78h-74c-16 -50 -45 -88 -87 -115c-41 -27 -92 -40 -153 -40c-65 0 -120 14 -165 42
s-74 65 -85 111h156c7 -12 18 -22 33 -30c14 -8 33 -12 56 -12c21 0 40 3 57 11c17 6 30 18 39 33h-128v78h145v88c-17 -22 -39 -39 -65 -52c-25 -13 -55 -19 -88 -19zM298 155c33 0 61 11 82 34c22 23 33 53 33 91c0 37 -11 68 -33 90c-21 24 -49 35 -82 35
s-60 -11 -80 -35c-22 -22 -32 -53 -32 -90c0 -38 10 -68 32 -91c20 -23 47 -34 80 -34z" />
    <glyph glyph-name="Gcaron" unicode="&#x1e6;" horiz-adv-x="752" 
d="M389 -16c-71 0 -132 16 -185 47s-94 75 -123 129c-29 56 -44 118 -44 188c0 71 15 133 44 188s70 98 123 129s114 47 184 47c81 0 149 -20 204 -58c55 -40 92 -94 109 -165h-166c-10 23 -27 42 -51 57c-25 15 -57 22 -96 22c-57 0 -102 -20 -136 -59
c-33 -39 -50 -93 -50 -161c0 -67 17 -120 51 -160c34 -41 81 -61 141 -61c32 0 60 6 84 17c23 12 42 28 55 48c13 19 20 41 20 64v8h-165v134h325v-103c0 -58 -13 -111 -38 -157c-25 -48 -62 -85 -111 -112c-48 -28 -106 -42 -175 -42zM298 765l-124 152h146l65 -67l65 67
h146l-124 -152h-174z" />
    <glyph glyph-name="gcaron" unicode="&#x1e7;" horiz-adv-x="617" 
d="M260 6c-45 0 -84 11 -118 34c-35 23 -62 54 -81 94s-29 86 -29 137s10 97 29 137s46 71 81 94c34 23 73 34 118 34c33 0 63 -7 88 -20s47 -31 64 -54v59h145v-498c0 -78 -23 -138 -69 -180c-45 -42 -107 -63 -185 -63c-67 0 -124 16 -169 46c-46 32 -75 72 -86 122h156
c7 -13 19 -23 36 -30c17 -8 36 -12 59 -12c34 0 60 8 79 25s28 43 28 79v63c-17 -21 -38 -37 -63 -49s-52 -18 -83 -18zM298 138c33 0 61 12 82 37c22 25 33 57 33 97c0 39 -11 71 -33 96c-21 25 -49 37 -82 37s-60 -12 -80 -37c-22 -25 -32 -57 -32 -96
c0 -40 10 -72 32 -97c20 -25 47 -37 80 -37zM224 590l-124 159h142l64 -73l64 73h142l-124 -159h-164z" />
    <glyph glyph-name="uni01E8" unicode="&#x1e8;" horiz-adv-x="698" 
d="M72 0v696h163v-270l249 270h192l-309 -332l325 -364h-206l-251 284v-284h-163zM276 765l-124 152h146l65 -67l65 67h146l-124 -152h-174z" />
    <glyph glyph-name="uni01E9" unicode="&#x1e9;" horiz-adv-x="579" 
d="M60 0v725h152v-405l173 201h179l-215 -245l226 -276h-188l-175 222v-222h-152zM49 765l-124 152h146l65 -67l65 67h146l-124 -152h-174z" />
    <glyph glyph-name="uni01EA" unicode="&#x1ea;" horiz-adv-x="790" 
d="M394 -16c-52 0 -100 9 -144 27c-43 18 -81 43 -112 76c-32 33 -57 71 -74 115c-18 45 -27 93 -27 146s9 101 27 146c17 44 42 82 74 115c31 33 69 58 112 76c44 18 92 27 144 27c53 0 101 -9 144 -27c44 -18 82 -43 114 -76s57 -71 74 -115c18 -45 27 -93 27 -146
s-9 -101 -27 -146c-17 -44 -42 -82 -74 -115s-70 -58 -114 -76c-43 -18 -91 -27 -144 -27zM394 128c38 0 72 9 101 28c29 18 52 44 69 77c16 33 24 72 24 115c0 44 -8 82 -24 116c-17 32 -40 58 -69 76c-29 19 -63 28 -101 28c-37 0 -70 -9 -100 -28
c-28 -18 -51 -44 -68 -76c-16 -34 -24 -72 -24 -116c0 -43 8 -82 24 -115c17 -33 40 -59 68 -77c30 -19 63 -28 100 -28zM492 -258c-47 0 -85 11 -112 32c-28 21 -42 49 -42 84c0 23 5 44 16 64c11 21 29 42 54 64c26 21 62 45 107 71l54 -28c-32 -23 -56 -43 -71 -59
s-25 -30 -30 -42c-5 -13 -7 -25 -7 -36c0 -17 6 -30 17 -39c12 -9 27 -14 45 -14h34v-97h-65z" />
    <glyph glyph-name="uni01EB" unicode="&#x1eb;" horiz-adv-x="597" 
d="M298 -15c-52 0 -98 12 -138 35s-71 56 -94 98c-23 41 -34 89 -34 143s11 102 34 143s54 74 94 97s86 35 138 35c53 0 99 -12 139 -35s71 -56 94 -97s34 -89 34 -143s-11 -102 -34 -143c-23 -42 -54 -75 -94 -98s-86 -35 -139 -35zM298 118c33 0 60 13 82 38
c20 26 31 61 31 105s-11 79 -31 104c-22 25 -49 38 -82 38s-60 -13 -80 -38c-22 -25 -32 -60 -32 -104s10 -79 32 -105c20 -25 47 -38 80 -38zM373 -258c-47 0 -85 11 -113 32c-27 21 -41 49 -41 84c0 23 5 44 16 64c11 21 29 42 55 64c25 21 61 45 106 71l54 -28
c-32 -23 -56 -43 -71 -59s-25 -30 -30 -42c-5 -13 -7 -25 -7 -36c0 -17 6 -30 18 -39c11 -9 26 -14 44 -14h34v-97h-65z" />
    <glyph glyph-name="uni01EE" unicode="&#x1ee;" horiz-adv-x="640" 
d="M324 -16c-82 0 -148 19 -199 57s-82 92 -95 163h161c6 -26 21 -46 43 -60c24 -15 53 -22 90 -22c39 0 67 9 86 28s28 41 28 68s-11 47 -34 62c-23 14 -56 21 -101 21h-83v103l176 152h-339v140h513v-136l-173 -150c59 -5 108 -25 146 -58c38 -34 57 -80 57 -137
c0 -45 -12 -85 -35 -119c-23 -36 -56 -63 -97 -82c-41 -20 -89 -30 -144 -30zM226 765l-124 152h146l65 -67l65 67h146l-124 -152h-174z" />
    <glyph glyph-name="uni01EF" unicode="&#x1ef;" horiz-adv-x="528" 
d="M260 -220c-75 0 -133 17 -174 52c-42 35 -67 79 -74 134h155c5 -18 16 -32 31 -44c16 -10 36 -16 61 -16c30 0 53 10 70 30s25 45 25 76s-11 57 -32 77c-22 20 -60 30 -115 30h-71v94l183 178h-285v130h448v-124l-181 -177c42 -1 78 -11 109 -30s54 -44 71 -75
s25 -67 25 -107c0 -45 -10 -84 -30 -118c-20 -35 -48 -62 -85 -81s-80 -29 -131 -29zM176 590l-124 159h142l64 -73l64 73h142l-124 -159h-164z" />
    <glyph glyph-name="uni01F0" unicode="&#x1f0;" horiz-adv-x="273" 
d="M-26 -205v130h30c18 0 32 6 42 17c9 12 14 28 14 49v530h152v-548c0 -57 -15 -101 -44 -131c-29 -32 -71 -47 -125 -47h-69zM56 590l-102 159h134l47 -68l47 68h134l-102 -159h-158z" />
    <glyph glyph-name="uni01F4" unicode="&#x1f4;" horiz-adv-x="752" 
d="M389 -16c-71 0 -132 16 -185 47s-94 75 -123 129c-29 56 -44 118 -44 188c0 71 15 133 44 188s70 98 123 129s114 47 184 47c81 0 149 -20 204 -58c55 -40 92 -94 109 -165h-166c-10 23 -27 42 -51 57c-25 15 -57 22 -96 22c-57 0 -102 -20 -136 -59
c-33 -39 -50 -93 -50 -161c0 -67 17 -120 51 -160c34 -41 81 -61 141 -61c32 0 60 6 84 17c23 12 42 28 55 48c13 19 20 41 20 64v8h-165v134h325v-103c0 -58 -13 -111 -38 -157c-25 -48 -62 -85 -111 -112c-48 -28 -106 -42 -175 -42zM451 765h-146l88 152h164z" />
    <glyph glyph-name="uni01F5" unicode="&#x1f5;" horiz-adv-x="617" 
d="M260 6c-45 0 -84 11 -118 34c-35 23 -62 54 -81 94s-29 86 -29 137s10 97 29 137s46 71 81 94c34 23 73 34 118 34c33 0 63 -7 88 -20s47 -31 64 -54v59h145v-498c0 -78 -23 -138 -69 -180c-45 -42 -107 -63 -185 -63c-67 0 -124 16 -169 46c-46 32 -75 72 -86 122h156
c7 -13 19 -23 36 -30c17 -8 36 -12 59 -12c34 0 60 8 79 25s28 43 28 79v63c-17 -21 -38 -37 -63 -49s-52 -18 -83 -18zM298 138c33 0 61 12 82 37c22 25 33 57 33 97c0 39 -11 71 -33 96c-21 25 -49 37 -82 37s-60 -12 -80 -37c-22 -25 -32 -57 -32 -96
c0 -40 10 -72 32 -97c20 -25 47 -37 80 -37zM369 590h-140l76 159h158z" />
    <glyph glyph-name="uni01F8" unicode="&#x1f8;" horiz-adv-x="768" 
d="M72 0v696h157l311 -448v448h156v-696h-156l-312 449v-449h-156zM318 765l-106 152h164l88 -152h-146z" />
    <glyph glyph-name="uni01F9" unicode="&#x1f9;" horiz-adv-x="596" 
d="M212 304v-304h-152v521h145v-58c38 49 89 73 154 73c55 0 99 -20 132 -58c33 -40 49 -91 49 -156v-322h-152v302c0 30 -7 54 -21 72s-36 27 -65 27c-27 0 -48 -9 -65 -27c-17 -17 -25 -41 -25 -70zM237 590l-94 159h158l76 -159h-140z" />
    <glyph glyph-name="Aringacute" unicode="&#x1fa;" horiz-adv-x="720" 
d="M290 903l67 127h151l-83 -127h-135zM12 0l251 664c-21 24 -32 52 -32 85c0 24 6 45 17 65c12 18 28 34 47 45s41 17 65 17s46 -6 66 -17c19 -11 35 -27 46 -46s17 -41 17 -64c0 -33 -11 -61 -32 -85l251 -664h-172l-48 139h-264l-48 -139h-164zM360 697c15 0 27 5 37 15
s15 22 15 37s-5 27 -15 37s-22 15 -37 15c-14 0 -26 -5 -36 -15s-15 -22 -15 -37s5 -27 15 -37s22 -15 36 -15zM272 278h167l-83 241z" />
    <glyph glyph-name="aringacute" unicode="&#x1fb;" horiz-adv-x="549" 
d="M208 -15c-55 0 -98 15 -131 45c-33 31 -49 71 -49 121c0 55 20 97 59 127s94 45 163 45h95v18c0 26 -7 45 -22 57c-15 13 -35 19 -60 19c-22 0 -40 -4 -53 -13c-13 -8 -22 -17 -25 -28h-143c9 45 32 83 71 114s90 46 155 46c69 0 124 -17 164 -51c41 -34 61 -88 61 -161
v-324h-138v59c-16 -26 -37 -45 -65 -57c-26 -11 -54 -17 -82 -17zM248 103c15 0 30 3 46 10c14 7 27 17 36 29c10 14 15 30 15 49v30h-88c-27 0 -47 -5 -61 -15c-15 -11 -22 -26 -22 -45s7 -33 21 -43s32 -15 53 -15zM273 566c-24 0 -46 6 -66 18c-20 11 -36 27 -48 46
c-12 20 -18 42 -18 66c0 25 6 47 18 66c12 20 28 36 48 48c20 11 42 17 66 17c25 0 47 -6 67 -17c19 -12 35 -28 47 -48c12 -19 18 -41 18 -66c0 -24 -6 -46 -18 -66c-12 -19 -28 -35 -47 -46c-20 -12 -42 -18 -67 -18zM273 644c15 0 27 5 37 15s15 22 15 37s-5 28 -15 38
c-10 9 -22 14 -37 14s-27 -5 -37 -14c-10 -10 -15 -23 -15 -38s5 -27 15 -37s22 -15 37 -15zM339 852h-146l88 152h164z" />
    <glyph glyph-name="AEacute" unicode="&#x1fc;" horiz-adv-x="1085" 
d="M181 0h-179l443 696h583v-140h-352v-134h340v-140h-340v-142h357v-140h-519v139h-250zM346 278h168v282zM811 765h-146l88 152h164z" />
    <glyph glyph-name="aeacute" unicode="&#x1fd;" horiz-adv-x="885" 
d="M222 -15c-59 0 -106 15 -142 45c-34 31 -52 71 -52 121c0 54 20 95 58 125c40 28 93 43 162 43h97v22c0 26 -7 45 -22 57c-15 13 -35 19 -60 19c-22 0 -40 -4 -53 -13c-13 -8 -22 -17 -25 -28h-143c9 45 32 83 70 114c39 31 89 46 151 46c43 0 79 -7 108 -21
s51 -35 68 -63c19 27 44 48 75 62c32 15 65 22 100 22c75 0 134 -25 175 -74c41 -50 62 -117 62 -200v-42h-353c10 -77 48 -116 114 -116c21 0 38 3 51 10s23 15 28 24h152c-13 -47 -39 -84 -80 -112c-41 -27 -90 -41 -149 -41c-48 0 -88 9 -122 27c-32 17 -59 42 -80 74
c-20 -33 -46 -58 -79 -75s-70 -26 -111 -26zM607 417c-59 0 -95 -33 -107 -98h204c-1 29 -10 53 -27 71s-40 27 -70 27zM248 103c23 0 45 7 66 23c21 14 31 36 31 65v29h-88c-27 0 -47 -5 -61 -14c-15 -10 -22 -25 -22 -44s7 -33 21 -44c14 -10 32 -15 53 -15zM502 590h-140
l76 159h158z" />
    <glyph glyph-name="Oslashacute" unicode="&#x1fe;" horiz-adv-x="790" 
d="M69 -50l81 125c-35 33 -63 72 -83 119s-30 98 -30 154c0 53 9 101 27 146c17 44 42 82 74 115c31 33 69 58 112 76c44 18 92 27 144 27c55 0 106 -10 153 -31l42 65h132l-82 -125c36 -33 64 -72 84 -119s30 -98 30 -154c0 -53 -9 -101 -27 -146c-17 -44 -42 -82 -74 -115
s-70 -58 -114 -76c-43 -18 -91 -27 -144 -27c-54 0 -104 10 -151 30l-42 -64h-132zM194 348c0 -29 4 -55 10 -80c8 -24 18 -45 31 -64l233 357c-23 9 -47 13 -74 13c-39 0 -74 -10 -104 -28c-30 -20 -54 -46 -70 -80c-18 -34 -26 -73 -26 -118zM394 122c40 0 75 10 106 28
c30 20 54 46 70 80c18 34 26 73 26 118c0 29 -4 55 -10 79c-8 24 -18 46 -31 65l-233 -357c22 -9 46 -13 72 -13zM460 765h-146l88 152h164z" />
    <glyph glyph-name="oslashacute" unicode="&#x1ff;" horiz-adv-x="597" 
d="M47 -52l67 107c-26 24 -46 54 -60 89c-15 35 -22 74 -22 117c0 54 11 102 34 143s54 74 94 97s86 35 138 35c38 0 73 -6 106 -19l35 56h111l-67 -107c26 -24 46 -54 61 -88c14 -36 21 -74 21 -117c0 -54 -11 -102 -34 -143c-23 -42 -54 -75 -94 -98s-86 -35 -139 -35
c-37 0 -72 6 -105 19l-35 -56h-111zM177 261c0 -31 5 -58 15 -81l144 229c-12 4 -25 6 -38 6c-35 0 -64 -14 -87 -41c-23 -28 -34 -66 -34 -113zM298 106c36 0 65 14 88 42s34 66 34 113c0 31 -5 58 -15 81l-144 -230c11 -4 24 -6 37 -6zM361 590h-140l76 159h158z" />
    <glyph glyph-name="uni0218" unicode="&#x218;" horiz-adv-x="641" 
d="M326 -16c-85 0 -154 20 -204 58c-52 40 -85 93 -100 162h161c7 -24 23 -44 49 -59c24 -15 55 -23 92 -23c35 0 63 6 84 19s32 30 32 53c0 14 -3 26 -10 36c-6 10 -18 19 -36 26c-19 8 -46 15 -83 21l-74 13c-64 11 -112 33 -145 64c-32 31 -48 76 -48 135
c0 46 12 86 36 119s57 59 98 77s87 27 138 27c77 0 140 -18 190 -54s80 -88 91 -155h-161c-6 23 -19 40 -38 53c-20 12 -47 18 -80 18c-35 0 -62 -6 -82 -19c-19 -13 -29 -30 -29 -51c0 -19 8 -35 24 -46s48 -21 96 -30l73 -12c136 -23 204 -92 204 -205
c0 -49 -12 -90 -36 -124c-23 -34 -56 -60 -98 -77c-41 -17 -89 -26 -144 -26zM248 -273c13 17 23 33 31 45c8 14 16 28 24 44c-18 3 -33 11 -44 22s-17 26 -17 44c0 20 8 37 24 51c15 14 35 21 59 21c27 0 49 -8 65 -22c15 -16 23 -35 23 -59c0 -23 -5 -47 -16 -69
c-11 -24 -26 -49 -47 -77h-102z" />
    <glyph glyph-name="uni0219" unicode="&#x219;" horiz-adv-x="510" 
d="M263 -15c-67 0 -121 15 -163 46c-41 31 -65 71 -70 122h144c3 -13 12 -24 28 -34c15 -10 34 -15 57 -15s40 4 53 13s19 19 19 32s-5 23 -15 31c-11 7 -30 13 -57 17l-73 10c-51 7 -88 24 -112 51s-36 61 -36 103c0 35 10 66 28 93c20 26 45 46 78 60c32 15 68 22 108 22
c45 0 83 -8 114 -23s56 -35 74 -60s29 -51 32 -80h-142c-3 13 -12 24 -25 32s-30 12 -51 12s-37 -5 -50 -13c-12 -10 -18 -21 -18 -34c0 -12 5 -21 16 -28c11 -6 28 -11 53 -14l72 -10c51 -7 90 -25 115 -55s38 -66 38 -107c0 -35 -10 -66 -28 -92c-20 -25 -45 -45 -78 -58
c-33 -14 -70 -21 -111 -21zM193 -273c13 17 23 33 31 45c8 14 16 28 24 44c-18 3 -33 11 -44 22s-17 26 -17 44c0 20 8 37 23 51c16 14 36 21 60 21c27 0 49 -8 64 -22c16 -16 24 -35 24 -59c0 -23 -5 -47 -16 -69c-11 -24 -26 -49 -47 -77h-102z" />
    <glyph glyph-name="uni021A" unicode="&#x21a;" horiz-adv-x="677" 
d="M420 0h-163v555h-221v141h605v-141h-221v-555zM260 -273c13 17 23 33 31 45c8 14 16 28 24 44c-18 3 -33 11 -44 22s-17 26 -17 44c0 20 8 37 24 51c15 14 35 21 59 21c27 0 49 -8 65 -22c15 -16 23 -35 23 -59c0 -23 -5 -47 -16 -69c-11 -24 -26 -49 -47 -77h-102z" />
    <glyph glyph-name="uni021B" unicode="&#x21b;" horiz-adv-x="378" 
d="M267 -4c-54 0 -96 15 -125 44c-30 29 -45 72 -45 129v222h-80v130h80v152c25 1 51 4 77 8c25 4 50 9 75 16v-176h95v-130h-95v-205c0 -20 5 -35 15 -46c10 -10 24 -15 41 -15h39v-129h-77zM149 -273c13 17 23 33 31 45c8 14 16 28 24 44c-18 3 -33 11 -44 22
s-17 26 -17 44c0 20 8 37 23 51c16 14 36 21 60 21c27 0 49 -8 64 -22c16 -16 24 -35 24 -59c0 -23 -5 -47 -16 -69c-11 -24 -26 -49 -47 -77h-102z" />
    <glyph glyph-name="uni021E" unicode="&#x21e;" horiz-adv-x="769" 
d="M72 0v696h163v-261h299v261h163v-696h-163v294h-299v-294h-163zM298 765l-124 152h146l65 -67l65 67h146l-124 -152h-174z" />
    <glyph glyph-name="uni021F" unicode="&#x21f;" horiz-adv-x="596" 
d="M60 0v725h152v-256c37 45 86 67 147 67c55 0 99 -20 132 -58c33 -40 49 -91 49 -156v-322h-152v302c0 30 -7 54 -21 72s-36 27 -65 27c-27 0 -48 -9 -65 -27c-17 -17 -25 -41 -25 -70v-304h-152zM49 765l-124 152h146l65 -67l65 67h146l-124 -152h-174z" />
    <glyph glyph-name="uni0220" unicode="&#x220;" horiz-adv-x="752" 
d="M72 0v696h157v-94c24 35 54 62 91 82c36 18 76 28 119 28c50 0 94 -13 131 -38c38 -25 67 -60 88 -104c21 -43 31 -93 31 -150v-625h-163v603c0 53 -12 95 -35 125s-58 45 -103 45c-43 0 -79 -14 -108 -43c-30 -29 -45 -71 -45 -128v-397h-163z" />
    <glyph glyph-name="uni0226" unicode="&#x226;" horiz-adv-x="720" 
d="M536 0l-48 139h-264l-48 -139h-164l263 696h170l263 -696h-172zM272 278h167l-83 241zM359 754c-24 0 -44 8 -61 26c-17 16 -25 37 -25 61s8 45 25 61c17 18 37 26 61 26c25 0 45 -8 62 -26c17 -16 25 -37 25 -61s-8 -45 -25 -61c-17 -18 -37 -26 -62 -26z" />
    <glyph glyph-name="uni0227" unicode="&#x227;" horiz-adv-x="549" 
d="M208 -15c-55 0 -98 15 -131 45c-33 31 -49 71 -49 121c0 55 20 97 59 127s94 45 163 45h95v18c0 26 -7 45 -22 57c-15 13 -35 19 -60 19c-22 0 -40 -4 -53 -13c-13 -8 -22 -17 -25 -28h-143c9 45 32 83 71 114s90 46 155 46c69 0 124 -17 164 -51c41 -34 61 -88 61 -161
v-324h-138v59c-16 -26 -37 -45 -65 -57c-26 -11 -54 -17 -82 -17zM248 103c15 0 30 3 46 10c14 7 27 17 36 29c10 14 15 30 15 49v30h-88c-27 0 -47 -5 -61 -15c-15 -11 -22 -26 -22 -45s7 -33 21 -43s32 -15 53 -15zM272 579c-24 0 -44 9 -61 25c-17 18 -25 38 -25 62
s8 44 25 62c17 16 37 25 61 25c25 0 45 -9 62 -25c17 -18 25 -38 25 -62s-8 -44 -25 -62c-17 -16 -37 -25 -62 -25z" />
    <glyph glyph-name="uni022E" unicode="&#x22e;" horiz-adv-x="790" 
d="M394 -16c-52 0 -100 9 -144 27c-43 18 -81 43 -112 76c-32 33 -57 71 -74 115c-18 45 -27 93 -27 146s9 101 27 146c17 44 42 82 74 115c31 33 69 58 112 76c44 18 92 27 144 27c53 0 101 -9 144 -27c44 -18 82 -43 114 -76s57 -71 74 -115c18 -45 27 -93 27 -146
s-9 -101 -27 -146c-17 -44 -42 -82 -74 -115s-70 -58 -114 -76c-43 -18 -91 -27 -144 -27zM394 128c38 0 72 9 101 28c29 18 52 44 69 77c16 33 24 72 24 115c0 44 -8 82 -24 116c-17 32 -40 58 -69 76c-29 19 -63 28 -101 28c-37 0 -70 -9 -100 -28
c-28 -18 -51 -44 -68 -76c-16 -34 -24 -72 -24 -116c0 -43 8 -82 24 -115c17 -33 40 -59 68 -77c30 -19 63 -28 100 -28zM393 754c-24 0 -44 8 -61 26c-17 16 -25 37 -25 61s8 45 25 61c17 18 37 26 61 26c25 0 45 -8 62 -26c17 -16 25 -37 25 -61s-8 -45 -25 -61
c-17 -18 -37 -26 -62 -26z" />
    <glyph glyph-name="uni022F" unicode="&#x22f;" horiz-adv-x="597" 
d="M298 -15c-52 0 -98 12 -138 35s-71 56 -94 98c-23 41 -34 89 -34 143s11 102 34 143s54 74 94 97s86 35 138 35c53 0 99 -12 139 -35s71 -56 94 -97s34 -89 34 -143s-11 -102 -34 -143c-23 -42 -54 -75 -94 -98s-86 -35 -139 -35zM298 118c33 0 60 13 82 38
c20 26 31 61 31 105s-11 79 -31 104c-22 25 -49 38 -82 38s-60 -13 -80 -38c-22 -25 -32 -60 -32 -104s10 -79 32 -105c20 -25 47 -38 80 -38zM297 579c-24 0 -44 9 -61 25c-17 18 -25 38 -25 62s8 44 25 62c17 16 37 25 61 25c25 0 45 -9 62 -25c17 -18 25 -38 25 -62
s-8 -44 -25 -62c-17 -16 -37 -25 -62 -25z" />
    <glyph glyph-name="uni0232" unicode="&#x232;" horiz-adv-x="686" 
d="M262 0v255l-252 441h183l154 -289l154 289h176l-252 -441v-255h-163zM173 899h340v-115h-340v115z" />
    <glyph glyph-name="uni0233" unicode="&#x233;" horiz-adv-x="578" 
d="M127 -205l85 205l-204 521h173l114 -342l113 342h162l-281 -726h-162zM129 730h328v-113h-328v113z" />
    <glyph glyph-name="uni0237" unicode="&#x237;" horiz-adv-x="273" 
d="M-25 -205v130h30c18 0 32 6 41 17c10 12 15 28 15 49v530h152v-548c0 -57 -15 -101 -44 -131c-29 -32 -71 -47 -125 -47h-69z" />
    <glyph glyph-name="uni0241" unicode="&#x241;" horiz-adv-x="642" 
d="M225 0v176c0 47 8 86 23 116c16 32 45 60 88 87c26 17 46 31 60 43c15 11 25 22 30 34c6 10 9 23 9 36c0 23 -10 42 -31 57s-51 22 -90 22c-40 0 -71 -8 -94 -23c-22 -15 -36 -35 -41 -58h-153c6 42 21 80 46 114c25 33 58 60 100 80c42 19 92 29 151 29
c55 0 103 -9 145 -27c40 -19 72 -44 95 -78c23 -32 34 -71 34 -116c0 -43 -11 -78 -33 -108c-21 -28 -56 -58 -104 -88c-35 -21 -57 -42 -68 -62c-10 -21 -15 -46 -15 -75v-159h-152z" />
    <glyph glyph-name="uni0242" unicode="&#x242;" horiz-adv-x="537" 
d="M170 0v35c0 28 3 53 8 75c6 21 16 42 32 61c14 19 35 39 62 60c31 23 52 43 64 59c11 15 17 30 17 45c0 17 -8 33 -23 47s-36 21 -62 21c-27 0 -50 -7 -68 -21c-17 -13 -28 -30 -33 -49h-152c5 39 19 73 41 103c23 31 52 55 88 73c37 18 79 27 126 27c46 0 87 -8 122 -26
c36 -16 64 -40 84 -70c21 -31 31 -66 31 -107c0 -37 -10 -69 -29 -97c-20 -29 -48 -57 -83 -86c-22 -18 -39 -34 -49 -46c-12 -14 -19 -26 -22 -38c-4 -12 -6 -25 -6 -39v-27h-148z" />
    <glyph glyph-name="uni0244" unicode="&#x244;" horiz-adv-x="828" 
d="M22 333v120h82v243h162v-243h295v243h163v-243h82v-120h-82v-31c0 -65 -12 -121 -36 -168c-23 -48 -58 -85 -104 -111s-103 -39 -171 -39c-67 0 -123 13 -169 39s-81 63 -104 111c-24 47 -36 103 -36 168v31h-82zM266 322c0 -59 11 -106 34 -142c23 -34 60 -52 113 -52
c54 0 92 18 115 52c22 36 33 83 33 142v11h-295v-11z" />
    <glyph glyph-name="uni024C" unicode="&#x24c;" horiz-adv-x="729" 
d="M110 0v228h-80v138h80v330h297c56 0 104 -10 145 -29s72 -46 94 -81s33 -76 33 -123c0 -49 -12 -91 -35 -127c-24 -35 -56 -62 -96 -81l169 -255h-185l-146 228h-113v-228h-163zM384 558h-111v-192h111c45 0 78 8 99 25s31 41 31 74c0 32 -10 55 -31 71
c-21 14 -54 22 -99 22z" />
    <glyph glyph-name="uni024D" unicode="&#x24d;" horiz-adv-x="414" 
d="M76 0v168h-65v90h65v263h145v-84c16 28 36 50 61 65c24 15 52 23 83 23h23v-142h-28c-39 0 -70 -11 -95 -35c-25 -22 -37 -53 -37 -90h160v-90h-160v-168h-152z" />
    <glyph glyph-name="uni0250" unicode="&#x250;" horiz-adv-x="549" 
d="M341 536c55 0 99 -15 131 -46c33 -30 49 -70 49 -120c0 -55 -20 -97 -59 -127s-94 -45 -163 -45h-95v-18c0 -26 8 -45 22 -58c16 -12 35 -18 60 -18c22 0 40 4 53 12c13 9 22 18 25 29h143c-9 -45 -32 -83 -71 -113c-39 -32 -90 -47 -155 -47c-69 0 -124 17 -165 51
c-40 35 -60 88 -60 161v324h138v-59c16 26 38 45 64 56c28 12 55 18 83 18zM301 418c-15 0 -31 -3 -45 -10c-16 -7 -28 -16 -38 -30c-9 -12 -14 -29 -14 -48v-30h88c27 0 47 5 62 16c14 11 21 25 21 44s-7 33 -21 43s-32 15 -53 15z" />
    <glyph glyph-name="uni0251" unicode="&#x251;" horiz-adv-x="630" 
d="M247 -15c-43 0 -80 11 -113 35c-32 22 -57 55 -75 96s-27 89 -27 143c0 55 9 103 28 145c18 41 44 74 77 97s72 35 115 35c67 0 118 -29 154 -88c3 27 7 51 12 73h145c-15 -90 -23 -173 -23 -250v-37c0 -41 4 -70 12 -85s23 -23 44 -23h12v-130h-46
c-83 0 -133 29 -150 87c-18 -31 -41 -55 -69 -73c-28 -16 -60 -25 -96 -25zM291 118c32 0 57 13 77 39c18 26 28 60 28 103s-10 78 -28 104c-20 26 -45 39 -77 39s-57 -13 -77 -39c-18 -26 -28 -61 -28 -104s10 -77 28 -103c20 -26 45 -39 77 -39z" />
    <glyph glyph-name="uni0253" unicode="&#x253;" horiz-adv-x="617" 
d="M60 0v526c0 69 18 119 56 151c36 32 89 48 156 48h76v-121h-59c-52 0 -78 -28 -78 -84v-61c17 22 38 39 63 51c24 12 51 18 82 18c45 0 84 -12 118 -34c35 -24 62 -55 82 -96c19 -41 29 -88 29 -141s-10 -100 -29 -141c-20 -41 -47 -74 -82 -97c-34 -23 -73 -35 -118 -35
c-33 0 -62 7 -87 20s-47 32 -64 55v-59h-145zM318 117c33 0 60 13 82 39c20 25 31 59 31 100s-11 75 -31 100c-22 26 -49 39 -82 39s-60 -13 -82 -39c-21 -25 -32 -59 -32 -100s11 -75 32 -100c22 -26 49 -39 82 -39z" />
    <glyph glyph-name="uni0254" unicode="&#x254;" horiz-adv-x="555" 
d="M262 -15c-45 0 -84 9 -117 25c-33 18 -60 41 -79 70c-20 29 -32 62 -37 98h152c3 -19 12 -33 25 -44c14 -11 33 -16 58 -16c31 0 57 13 76 38s29 60 29 105c0 43 -10 78 -29 103c-19 26 -45 39 -76 39c-25 0 -44 -6 -56 -17c-14 -12 -22 -27 -25 -46h-154
c5 36 17 69 37 98c19 30 46 54 79 72c33 17 72 26 117 26c53 0 100 -12 138 -36c40 -23 70 -56 91 -97s32 -89 32 -142c0 -54 -11 -102 -32 -143s-51 -74 -91 -98c-38 -23 -85 -35 -138 -35z" />
    <glyph glyph-name="uni0256" unicode="&#x256;" horiz-adv-x="617" 
d="M261 -15c-45 0 -84 12 -119 35c-34 23 -61 56 -80 98c-20 41 -30 89 -30 143s10 102 30 143c19 41 46 74 80 97c35 23 74 35 119 35c31 0 58 -6 83 -18c24 -12 45 -29 62 -51v258h151v-734c0 -21 5 -37 14 -49c9 -11 23 -17 42 -17h30v-130h-62c-54 0 -96 15 -125 47
c-29 30 -44 74 -44 131v87c-17 -24 -39 -42 -64 -56c-25 -12 -54 -19 -87 -19zM299 118c33 0 61 13 82 38c21 26 32 61 32 104c0 44 -11 79 -32 104c-21 26 -49 39 -82 39s-60 -13 -81 -38s-32 -60 -32 -105c0 -44 11 -79 32 -104s48 -38 81 -38z" />
    <glyph glyph-name="uni0257" unicode="&#x257;" horiz-adv-x="652" 
d="M261 -15c-45 0 -84 12 -119 35c-34 23 -61 56 -80 98c-20 41 -30 89 -30 143s10 102 30 143c19 41 46 74 80 97c35 23 74 35 119 35c31 0 58 -6 83 -18c24 -12 45 -29 62 -51v80c0 57 15 101 45 132s72 46 126 46h65v-129h-25c-19 0 -34 -5 -45 -16
c-10 -10 -15 -27 -15 -52v-528h-145v60c-17 -24 -39 -42 -64 -56c-25 -12 -54 -19 -87 -19zM299 118c33 0 61 13 82 38c21 26 32 61 32 104c0 44 -11 79 -32 104c-21 26 -49 39 -82 39s-60 -13 -81 -38s-32 -60 -32 -105c0 -44 11 -79 32 -104s48 -38 81 -38z" />
    <glyph glyph-name="uni0258" unicode="&#x258;" horiz-adv-x="569" 
d="M274 -15c-61 0 -111 14 -152 41c-41 28 -67 65 -80 112h151c5 -9 15 -17 29 -24c13 -7 30 -10 51 -10c64 0 102 36 113 108h-352v48c0 85 21 152 63 202c42 49 102 74 180 74c54 0 101 -12 139 -36c40 -23 69 -56 90 -97s31 -88 31 -140c0 -86 -23 -154 -70 -203
c-47 -50 -111 -75 -193 -75zM278 417c-32 0 -56 -10 -72 -29c-17 -19 -25 -44 -26 -73h206c-11 68 -47 102 -108 102z" />
    <glyph glyph-name="uni0259" unicode="&#x259;" horiz-adv-x="569" 
d="M274 536c55 0 102 -11 141 -34s69 -55 91 -96c20 -42 31 -92 31 -149c0 -51 -10 -98 -31 -139s-50 -74 -90 -98c-38 -23 -85 -35 -139 -35c-78 0 -138 25 -180 75c-42 49 -63 116 -63 201v48h352c-11 72 -49 108 -113 108c-21 0 -38 -3 -51 -10c-14 -7 -24 -15 -29 -24
h-151c13 47 39 85 80 112s91 41 152 41zM278 104c61 0 97 34 108 102h-206c1 -30 9 -54 26 -74c17 -18 41 -28 72 -28z" />
    <glyph glyph-name="uni025B" unicode="&#x25b;" horiz-adv-x="545" 
d="M269 -15c-47 0 -89 7 -124 20s-63 32 -82 55c-19 24 -29 51 -29 81c0 31 11 57 32 79c22 21 49 36 82 44c-31 9 -56 25 -74 46c-17 21 -26 46 -26 75s10 55 28 78c20 23 46 41 78 53c34 14 71 20 112 20c64 0 117 -14 160 -42c42 -28 69 -69 82 -122h-144
c-8 15 -20 27 -36 34c-15 7 -34 11 -55 11c-24 0 -43 -5 -57 -13c-13 -10 -20 -22 -20 -38c0 -15 6 -27 20 -37c12 -10 31 -15 56 -15h106v-107h-99c-28 0 -51 -4 -67 -12c-18 -8 -26 -21 -26 -38c0 -18 8 -31 24 -40c15 -9 36 -13 63 -13c24 0 44 3 61 10c17 6 28 17 35 32
h150c-15 -55 -44 -95 -87 -122c-43 -26 -98 -39 -163 -39z" />
    <glyph glyph-name="uni0261" unicode="&#x261;" horiz-adv-x="617" 
d="M260 6c-45 0 -84 11 -118 34c-35 23 -62 54 -81 94s-29 86 -29 137s10 97 29 137s46 71 81 94c34 23 73 34 118 34c33 0 63 -7 88 -20s47 -31 64 -54v59h145v-498c0 -78 -23 -138 -69 -180c-45 -42 -107 -63 -185 -63c-67 0 -124 16 -169 46c-46 32 -75 72 -86 122h156
c7 -13 19 -23 36 -30c17 -8 36 -12 59 -12c34 0 60 8 79 25s28 43 28 79v63c-17 -21 -38 -37 -63 -49s-52 -18 -83 -18zM298 138c33 0 61 12 82 37c22 25 33 57 33 97c0 39 -11 71 -33 96c-21 25 -49 37 -82 37s-60 -12 -80 -37c-22 -25 -32 -57 -32 -96
c0 -40 10 -72 32 -97c20 -25 47 -37 80 -37z" />
    <glyph glyph-name="uni0263" unicode="&#x263;" horiz-adv-x="608" 
d="M304 -220c-36 0 -66 7 -90 20c-23 13 -41 30 -53 52c-12 20 -18 43 -18 67c0 17 2 33 6 48s11 34 22 56s26 51 47 87l-210 411h170l126 -289l127 289h169l-210 -411c19 -35 34 -62 46 -84c10 -20 18 -38 22 -54c5 -14 7 -30 7 -45c0 -27 -6 -51 -18 -73
c-12 -23 -30 -41 -53 -54c-24 -13 -54 -20 -90 -20zM268 -69c0 -12 3 -22 10 -29c6 -7 15 -11 26 -11s20 4 26 11c7 7 10 17 10 29c0 11 -2 23 -8 35c-4 13 -14 30 -28 52c-14 -23 -24 -40 -28 -52c-6 -12 -8 -24 -8 -35z" />
    <glyph glyph-name="uni0268" unicode="&#x268;" horiz-adv-x="302" 
d="M151 572c-25 0 -46 9 -63 26c-18 18 -27 39 -27 64s9 47 27 64c17 17 38 26 63 26s47 -9 65 -26c17 -17 26 -39 26 -64s-9 -46 -26 -64c-18 -17 -40 -26 -65 -26zM75 0v246h-64v107h64v168h152v-168h64v-107h-64v-246h-152z" />
    <glyph glyph-name="uni0269" unicode="&#x269;" horiz-adv-x="322" 
d="M55 169v352h152v-334c0 -41 19 -61 57 -61h38v-130h-76c-55 0 -97 15 -126 44c-30 30 -45 73 -45 129z" />
    <glyph glyph-name="uni026A" unicode="&#x26a;" horiz-adv-x="356" 
d="M37 0v130h65v262h-65v129h282v-129h-65v-262h65v-130h-282z" />
    <glyph glyph-name="uni0272" unicode="&#x272;" horiz-adv-x="596" 
d="M-26 -205v130h30c19 0 33 6 42 17c9 12 14 28 14 49v530h145v-58c38 49 89 73 154 73c55 0 99 -20 132 -58c33 -40 49 -91 49 -156v-322h-152v302c0 30 -7 54 -21 72s-36 27 -65 27c-27 0 -48 -9 -65 -27c-17 -17 -25 -41 -25 -70v-331c0 -57 -15 -101 -44 -131
c-29 -32 -71 -47 -125 -47h-69z" />
    <glyph glyph-name="uni0275" unicode="&#x275;" horiz-adv-x="597" 
d="M298 -15c-52 0 -98 12 -138 35s-71 56 -94 98c-23 41 -34 89 -34 143s11 102 34 143c23 42 54 75 94 98s86 35 138 35c53 0 99 -12 139 -35s71 -56 94 -98c23 -41 34 -89 34 -143s-11 -102 -34 -143c-23 -42 -54 -75 -94 -98s-86 -35 -139 -35zM298 411
c-28 0 -52 -9 -74 -27c-20 -17 -35 -42 -43 -73h235c-8 31 -23 56 -44 73c-21 18 -46 27 -74 27zM298 111c27 0 52 8 73 25s36 40 44 71h-233c8 -31 22 -54 44 -71c20 -17 45 -25 72 -25z" />
    <glyph glyph-name="uni0283" unicode="&#x283;" horiz-adv-x="309" 
d="M307 725v-128h-30c-21 0 -37 -6 -48 -19c-11 -12 -17 -28 -17 -48v-551c0 -57 -16 -101 -48 -135c-33 -32 -78 -49 -135 -49h-64v128h30c21 0 37 6 49 19c10 12 16 28 16 48v551c0 57 16 102 49 135s77 49 134 49h64z" />
    <glyph glyph-name="uni0289" unicode="&#x289;" horiz-adv-x="626" 
d="M11 246v107h65v168h152v-168h170v168h152v-168h65v-107h-65v-246h-145v56c-16 -23 -36 -40 -60 -52c-24 -13 -51 -19 -81 -19c-61 0 -107 20 -140 60c-32 40 -48 91 -48 154v47h-65zM228 216c0 -29 7 -52 21 -70c14 -17 35 -26 63 -26c27 0 48 9 64 26c14 18 22 41 22 70
v30h-170v-30z" />
    <glyph glyph-name="uni028A" unicode="&#x28a;" horiz-adv-x="608" 
d="M413 245c0 59 -20 108 -60 149v127h222v-129h-91c25 -20 45 -45 60 -74c14 -29 21 -63 21 -102c0 -45 -11 -84 -33 -120c-22 -34 -52 -62 -92 -82c-38 -20 -84 -30 -136 -30c-51 0 -97 10 -136 30c-39 21 -70 48 -92 83s-33 74 -33 119c0 39 7 73 22 102s35 54 60 74h-92
v129h222v-128c-40 -40 -60 -89 -60 -148c0 -38 10 -69 30 -92s46 -35 79 -35s59 12 79 35s30 54 30 92z" />
    <glyph glyph-name="uni028B" unicode="&#x28b;" horiz-adv-x="586" 
d="M56 208v313h152v-304c0 -29 8 -52 24 -70c15 -18 37 -27 66 -27c67 0 100 54 100 161c0 41 -6 70 -18 86c-11 16 -28 24 -50 24h-23v130h51c59 0 106 -19 141 -57c35 -37 52 -101 52 -190c0 -91 -23 -162 -67 -213c-46 -51 -109 -76 -190 -76c-52 0 -96 10 -131 29
c-35 20 -62 47 -80 80c-18 34 -27 72 -27 114z" />
    <glyph glyph-name="uni0292" unicode="&#x292;" horiz-adv-x="528" 
d="M260 -220c-75 0 -133 17 -174 52c-42 35 -67 79 -74 134h155c5 -18 16 -32 31 -44c16 -10 36 -16 61 -16c30 0 53 10 70 30s25 45 25 76s-11 57 -32 77c-22 20 -60 30 -115 30h-71v94l183 178h-285v130h448v-124l-181 -177c42 -1 78 -11 109 -30s54 -44 71 -75
s25 -67 25 -107c0 -45 -10 -84 -30 -118c-20 -35 -48 -62 -85 -81s-80 -29 -131 -29z" />
    <glyph glyph-name="uni0294" unicode="&#x294;" horiz-adv-x="524" 
d="M164 0v220c0 32 3 60 8 84c6 23 16 45 32 66c14 20 35 40 62 61c31 24 52 44 64 59c11 15 17 31 17 47c0 18 -8 34 -23 49c-15 14 -36 21 -62 21c-27 0 -50 -7 -68 -21c-17 -13 -28 -30 -33 -49h-152c5 38 19 72 41 103c23 31 52 55 88 73c37 18 79 27 126 27
c46 0 87 -8 122 -26c36 -16 64 -40 84 -71c21 -31 31 -67 31 -108c0 -38 -10 -71 -30 -99s-47 -57 -82 -86c-22 -19 -39 -35 -49 -49c-12 -14 -19 -28 -22 -41c-4 -13 -6 -29 -6 -47v-213h-148z" />
    <glyph glyph-name="uni02B7" unicode="&#x2b7;" horiz-adv-x="622" 
d="M136 400l-127 395h132l57 -233l58 232h111l61 -232l57 233h128l-127 -395h-110l-66 250l-63 -250h-111z" />
    <glyph glyph-name="uni02B9" unicode="&#x2b9;" horiz-adv-x="592" 
d="M228 725h161l-57 -283h-129z" />
    <glyph glyph-name="uni02BB" unicode="&#x2bb;" horiz-adv-x="592" 
d="M292 403c-29 0 -52 9 -70 28c-19 19 -28 44 -28 77c0 32 6 64 18 96c13 32 34 72 65 121h122c-22 -35 -39 -64 -53 -87c-12 -24 -21 -45 -26 -64c19 -5 35 -14 48 -29c12 -15 18 -32 18 -52c0 -23 -8 -44 -26 -63c-16 -18 -39 -27 -68 -27z" />
    <glyph glyph-name="uni02BC" unicode="&#x2bc;" horiz-adv-x="283" 
d="M30 403c22 35 39 64 52 87c13 24 21 45 26 64c-19 5 -35 14 -47 29s-18 32 -18 52c0 23 9 44 25 63c18 18 40 27 68 27c29 0 53 -9 72 -27c18 -19 27 -45 27 -78c0 -32 -6 -64 -19 -96c-12 -32 -34 -72 -65 -121h-121z" />
    <glyph glyph-name="uni02BE" unicode="&#x2be;" horiz-adv-x="592" 
d="M230 464v79c15 0 28 5 37 15c9 9 14 21 14 36s-5 28 -14 38c-9 9 -22 14 -37 14v79c25 0 48 -6 68 -17c19 -12 35 -28 46 -48c12 -19 18 -41 18 -66s-6 -47 -18 -66c-11 -20 -27 -36 -46 -47c-20 -11 -43 -17 -68 -17z" />
    <glyph glyph-name="uni02BF" unicode="&#x2bf;" horiz-adv-x="592" 
d="M362 464c-25 0 -47 6 -67 17s-36 27 -47 47c-12 19 -18 41 -18 66s6 47 18 66c11 20 27 36 47 48c20 11 42 17 67 17v-79c-15 0 -27 -5 -36 -14c-10 -10 -15 -23 -15 -38s5 -27 15 -36c9 -10 21 -15 36 -15v-79z" />
    <glyph glyph-name="circumflex" unicode="&#x2c6;" horiz-adv-x="592" 
d="M90 590l124 159h164l124 -159h-142l-64 73l-64 -73h-142z" />
    <glyph glyph-name="caron" unicode="&#x2c7;" horiz-adv-x="592" 
d="M214 590l-124 159h142l64 -73l64 73h142l-124 -159h-164z" />
    <glyph glyph-name="uni02C8" unicode="&#x2c8;" horiz-adv-x="592" 
d="M230 442l-6 283h144l-5 -283h-133z" />
    <glyph glyph-name="uni02C9" unicode="&#x2c9;" horiz-adv-x="592" 
d="M132 730h328v-113h-328v113z" />
    <glyph glyph-name="uni02CA" unicode="&#x2ca;" horiz-adv-x="592" 
d="M319 590h-140l76 159h158z" />
    <glyph glyph-name="uni02CB" unicode="&#x2cb;" horiz-adv-x="592" 
d="M273 590l-94 159h158l76 -159h-140z" />
    <glyph glyph-name="breve" unicode="&#x2d8;" horiz-adv-x="592" 
d="M296 582c-53 0 -96 15 -130 45c-33 30 -51 70 -54 121h119c3 -19 10 -34 21 -44c11 -12 26 -17 44 -17s33 5 44 17c11 10 18 25 21 44h119c-3 -51 -21 -91 -54 -121s-77 -45 -130 -45z" />
    <glyph glyph-name="dotaccent" unicode="&#x2d9;" horiz-adv-x="592" 
d="M296 579c-24 0 -44 9 -61 25c-17 18 -25 38 -25 62s8 44 25 62c17 16 37 25 61 25c25 0 45 -9 62 -25c17 -18 25 -38 25 -62s-8 -44 -25 -62c-17 -16 -37 -25 -62 -25z" />
    <glyph glyph-name="ring" unicode="&#x2da;" horiz-adv-x="592" 
d="M296 566c-24 0 -46 6 -66 18c-20 11 -36 27 -48 46c-12 20 -18 42 -18 66c0 25 6 47 18 66c12 20 28 36 48 48c20 11 42 17 66 17c25 0 47 -6 66 -17c20 -12 36 -28 48 -48c12 -19 18 -41 18 -66c0 -24 -6 -46 -18 -66c-12 -19 -28 -35 -48 -46c-19 -12 -41 -18 -66 -18z
M296 644c15 0 27 5 37 15s15 22 15 37s-5 28 -15 38c-10 9 -22 14 -37 14s-27 -5 -37 -14c-10 -10 -15 -23 -15 -38s5 -27 15 -37s22 -15 37 -15z" />
    <glyph glyph-name="ogonek" unicode="&#x2db;" horiz-adv-x="592" 
d="M327 -258c-47 0 -85 11 -112 32c-27 22 -41 50 -41 85c0 73 48 129 145 169l56 -28c-29 -21 -50 -39 -61 -56s-17 -34 -17 -51s6 -31 17 -40c12 -9 27 -14 45 -14h34v-97h-66z" />
    <glyph glyph-name="tilde" unicode="&#x2dc;" horiz-adv-x="592" 
d="M373 587c-14 0 -28 2 -41 7c-14 5 -31 13 -51 26c-9 6 -17 10 -23 12s-12 3 -17 3c-19 0 -28 -10 -28 -31v-16h-106v42c0 35 10 63 31 84s48 31 81 31c14 0 28 -2 41 -7c14 -4 31 -13 51 -26c9 -6 17 -10 23 -12s12 -3 17 -3c19 0 28 10 28 31v16h106v-42
c0 -36 -10 -64 -31 -84c-21 -21 -48 -31 -81 -31z" />
    <glyph glyph-name="hungarumlaut" unicode="&#x2dd;" horiz-adv-x="592" 
d="M290 590l86 159h149l-102 -159h-133zM76 590l76 159h150l-93 -159h-133z" />
    <glyph glyph-name="gravecomb" unicode="&#x300;" horiz-adv-x="0" 
d="M-63 590l-94 159h158l76 -159h-140z" />
    <glyph glyph-name="acutecomb" unicode="&#x301;" horiz-adv-x="0" 
d="M63 590h-140l76 159h158z" />
    <glyph glyph-name="uni0302" unicode="&#x302;" horiz-adv-x="0" 
d="M-206 590l124 159h164l124 -159h-142l-64 73l-64 -73h-142z" />
    <glyph glyph-name="tildecomb" unicode="&#x303;" horiz-adv-x="0" 
d="M77 587c-14 0 -28 2 -41 7c-14 5 -31 13 -51 26c-9 6 -17 10 -23 12s-12 3 -17 3c-19 0 -28 -10 -28 -31v-16h-106v42c0 35 10 63 31 84s48 31 81 31c14 0 28 -2 41 -7c14 -4 31 -13 51 -26c9 -6 17 -10 23 -12s12 -3 17 -3c19 0 28 10 28 31v16h106v-42
c0 -36 -10 -64 -31 -84c-21 -21 -48 -31 -81 -31z" />
    <glyph glyph-name="uni0304" unicode="&#x304;" horiz-adv-x="0" 
d="M-164 730h328v-113h-328v113z" />
    <glyph glyph-name="uni0306" unicode="&#x306;" horiz-adv-x="0" 
d="M0 582c-53 0 -96 15 -130 45c-33 30 -51 70 -54 121h119c3 -19 10 -34 21 -44c11 -12 26 -17 44 -17s33 5 44 17c11 10 18 25 21 44h119c-3 -51 -21 -91 -54 -121s-77 -45 -130 -45z" />
    <glyph glyph-name="uni0307" unicode="&#x307;" horiz-adv-x="0" 
d="M-1 579c-24 0 -44 9 -61 25c-17 18 -25 38 -25 62s8 44 25 62c17 16 37 25 61 25c25 0 45 -9 62 -25c17 -18 25 -38 25 -62s-8 -44 -25 -62c-17 -16 -37 -25 -62 -25z" />
    <glyph glyph-name="uni0308" unicode="&#x308;" horiz-adv-x="0" 
d="M115 582c-23 0 -42 8 -57 23s-23 34 -23 57s8 42 23 57s34 23 57 23s42 -8 57 -23c16 -15 24 -34 24 -57s-8 -42 -24 -57c-15 -15 -34 -23 -57 -23zM-115 582c-23 0 -42 8 -57 23c-16 15 -24 34 -24 57s8 42 24 57c15 15 34 23 57 23s42 -8 57 -23s23 -34 23 -57
s-8 -42 -23 -57s-34 -23 -57 -23z" />
    <glyph glyph-name="hookabovecomb" unicode="&#x309;" horiz-adv-x="0" 
d="M-64 565l-20 75l43 11c15 5 27 9 35 14c7 5 11 11 11 19c0 15 -12 23 -35 23h-76v85h96c41 0 72 -9 94 -28c22 -18 33 -42 33 -73c0 -24 -6 -43 -18 -57c-12 -15 -28 -26 -49 -34c-21 -9 -44 -17 -71 -24z" />
    <glyph glyph-name="uni030A" unicode="&#x30a;" horiz-adv-x="0" 
d="M0 566c-24 0 -46 6 -66 18c-20 11 -36 27 -48 46c-12 20 -18 42 -18 66c0 25 6 47 18 66c12 20 28 36 48 48c20 11 42 17 66 17c25 0 47 -6 66 -17c20 -12 36 -28 48 -48c12 -19 18 -41 18 -66c0 -24 -6 -46 -18 -66c-12 -19 -28 -35 -48 -46c-19 -12 -41 -18 -66 -18z
M0 644c15 0 27 5 37 15s15 22 15 37s-5 28 -15 38c-10 9 -22 14 -37 14s-27 -5 -37 -14c-10 -10 -15 -23 -15 -38s5 -27 15 -37s22 -15 37 -15z" />
    <glyph glyph-name="uni030B" unicode="&#x30b;" horiz-adv-x="0" 
d="M40 590l86 159h149l-102 -159h-133zM-174 590l76 159h150l-93 -159h-133z" />
    <glyph glyph-name="uni030C" unicode="&#x30c;" horiz-adv-x="0" 
d="M-82 590l-124 159h142l64 -73l64 73h142l-124 -159h-164z" />
    <glyph glyph-name="uni0312" unicode="&#x312;" horiz-adv-x="0" 
d="M1 579c-27 0 -49 8 -65 23c-15 15 -23 35 -23 58c0 47 25 100 74 159h101c-15 -19 -27 -37 -37 -52s-19 -32 -28 -50c18 -3 33 -10 44 -21s17 -26 17 -44c0 -21 -8 -38 -24 -52c-15 -14 -35 -21 -59 -21z" />
    <glyph glyph-name="uni0315" unicode="&#x315;" horiz-adv-x="0" 
d="M6 486l2 239h135l-25 -239h-112z" />
    <glyph glyph-name="uni031B" unicode="&#x31b;" horiz-adv-x="0" 
d="M-118 521c17 0 31 5 40 15c10 10 15 25 15 45v60h131v-77c0 -47 -14 -84 -44 -111c-28 -27 -71 -40 -126 -40h-56v108h40z" />
    <glyph glyph-name="dotbelowcomb" unicode="&#x323;" horiz-adv-x="0" 
d="M0 -229c-24 0 -44 9 -62 25c-16 18 -25 38 -25 62c0 25 9 45 25 62c18 17 38 25 62 25s44 -8 62 -25c16 -17 25 -37 25 -62c0 -24 -9 -44 -25 -62c-18 -16 -38 -25 -62 -25z" />
    <glyph glyph-name="uni0326" unicode="&#x326;" horiz-adv-x="0" 
d="M-78 -273c13 17 23 33 31 45c8 14 16 28 24 44c-18 3 -33 11 -44 22s-17 26 -17 44c0 20 8 37 24 51c15 14 35 21 59 21c27 0 49 -8 65 -22c15 -16 23 -35 23 -59c0 -23 -5 -47 -16 -69c-11 -24 -26 -49 -47 -77h-102z" />
    <glyph glyph-name="uni0327" unicode="&#x327;" horiz-adv-x="0" 
d="M-98 -261v84h59c30 0 45 11 45 32c0 19 -13 29 -40 29h-50l47 155h87l-30 -87c27 -1 51 -11 70 -30s29 -43 29 -71c0 -35 -11 -62 -33 -82c-23 -20 -54 -30 -94 -30h-90z" />
    <glyph glyph-name="uni0328" unicode="&#x328;" horiz-adv-x="0" 
d="M24 -258c-47 0 -85 11 -112 32c-27 22 -41 50 -41 85c0 73 48 129 145 169l56 -28c-29 -21 -50 -39 -61 -56s-17 -34 -17 -51s6 -31 18 -40c11 -9 26 -14 44 -14h34v-97h-66z" />
    <glyph glyph-name="uni0329" unicode="&#x329;" horiz-adv-x="0" 
d="M-69 -267v215h138v-215h-138z" />
    <glyph glyph-name="uni032E" unicode="&#x32e;" horiz-adv-x="0" 
d="M0 -233c-53 0 -96 15 -130 45c-33 30 -51 70 -54 121h119c3 -19 10 -33 21 -45c11 -10 26 -16 44 -16s33 6 44 16c11 12 18 26 21 45h119c-3 -51 -21 -91 -54 -121s-77 -45 -130 -45z" />
    <glyph glyph-name="uni0331" unicode="&#x331;" horiz-adv-x="0" 
d="M-164 -86h328v-113h-328v113z" />
    <glyph glyph-name="uni0338" unicode="&#x338;" horiz-adv-x="0" 
d="M-209 -148l348 970h69l-348 -970h-69z" />
    <glyph glyph-name="uni0344" unicode="&#x344;" horiz-adv-x="0" 
d="M-65 776l77 177h148l-93 -177h-132zM-112 582c-21 0 -40 8 -55 22c-15 16 -23 34 -23 55c0 22 8 41 23 55c15 16 34 23 55 23s40 -7 54 -23c16 -14 23 -33 23 -55c0 -21 -7 -39 -23 -55c-14 -14 -33 -22 -54 -22zM112 582c-21 0 -40 8 -54 22c-16 16 -23 34 -23 55
s7 40 23 55c14 15 33 23 54 23s40 -7 55 -23c15 -14 23 -33 23 -55c0 -21 -8 -39 -23 -55c-15 -14 -34 -22 -55 -22z" />
    <glyph glyph-name="uni0374" unicode="&#x374;" horiz-adv-x="286" 
d="M33 450l88 246h133l-105 -246h-116z" />
    <glyph glyph-name="uni0375" unicode="&#x375;" horiz-adv-x="286" 
d="M33 -236l88 236h133l-105 -236h-116z" />
    <glyph glyph-name="uni037E" unicode="&#x37e;" horiz-adv-x="290" 
d="M19 -176c24 37 44 71 59 100c16 29 27 55 33 76c-19 5 -34 14 -45 29c-12 15 -18 32 -18 51c0 23 8 44 26 62c16 19 39 28 67 28c29 0 53 -9 71 -28c19 -18 28 -44 28 -77s-8 -69 -24 -108s-40 -83 -73 -133h-124zM145 351c-27 0 -49 9 -68 28s-28 41 -28 68s9 49 28 68
s41 28 68 28s49 -9 68 -28s28 -41 28 -68s-9 -49 -28 -68s-41 -28 -68 -28z" />
    <glyph glyph-name="tonos" unicode="&#x384;" horiz-adv-x="595" 
d="M182 590l78 177h154l-93 -177h-139z" />
    <glyph glyph-name="dieresistonos" unicode="&#x385;" horiz-adv-x="595" 
d="M232 776l77 177h148l-93 -177h-132zM185 582c-21 0 -40 8 -55 22c-15 16 -23 34 -23 55c0 22 8 41 23 55c15 16 34 23 55 23s39 -7 55 -23c14 -14 22 -33 22 -55c0 -21 -8 -39 -22 -55c-16 -14 -34 -22 -55 -22zM409 582c-21 0 -39 8 -55 22c-14 16 -22 34 -22 55
s8 40 22 55c16 15 34 23 55 23s40 -7 55 -23c15 -14 23 -33 23 -55c0 -21 -8 -39 -23 -55c-15 -14 -34 -22 -55 -22z" />
    <glyph glyph-name="Alphatonos" unicode="&#x386;" horiz-adv-x="800" 
d="M616 0l-48 139h-264l-48 -139h-164l263 696h170l263 -696h-172zM352 278h167l-83 241zM15 519l67 177h148l-83 -177h-132z" />
    <glyph glyph-name="anoteleia" unicode="&#x387;" horiz-adv-x="290" 
d="M145 351c-27 0 -49 9 -68 28s-28 41 -28 68s9 49 28 68s41 28 68 28s49 -9 68 -28s28 -41 28 -68s-9 -49 -28 -68s-41 -28 -68 -28z" />
    <glyph glyph-name="Epsilontonos" unicode="&#x388;" horiz-adv-x="875" 
d="M304 0v696h514v-140h-352v-134h339v-140h-339v-142h357v-140h-519zM15 519l67 177h148l-83 -177h-132z" />
    <glyph glyph-name="Etatonos" unicode="&#x389;" horiz-adv-x="1001" 
d="M304 0v696h163v-261h299v261h163v-696h-163v294h-299v-294h-163zM15 519l67 177h148l-83 -177h-132z" />
    <glyph glyph-name="Iotatonos" unicode="&#x38a;" horiz-adv-x="539" 
d="M467 0h-163v696h163v-696zM15 519l67 177h148l-83 -177h-132z" />
    <glyph glyph-name="Omicrontonos" unicode="&#x38c;" horiz-adv-x="969" 
d="M573 -16c-52 0 -100 9 -143 27c-44 18 -82 43 -114 76c-31 33 -56 71 -74 115c-17 45 -26 93 -26 146s9 101 26 146c18 44 43 82 74 115c32 33 70 58 114 76c43 18 91 27 143 27c53 0 101 -9 145 -27c43 -18 81 -43 113 -76s57 -71 75 -115c17 -45 26 -93 26 -146
s-9 -101 -26 -146c-18 -44 -43 -82 -75 -115s-70 -58 -113 -76c-44 -18 -92 -27 -145 -27zM573 128c38 0 72 9 101 28c29 18 52 44 68 77c17 33 25 72 25 115c0 44 -8 82 -25 116c-16 32 -39 58 -68 76c-29 19 -63 28 -101 28c-37 0 -71 -9 -99 -28c-30 -18 -52 -44 -68 -76
c-17 -34 -25 -72 -25 -116c0 -43 8 -82 25 -115c16 -33 38 -59 68 -77c28 -19 62 -28 99 -28zM15 519l67 177h148l-83 -177h-132z" />
    <glyph glyph-name="Upsilontonos" unicode="&#x38e;" horiz-adv-x="957" 
d="M533 0v255l-252 441h183l154 -289l154 289h176l-252 -441v-255h-163zM15 519l67 177h148l-83 -177h-132z" />
    <glyph glyph-name="Omegatonos" unicode="&#x38f;" horiz-adv-x="971" 
d="M206 0v141h121c-35 29 -63 64 -82 105c-19 42 -29 87 -29 136c0 47 9 91 26 131s42 75 74 105c31 30 68 53 111 70c43 16 89 24 140 24s97 -8 140 -24c43 -17 80 -40 111 -70c32 -30 57 -65 74 -105s26 -84 26 -131c0 -49 -10 -94 -29 -136c-19 -41 -47 -76 -82 -105h121
v-141h-311v136c41 23 74 55 99 94c25 40 37 85 37 134c0 38 -8 72 -23 103s-37 55 -64 73c-28 19 -61 28 -99 28c-37 0 -70 -9 -98 -28c-28 -18 -50 -42 -65 -73s-23 -65 -23 -103c0 -49 12 -94 37 -134c25 -39 58 -71 99 -94v-136h-311zM15 519l67 177h148l-83 -177h-132z
" />
    <glyph glyph-name="iotadieresistonos" unicode="&#x390;" horiz-adv-x="322" 
d="M55 169v352h152v-334c0 -41 19 -61 57 -61h38v-130h-76c-55 0 -97 15 -126 44c-30 30 -45 73 -45 129zM66 776l77 177h148l-93 -177h-132zM19 582c-21 0 -40 8 -55 22c-15 16 -23 34 -23 55c0 22 8 41 23 55c15 16 34 23 55 23s39 -7 55 -23c14 -14 22 -33 22 -55
c0 -21 -8 -39 -22 -55c-16 -14 -34 -22 -55 -22zM243 582c-21 0 -39 8 -55 22c-14 16 -22 34 -22 55s8 40 22 55c16 15 34 23 55 23s40 -7 55 -23c15 -14 23 -33 23 -55c0 -21 -8 -39 -23 -55c-15 -14 -34 -22 -55 -22z" />
    <glyph glyph-name="Alpha" unicode="&#x391;" horiz-adv-x="720" 
d="M536 0l-48 139h-264l-48 -139h-164l263 696h170l263 -696h-172zM272 278h167l-83 241z" />
    <glyph glyph-name="Beta" unicode="&#x392;" horiz-adv-x="688" 
d="M72 0v696h312c48 0 90 -7 126 -22s64 -36 84 -64c21 -28 31 -62 31 -103c0 -33 -8 -62 -25 -87c-17 -24 -41 -43 -74 -56c41 -13 72 -34 93 -63s31 -62 31 -100c0 -41 -11 -77 -32 -107c-22 -30 -52 -53 -90 -70c-38 -16 -82 -24 -133 -24h-323zM366 563h-134v-141h134
c33 0 58 6 75 18c17 11 26 29 26 53c0 47 -34 70 -101 70zM383 291h-151v-158h151c71 0 106 26 106 79s-35 79 -106 79z" />
    <glyph glyph-name="Gamma" unicode="&#x393;" horiz-adv-x="596" 
d="M72 0v696h488v-141h-325v-555h-163z" />
    <glyph glyph-name="uni0394" unicode="&#x394;" horiz-adv-x="731" 
d="M451 696l243 -560v-136h-657v136l243 560h171zM201 140h321l-161 395z" />
    <glyph glyph-name="Epsilon" unicode="&#x395;" horiz-adv-x="643" 
d="M72 0v696h514v-140h-352v-134h339v-140h-339v-142h357v-140h-519z" />
    <glyph glyph-name="Zeta" unicode="&#x396;" horiz-adv-x="636" 
d="M43 696h546v-136l-345 -419h351v-141h-552v136l345 419h-345v141z" />
    <glyph glyph-name="Eta" unicode="&#x397;" horiz-adv-x="769" 
d="M72 0v696h163v-261h299v261h163v-696h-163v294h-299v-294h-163z" />
    <glyph glyph-name="Theta" unicode="&#x398;" horiz-adv-x="788" 
d="M394 -16c-52 0 -100 9 -144 27c-43 18 -81 43 -112 76c-32 33 -57 71 -74 115c-18 45 -27 93 -27 146s9 101 27 146c17 44 42 82 74 115c31 33 69 58 112 76c44 18 92 27 144 27s100 -9 144 -27c43 -18 81 -43 112 -76c32 -33 57 -71 74 -115c18 -45 27 -93 27 -146
s-9 -101 -27 -146c-17 -44 -42 -82 -74 -115c-31 -33 -69 -58 -112 -76c-44 -18 -92 -27 -144 -27zM394 124c39 0 73 9 102 28s52 45 69 78c17 34 25 73 25 118s-8 84 -25 118c-17 33 -40 59 -69 78s-63 28 -102 28c-38 0 -72 -9 -102 -28c-29 -19 -52 -45 -69 -78
c-17 -34 -25 -73 -25 -118s8 -84 25 -118c17 -33 40 -59 69 -78c30 -19 64 -28 102 -28zM285 284v130h218v-130h-218z" />
    <glyph glyph-name="Iota" unicode="&#x399;" horiz-adv-x="307" 
d="M235 0h-163v696h163v-696z" />
    <glyph glyph-name="Kappa" unicode="&#x39a;" horiz-adv-x="698" 
d="M72 0v696h163v-270l249 270h192l-309 -332l325 -364h-206l-251 284v-284h-163z" />
    <glyph glyph-name="Lambda" unicode="&#x39b;" horiz-adv-x="711" 
d="M523 0l-171 504l-173 -504h-167l258 696h171l258 -696h-176z" />
    <glyph glyph-name="Mu" unicode="&#x39c;" horiz-adv-x="899" 
d="M227 0h-155v696h183l198 -326l192 326h182v-696h-155v473l-223 -370l-222 368v-471z" />
    <glyph glyph-name="Nu" unicode="&#x39d;" horiz-adv-x="768" 
d="M72 0v696h157l311 -448v448h156v-696h-156l-312 449v-449h-156z" />
    <glyph glyph-name="Xi" unicode="&#x39e;" horiz-adv-x="624" 
d="M56 555v141h512v-141h-512zM135 282v141h354v-141h-354zM50 0v141h524v-141h-524z" />
    <glyph glyph-name="Omicron" unicode="&#x39f;" horiz-adv-x="790" 
d="M394 -16c-52 0 -100 9 -144 27c-43 18 -81 43 -112 76c-32 33 -57 71 -74 115c-18 45 -27 93 -27 146s9 101 27 146c17 44 42 82 74 115c31 33 69 58 112 76c44 18 92 27 144 27c53 0 101 -9 144 -27c44 -18 82 -43 114 -76s57 -71 74 -115c18 -45 27 -93 27 -146
s-9 -101 -27 -146c-17 -44 -42 -82 -74 -115s-70 -58 -114 -76c-43 -18 -91 -27 -144 -27zM394 128c38 0 72 9 101 28c29 18 52 44 69 77c16 33 24 72 24 115c0 44 -8 82 -24 116c-17 32 -40 58 -69 76c-29 19 -63 28 -101 28c-37 0 -70 -9 -100 -28
c-28 -18 -51 -44 -68 -76c-16 -34 -24 -72 -24 -116c0 -43 8 -82 24 -115c17 -33 40 -59 68 -77c30 -19 63 -28 100 -28z" />
    <glyph glyph-name="Pi" unicode="&#x3a0;" horiz-adv-x="754" 
d="M72 0v696h610v-696h-162v555h-285v-555h-163z" />
    <glyph glyph-name="Rho" unicode="&#x3a1;" horiz-adv-x="666" 
d="M72 0v696h288c57 0 107 -10 148 -30s73 -48 95 -84s33 -78 33 -126s-11 -90 -33 -126c-22 -37 -54 -65 -95 -85s-91 -30 -148 -30h-125v-215h-163zM235 353h101c47 0 82 9 103 27c21 17 32 43 32 76s-11 58 -32 76c-21 17 -56 26 -103 26h-101v-205z" />
    <glyph glyph-name="Sigma" unicode="&#x3a3;" horiz-adv-x="625" 
d="M583 141v-141h-540v136l207 212l-207 212v136h535v-141h-332l205 -207l-205 -207h337z" />
    <glyph glyph-name="Tau" unicode="&#x3a4;" horiz-adv-x="677" 
d="M420 0h-163v555h-221v141h605v-141h-221v-555z" />
    <glyph glyph-name="Upsilon" unicode="&#x3a5;" horiz-adv-x="686" 
d="M262 0v255l-252 441h183l154 -289l154 289h176l-252 -441v-255h-163z" />
    <glyph glyph-name="Phi" unicode="&#x3a6;" horiz-adv-x="848" 
d="M347 0v79c-62 5 -117 20 -164 45c-47 26 -85 60 -111 102c-28 41 -41 88 -41 141s13 100 41 141c26 42 64 76 111 102c47 25 102 40 164 45v79h154v-79c62 -5 117 -20 164 -45c47 -26 85 -60 111 -102c28 -41 41 -88 41 -141s-13 -100 -41 -141
c-26 -42 -64 -76 -111 -102c-47 -25 -102 -40 -164 -45v-79h-154zM655 367c0 41 -14 75 -42 103c-28 26 -66 43 -114 48v-302c48 5 86 22 114 48c28 28 42 62 42 103zM193 367c0 -41 14 -75 42 -103c28 -26 66 -43 114 -48v302c-48 -5 -86 -22 -114 -48
c-28 -28 -42 -62 -42 -103z" />
    <glyph glyph-name="Chi" unicode="&#x3a7;" horiz-adv-x="737" 
d="M15 0l253 363l-227 333h194l137 -210l132 210h192l-229 -335l255 -361h-195l-165 240l-156 -240h-191z" />
    <glyph glyph-name="Psi" unicode="&#x3a8;" horiz-adv-x="816" 
d="M329 0v176c-88 12 -157 44 -207 96c-49 53 -74 124 -74 214v210h158v-210c0 -49 10 -86 30 -113s51 -44 94 -53v376h156v-376c43 9 74 26 94 53s30 64 30 113v210h158v-210c0 -90 -25 -161 -74 -214c-50 -52 -119 -84 -207 -96v-176h-158z" />
    <glyph glyph-name="uni03A9" unicode="&#x3a9;" horiz-adv-x="808" 
d="M43 0v141h121c-35 29 -63 64 -82 105c-19 42 -29 87 -29 136c0 47 9 91 26 131s42 75 73 105c32 30 69 53 112 70c43 16 89 24 140 24s97 -8 140 -24c43 -17 80 -40 112 -70c31 -30 56 -65 73 -105s26 -84 26 -131c0 -49 -10 -94 -29 -136c-19 -41 -47 -76 -82 -105h121
v-141h-311v136c41 23 74 55 99 94c25 40 37 85 37 134c0 38 -8 72 -23 103s-37 55 -65 73c-27 19 -60 28 -98 28c-37 0 -70 -9 -98 -28c-28 -18 -50 -42 -65 -73s-23 -65 -23 -103c0 -49 12 -94 37 -134c25 -39 58 -71 99 -94v-136h-311z" />
    <glyph glyph-name="Iotadieresis" unicode="&#x3aa;" horiz-adv-x="307" 
d="M235 0h-163v696h163v-696zM272 759c-23 0 -42 8 -57 23s-23 34 -23 57c0 22 8 41 23 57c15 15 34 23 57 23s42 -8 58 -23c15 -16 23 -35 23 -57c0 -23 -8 -42 -23 -57c-16 -15 -35 -23 -58 -23zM34 759c-23 0 -42 8 -58 23c-15 15 -23 34 -23 57c0 22 8 41 23 57
c16 15 35 23 58 23s42 -8 57 -23c15 -16 23 -35 23 -57c0 -23 -8 -42 -23 -57s-34 -23 -57 -23z" />
    <glyph glyph-name="Upsilondieresis" unicode="&#x3ab;" horiz-adv-x="686" 
d="M262 0v255l-252 441h183l154 -289l154 289h176l-252 -441v-255h-163zM462 759c-23 0 -42 8 -57 23s-23 34 -23 57c0 22 8 41 23 57c15 15 34 23 57 23s42 -8 58 -23c15 -16 23 -35 23 -57c0 -23 -8 -42 -23 -57c-16 -15 -35 -23 -58 -23zM224 759c-23 0 -42 8 -58 23
c-15 15 -23 34 -23 57c0 22 8 41 23 57c16 15 35 23 58 23s42 -8 57 -23c15 -16 23 -35 23 -57c0 -23 -8 -42 -23 -57s-34 -23 -57 -23z" />
    <glyph glyph-name="alphatonos" unicode="&#x3ac;" horiz-adv-x="630" 
d="M247 -15c-43 0 -80 11 -113 35c-32 22 -57 55 -75 96s-27 89 -27 143c0 55 9 103 28 145c18 41 44 74 77 97s72 35 115 35c67 0 118 -29 154 -88c3 27 7 51 12 73h145c-15 -90 -23 -173 -23 -250v-37c0 -41 4 -70 12 -85s23 -23 44 -23h12v-130h-46
c-83 0 -133 29 -150 87c-18 -31 -41 -55 -69 -73c-28 -16 -60 -25 -96 -25zM291 118c32 0 57 13 77 39c18 26 28 60 28 103s-10 78 -28 104c-20 26 -45 39 -77 39s-57 -13 -77 -39c-18 -26 -28 -61 -28 -104s10 -77 28 -103c20 -26 45 -39 77 -39zM248 590l78 177h154
l-93 -177h-139z" />
    <glyph glyph-name="epsilontonos" unicode="&#x3ad;" horiz-adv-x="545" 
d="M269 -15c-47 0 -89 7 -124 20s-63 32 -82 55c-19 24 -29 51 -29 81c0 31 11 57 32 79c22 21 49 36 82 44c-31 9 -56 25 -74 46c-17 21 -26 46 -26 75s10 55 28 78c20 23 46 41 78 53c34 14 71 20 112 20c64 0 117 -14 160 -42c42 -28 69 -69 82 -122h-144
c-8 15 -20 27 -36 34c-15 7 -34 11 -55 11c-24 0 -43 -5 -57 -13c-13 -10 -20 -22 -20 -38c0 -15 6 -27 20 -37c12 -10 31 -15 56 -15h106v-107h-99c-28 0 -51 -4 -67 -12c-18 -8 -26 -21 -26 -38c0 -18 8 -31 24 -40c15 -9 36 -13 63 -13c24 0 44 3 61 10c17 6 28 17 35 32
h150c-15 -55 -44 -95 -87 -122c-43 -26 -98 -39 -163 -39zM199 590l78 177h154l-93 -177h-139z" />
    <glyph glyph-name="etatonos" unicode="&#x3ae;" horiz-adv-x="624" 
d="M417 -205v507c0 30 -7 54 -21 72s-36 27 -65 27c-27 0 -48 -9 -65 -27c-17 -17 -25 -41 -25 -70v-304h-152v334c0 38 -17 57 -51 57h-13v130h43c68 0 112 -23 133 -69c17 26 40 46 68 62c28 14 60 22 95 22c63 0 112 -19 150 -58c36 -39 55 -91 55 -156v-527h-152z
M239 590l78 177h154l-93 -177h-139z" />
    <glyph glyph-name="iotatonos" unicode="&#x3af;" horiz-adv-x="322" 
d="M55 169v352h152v-334c0 -41 19 -61 57 -61h38v-130h-76c-55 0 -97 15 -126 44c-30 30 -45 73 -45 129zM56 590l78 177h154l-93 -177h-139z" />
    <glyph glyph-name="upsilondieresistonos" unicode="&#x3b0;" horiz-adv-x="589" 
d="M314 -15c-75 0 -132 22 -174 66c-40 44 -61 106 -61 185v99c0 19 -4 33 -11 43c-7 8 -20 13 -38 13h-9v130h40c58 0 101 -14 129 -43c27 -28 41 -70 41 -126v-116c0 -39 7 -68 19 -88c14 -20 35 -30 64 -30c31 0 54 12 68 37c15 25 22 62 22 111c0 24 -2 51 -6 82
c-5 30 -11 60 -18 92c-7 30 -16 58 -25 81h153c17 -37 29 -78 37 -124s12 -89 12 -128c0 -89 -21 -158 -64 -209c-43 -50 -102 -75 -179 -75zM220 776l77 177h148l-93 -177h-132zM173 582c-21 0 -40 8 -55 22c-15 16 -23 34 -23 55c0 22 8 41 23 55c15 16 34 23 55 23
s39 -7 55 -23c14 -14 22 -33 22 -55c0 -21 -8 -39 -22 -55c-16 -14 -34 -22 -55 -22zM397 582c-21 0 -39 8 -55 22c-14 16 -22 34 -22 55s8 40 22 55c16 15 34 23 55 23s40 -7 55 -23c15 -14 23 -33 23 -55c0 -21 -8 -39 -23 -55c-15 -14 -34 -22 -55 -22z" />
    <glyph glyph-name="alpha" unicode="&#x3b1;" horiz-adv-x="630" 
d="M247 -15c-43 0 -80 11 -113 35c-32 22 -57 55 -75 96s-27 89 -27 143c0 55 9 103 28 145c18 41 44 74 77 97s72 35 115 35c67 0 118 -29 154 -88c3 27 7 51 12 73h145c-15 -90 -23 -173 -23 -250v-37c0 -41 4 -70 12 -85s23 -23 44 -23h12v-130h-46
c-83 0 -133 29 -150 87c-18 -31 -41 -55 -69 -73c-28 -16 -60 -25 -96 -25zM291 118c32 0 57 13 77 39c18 26 28 60 28 103s-10 78 -28 104c-20 26 -45 39 -77 39s-57 -13 -77 -39c-18 -26 -28 -61 -28 -104s10 -77 28 -103c20 -26 45 -39 77 -39z" />
    <glyph glyph-name="beta" unicode="&#x3b2;" horiz-adv-x="600" 
d="M363 -15c-67 0 -117 23 -151 68v-258h-152v671c0 57 10 105 30 146c19 41 47 72 84 94c36 23 79 34 129 34c43 0 81 -8 115 -24c32 -17 58 -40 77 -68c19 -30 28 -64 28 -103c0 -35 -9 -67 -28 -94s-44 -47 -76 -60c45 -13 81 -37 109 -71c26 -34 40 -76 40 -127
c0 -40 -8 -76 -26 -107c-16 -31 -40 -56 -71 -74s-67 -27 -108 -27zM212 245c0 -40 10 -71 30 -93c19 -23 45 -34 78 -34c30 0 53 9 70 27c16 18 24 42 24 71c0 35 -11 63 -32 82c-22 19 -51 29 -86 29h-25v114h22c23 0 41 8 56 25c15 16 22 36 22 61c0 23 -6 43 -19 57
c-13 16 -31 23 -54 23c-25 0 -45 -9 -62 -28c-16 -19 -24 -48 -24 -88v-246z" />
    <glyph glyph-name="gamma" unicode="&#x3b3;" horiz-adv-x="578" 
d="M216 -205v205l-108 286c-15 41 -28 69 -40 84c-10 14 -25 21 -43 21h-10v130h11c41 0 75 -4 100 -12s46 -23 62 -45s31 -54 44 -95l74 -222c28 59 50 121 66 185c15 66 26 128 31 189h154c-6 -57 -17 -117 -34 -177c-17 -62 -38 -121 -63 -180c-26 -59 -57 -113 -92 -164
v-205h-152z" />
    <glyph glyph-name="delta" unicode="&#x3b4;" horiz-adv-x="585" 
d="M292 -15c-52 0 -98 9 -136 29c-40 18 -70 45 -92 78c-21 34 -32 73 -32 116c0 45 12 86 37 122c25 37 61 67 110 90c-32 20 -56 42 -71 66s-23 52 -23 84c0 33 10 63 31 88c20 25 48 45 85 60s79 22 128 22c31 0 60 -2 87 -6c27 -5 51 -12 73 -22v-119
c-20 7 -43 13 -69 18c-27 5 -54 7 -82 7c-29 0 -53 -4 -72 -13c-18 -9 -27 -21 -27 -38c0 -13 6 -24 17 -33s26 -19 45 -29l74 -38c56 -29 100 -63 131 -104s47 -88 47 -143c0 -46 -11 -87 -33 -122c-21 -35 -52 -63 -91 -83s-85 -30 -137 -30zM186 225c0 -31 10 -57 30 -77
s45 -30 76 -30s57 10 77 30s30 45 30 74c0 33 -11 62 -33 84c-21 24 -50 44 -85 61c-63 -33 -95 -81 -95 -142z" />
    <glyph glyph-name="epsilon" unicode="&#x3b5;" horiz-adv-x="545" 
d="M269 -15c-47 0 -89 7 -124 20s-63 32 -82 55c-19 24 -29 51 -29 81c0 31 11 57 32 79c22 21 49 36 82 44c-31 9 -56 25 -74 46c-17 21 -26 46 -26 75s10 55 28 78c20 23 46 41 78 53c34 14 71 20 112 20c64 0 117 -14 160 -42c42 -28 69 -69 82 -122h-144
c-8 15 -20 27 -36 34c-15 7 -34 11 -55 11c-24 0 -43 -5 -57 -13c-13 -10 -20 -22 -20 -38c0 -15 6 -27 20 -37c12 -10 31 -15 56 -15h106v-107h-99c-28 0 -51 -4 -67 -12c-18 -8 -26 -21 -26 -38c0 -18 8 -31 24 -40c15 -9 36 -13 63 -13c24 0 44 3 61 10c17 6 28 17 35 32
h150c-15 -55 -44 -95 -87 -122c-43 -26 -98 -39 -163 -39z" />
    <glyph glyph-name="zeta" unicode="&#x3b6;" horiz-adv-x="461" 
d="M345 -155v36c0 35 -7 61 -19 78c-14 17 -36 29 -67 36l-38 8c-59 13 -106 36 -139 71c-33 34 -50 81 -50 140c0 67 20 132 60 194c41 62 103 125 187 190h-213v127h393v-120c-90 -71 -159 -137 -205 -201c-48 -62 -71 -119 -71 -169c0 -33 9 -57 27 -75
c17 -16 44 -29 80 -36l38 -8c53 -11 90 -33 113 -66c23 -34 34 -87 34 -160v-45h-130z" />
    <glyph glyph-name="eta" unicode="&#x3b7;" horiz-adv-x="624" 
d="M417 -205v507c0 30 -7 54 -21 72s-36 27 -65 27c-27 0 -48 -9 -65 -27c-17 -17 -25 -41 -25 -70v-304h-152v334c0 38 -17 57 -51 57h-13v130h43c68 0 112 -23 133 -69c17 26 40 46 68 62c28 14 60 22 95 22c63 0 112 -19 150 -58c36 -39 55 -91 55 -156v-527h-152z" />
    <glyph glyph-name="theta" unicode="&#x3b8;" horiz-adv-x="591" 
d="M296 -15c-54 0 -100 15 -139 45c-39 31 -68 74 -89 131s-31 124 -31 202c0 79 10 146 31 202s50 99 89 129c39 31 85 46 139 46s100 -15 139 -46c39 -30 68 -73 89 -129s31 -123 31 -202c0 -78 -10 -145 -31 -202s-50 -100 -89 -131c-39 -30 -85 -45 -139 -45zM296 608
c-33 0 -59 -14 -79 -42s-32 -73 -37 -136h232c-4 63 -16 108 -36 136c-21 28 -47 42 -80 42zM296 117c33 0 59 15 80 45c21 29 33 76 36 141h-232c3 -65 15 -112 36 -141c21 -30 47 -45 80 -45z" />
    <glyph glyph-name="iota" unicode="&#x3b9;" horiz-adv-x="322" 
d="M55 169v352h152v-334c0 -41 19 -61 57 -61h38v-130h-76c-55 0 -97 15 -126 44c-30 30 -45 73 -45 129z" />
    <glyph glyph-name="kappa" unicode="&#x3ba;" horiz-adv-x="591" 
d="M60 0v521h152v-191l125 115c29 27 57 46 85 58c27 12 57 18 89 18h17v-130h-16c-18 0 -37 -4 -56 -13c-20 -9 -40 -22 -60 -41l-50 -46l239 -291h-187l-156 196l-30 -28v-168h-152z" />
    <glyph glyph-name="lambda" unicode="&#x3bb;" horiz-adv-x="572" 
d="M21 0l180 487l-16 42c-9 23 -21 40 -37 51c-17 10 -35 15 -54 15h-26v130h29c61 0 107 -11 141 -33c32 -23 59 -60 79 -111l152 -389c18 -45 41 -67 68 -67h20v-129h-23c-36 0 -66 5 -90 14s-44 24 -60 45s-31 48 -44 81l-67 173l-98 -309h-154z" />
    <glyph glyph-name="uni03BC" unicode="&#x3bc;" horiz-adv-x="621" 
d="M61 -205v726h152v-304c0 -30 7 -54 22 -71s35 -26 62 -26c25 0 46 8 62 26c16 16 24 40 24 71v304h152v-338c0 -38 17 -57 51 -57h13v-130h-49c-63 0 -105 22 -126 65c-13 -23 -31 -42 -52 -55c-22 -14 -47 -21 -75 -21c-22 0 -41 3 -57 10c-15 7 -28 16 -37 27v-227
h-142z" />
    <glyph glyph-name="nu" unicode="&#x3bd;" horiz-adv-x="574" 
d="M214 0l-106 286c-11 29 -20 50 -28 66c-7 14 -15 25 -24 30c-8 6 -18 9 -31 9h-10v130h11c42 0 76 -4 100 -13c26 -8 46 -23 62 -44c16 -22 31 -54 44 -95l73 -220c25 53 46 112 61 177c16 64 27 129 34 195h153c-3 -46 -13 -99 -28 -159c-15 -59 -36 -120 -61 -184
c-26 -62 -57 -122 -94 -178h-156z" />
    <glyph glyph-name="xi" unicode="&#x3be;" horiz-adv-x="486" 
d="M362 -155v36c0 35 -6 61 -20 78c-12 17 -35 29 -66 36l-38 8c-63 13 -112 34 -147 65c-35 30 -52 70 -52 119c0 45 13 84 39 117c27 33 63 55 108 68c-33 6 -60 20 -81 42c-21 23 -32 50 -32 81c0 23 6 43 18 61c12 17 29 31 50 42h-102v127h407v-127h-76
c-48 0 -84 -7 -107 -20s-35 -35 -35 -64c0 -27 10 -47 28 -62c20 -14 45 -21 77 -21h86v-127h-86c-46 0 -81 -7 -105 -20c-23 -14 -35 -36 -35 -66c0 -25 9 -45 27 -60c17 -14 46 -25 87 -34l38 -8c53 -11 90 -33 113 -66c23 -34 34 -87 34 -160v-45h-130z" />
    </font>
</defs>
</svg>
